<?xml version="1.0" encoding="utf-8"?>
<!-- Generator: Adobe Illustrator 18.1.1, SVG Export Plug-In . SVG Version: 6.00 Build 0)  -->
<svg version="1.1" xmlns="http://www.w3.org/2000/svg" xmlns:xlink="http://www.w3.org/1999/xlink" x="0px" y="0px"
	 viewBox="0 0 700 700" style="enable-background:new 0 0 700 700;" xml:space="preserve">
<g id="Layer_1">
	<path style="opacity:0.2;fill:#3C2415;stroke:#B9539F;stroke-width:3;" d="M334.7,620.7c-13.4-5.4-19.6-18.3-19.6-40.7
		c0-43.8-49-53.1-80-18.8c-9,9.9-31.8,8.2-42.5-4.3c-12.1-14.2-9.1-32,8.9-52.5c16-18.2,17.6-36.2,4.7-52.6
		c-7.1-9.1-14.1-11.8-34.3-13.5c-30.1-2.5-40.3-10.9-40.3-33.1c0-22.2,10.2-30.6,40.3-33.1c20.2-1.7,27.1-4.4,34.3-13.5
		c15-19,11.2-39.3-11.6-62.1c-18.2-18.2-13.6-39.1,11.5-52.6c10.6-5.7,25.3-0.3,42.2,15.4c28.1,26.2,66.7,8.5,66.7-30.6
		c0-34.8,27.2-53.6,50.7-35.1c9.5,7.5,12.1,14.1,13.9,35.1c2.5,30.5,13.5,42.5,39,42.5c12.2,0,20.1-3.7,31.1-14.4
		c18.3-17.7,38.1-19.2,51.4-3.8c11.3,13.1,11.7,29.3,0.9,40.1c-26.2,26.2-30.4,48.9-12.4,66.9c8.6,8.6,15.9,11.1,32,11.1
		c37.6,0,56.1,34.8,32,58.9c-8.4,8.4-16,11.1-30.8,11.1c-25.1,0-38,7.2-41.8,27.9c-3.2,17,2.1,29.3,20.6,47.9
		c6.2,6.2,8.2,14,7.8,25.3c-0.3,9.3-6.7,18-15.8,22.5c-16.8,8.3-35.2,0.3-44.7-12.1c-15.1-19.7-39.2-19.3-55-6.6
		c-10.1,8-12.6,14.4-14.4,35.6c-1.7,20.8-4.4,27.7-13.5,34.8C353.7,626.1,349.5,626.7,334.7,620.7z"/>
	<path style="opacity:0.2;fill:#58595B;stroke:#3A53A4;stroke-width:3;" d="M316.7,649.3c-32.5-14-44.1-53.6-35.3-85.8
		c4.7-24.6,7.1-53.7-9.2-74.1c-19.8-20.8-46.2-28.9-71.4-15.8c-32.8,9.9-74.6,1.2-90.8-31.8c-18.7-36.1-2.8-89.4,38.9-100.5
		c26.5-8.3,53.2,3.2,79.2,6.4c24.2-7.2,54.1-22.1,54.7-51.2c1.9-31.8-5.6-64.2,0.5-95.7c13.4-29.6,47.9-45.4,79.4-38.1
		c29.6,4.1,55.8,32,51.9,62.9c1.5,22.9-5.9,45.4-4.4,68.1c5.8,38.5,52.5,65.5,88.2,47.5c38.6-15.2,91.5,11.6,93.5,55.2
		c5.4,34.4-14.3,74.2-50.9,80.3c-32.4,8.3-67.9-15.6-100.6-1.8c-23.7,10-28.8,32.1-30.8,54.9c1.4,29.4,13.6,61.3,0.1,89.3
		c-12.8,24.7-40.5,37.4-67.7,34.7C333.5,653.3,324.7,652.6,316.7,649.3z"/>
	<path style="opacity:0.2;fill:#ED1C24;stroke:#0D9747;stroke-width:3;" d="M135.8,548C86.6,536.6,45.6,492.2,34,440
		c-0.8-32.5-6-68,10.5-97.4c28.7-64.1,105.2-97,167.1-70.3c38.2,15.7,62,57.1,103.1,66.7c46.5,15.9,97.4-5.8,130.5-41.7
		c47.9-45.4,126.1-45.2,173.5,0.8c25.1,24.5,46.9,59,43.5,97c1.1,32.8-0.6,68.1-21.5,94.3c-34.8,56.4-109.7,77.3-166,46.8
		c-35.7-17.5-59.4-58.5-100.7-63.5c-29.1-9.1-60.7-1.1-87.2,12.9c-22.2,14.1-38,37.1-62,48.4C198.4,550.7,165.4,552.2,135.8,548z"/>
	<path style="opacity:0.2;fill:#FFF200;stroke:#010101;stroke-width:3;" d="M651.8,673.5H359.2c-6.6,0-12-5.4-12-12V121.9
		c0-6.6,5.4-12,12-12h292.6c6.6,0,12,5.4,12,12v539.6C663.8,668.1,658.4,673.5,651.8,673.5z"/>
	<path style="opacity:0.2;fill:#2E3192;stroke:#010101;stroke-width:3;" d="M651.8,674.5h-606c-6.6,0-12-5.4-12-12V419.4
		c0-6.6,5.4-12,12-12h606c6.6,0,12,5.4,12,12v243.1C663.8,669.1,658.4,674.5,651.8,674.5z"/>
	<path style="opacity:0.2;fill:#9E1F63;stroke:#010101;stroke-width:3;" d="M524.3,407.4c0,97.3-78.9,176.2-176.2,176.2
		c-97.3,0-176.2-78.9-176.2-176.2c0,0,0,0,0,0c0-97.3,78.9-176.2,176.2-176.2S524.3,310.1,524.3,407.4
		C524.3,407.4,524.3,407.4,524.3,407.4z"/>
	<path style="opacity:0.2;fill:#F7941E;stroke:#B9539F;stroke-width:3;" d="M411.1,346.2c0.3,0.3,0.9,0.3,1.1-0.1l53.5-83.9
		c2.3-3.5,9.3-3.2,15.6,0.9l1.3,0.8c6.3,4,9.6,10.2,7.4,13.8l-54.9,86.1c-0.5,0.8-0.4,1.8,0.2,2.5l0.4,0.4c0.7,0.8,1.9,0.9,2.7,0.3
		l51.2-45.1c2.3-1.6,12.2,7.7,16.6,13.9l0.9,1.3c4.3,6.1,6,12.5,3.6,14.1l-57.2,40.4l1.6,0.3c0.1,0,0.2,0,0.4,0h166.5
		c6.8,0,12.3,6.1,12.3,13.6v1.6c0,7.5-5.5,13.6-12.3,13.6H455.2l0.5,0.8l53.9,37.4c2.2,1.5,0.5,7.8-3.8,14l-0.9,1.3
		c-4.3,6.2-10.1,12.9-12.3,11.4l-52.6-39.9c-0.4-0.3-1-0.4-1.5-0.3l-0.6,0.1l53.4,83.8c2.2,3.4-1.2,9.5-7.6,13.5l-1.3,0.8
		c-6.3,4-19.7,10-21.9,6.6l-46-87.8c-0.5-0.8-1.6-1.2-2.5-0.8l-3.9,1.6c-1,0.4-1.5,1.4-1.2,2.4l23.5,83.5c1,3.5-4.1,8-11.4,10
		l-1.5,0.4c-7.2,2-13.9,0.9-14.9-2.6l-23.5-83.7c-0.3-0.9-1.1-1.6-2.1-1.5l-12.1,0.8c-1.1,0.1-1.9,1-1.9,2l-0.2,186.9
		c0,7.7-6.1,13.9-13.6,13.9l-1.6,0c-7.5,0-13.6-6.3-13.6-14l0.2-187c0-1.1-0.8-1.9-1.8-2l-5.9-0.6c-1-0.1-1.9,0.5-2.2,1.5L300.5,558
		c-1,3.5-7.7,4.7-14.9,2.7l-1.5-0.4c-7.2-2-15.9-6.5-14.9-10l27.2-84.2c0.3-1.1-0.4-2.3-1.5-2.5l-5-1.2c-0.8-0.2-1.7,0.2-2.2,0.9
		l-51.2,87c-2.2,3.5-12.2,1.2-18.6-2.9l-1.3-0.8c-6.3-4-9.7-10.2-7.4-13.7l53.3-83.6c0.8-1.3,0-2.9-1.4-3.1l-3.5-0.5
		c-0.5-0.1-1,0.1-1.4,0.3l-49.6,38c-2.1,1.4-8.2-5.3-12.5-11.4l-0.9-1.3c-4.3-6.2-6.1-12.4-4-13.8l50-34.7c0.7-0.5,1.1-1.5,0.8-2.3
		l0,0c-0.3-0.8-1.1-1.4-1.9-1.4l-169-0.3c-6.9,0-12.6-6.2-12.6-13.7l0-1.6c0-7.5,5.7-13.6,12.6-13.6l168.8,0.3c1,0,1.8-0.7,2-1.6
		l0.6-2.6c0.2-0.8-0.1-1.6-0.8-2.1l-49.3-34.8c-2-1.4-0.2-7.6,4.1-13.8l0.9-1.3c4.3-6.1,9.5-10,11.6-8.5l50.1,35.4
		c0.2,0.1,0.4,0.2,0.6,0.3l0.7,0.2c1.8,0.6,3.4-1.4,2.3-3.1l-54.4-85.4c-2.3-3.7,0.9-10,7.3-14l1.3-0.8c6.3-4,13.4-4.3,15.7-0.7
		l56.8,89.1c0.4,0.6,1.1,1,1.9,0.9l3.8-0.3c1.2-0.1,2.1-1.3,1.8-2.5l-22.9-86.5c-0.8-3.6,7.5-7.5,14.8-9.2l1.5-0.4
		c7.3-1.7,14-0.1,14.8,3.5c5,21.3,17.2,73.9,18.2,78.3c0,0.2,0.2,0.4,0.4,0.5c0.4,0.2,1.3,0.6,2.3,1c3.1,1.2,6.6,0.8,9.1-1.4
		c0.5-0.5,0.9-0.9,1.2-1.5c0.1-0.1,0.1-0.2,0.1-0.3l-0.1-187.1c0-8,6.1-14.6,13.6-14.6l1.6,0c7.5,0,13.6,6.5,13.6,14.5
		c0,59.1,0,118.3,0.1,177.4c0,11.4,16.4,13.3,18.9,2.2c5.1-22.2,10.3-44.4,15.4-66.6c0.8-3.4,7.4-4.8,14.7-3.2l1.5,0.4
		c7.3,1.7,12.6,5.9,11.8,9.3l-19.4,83.7c0,0-1.5,3.8,2.6,1.9C410,346,410.7,346,411.1,346.2z"/>
</g>
<g id="Text">
	
		<text transform="matrix(1 0 0 1 602.8564 204.3211)" style="fill:#262262;stroke:#000000;stroke-width:0.5;stroke-miterlimit:10; font-family:'Tahoma'; font-size:48;">A</text>
	
		<text transform="matrix(1 0 0 1 87.875 127.2716)" style="fill:#262262;stroke:#000000;stroke-width:0.5;stroke-miterlimit:10; font-family:'Tahoma'; font-size:14;">Edwards-Venn 7-set diagram</text>
	
		<text transform="matrix(1 0 0 1 70.8683 147.8092)" style="fill:#262262;stroke:#000000;stroke-width:0.5;stroke-miterlimit:10; font-family:'Tahoma'; font-size:14;">NameA</text>
	
		<text transform="matrix(1 0 0 1 70.8684 167.2626)" style="fill:#262262;stroke:#000000;stroke-width:0.5;stroke-miterlimit:10; font-family:'Tahoma'; font-size:14;">NameB</text>
	
		<text transform="matrix(1 0 0 1 70.8681 185.8458)" style="fill:#262262;stroke:#000000;stroke-width:0.5;stroke-miterlimit:10; font-family:'Tahoma'; font-size:14;">NameC</text>
	
		<text transform="matrix(1 0 0 1 70.8685 204.7002)" style="fill:#262262;stroke:#000000;stroke-width:0.5;stroke-miterlimit:10; font-family:'Tahoma'; font-size:14;">NameD</text>
	
		<text transform="matrix(1 0 0 1 70.868 224.0713)" style="fill:#262262;stroke:#000000;stroke-width:0.5;stroke-miterlimit:10; font-family:'Tahoma'; font-size:14;">NameE</text>
	
		<text transform="matrix(1 0 0 1 70.8679 241.9919)" style="fill:#262262;stroke:#000000;stroke-width:0.5;stroke-miterlimit:10; font-family:'Tahoma'; font-size:14;">NameF</text>
	
		<text transform="matrix(1 0 0 1 100.8546 650.9199)" style="fill:#262262;stroke:#000000;stroke-width:0.5;stroke-miterlimit:10; font-family:'Tahoma'; font-size:48;">B</text>
	
		<text transform="matrix(1 0 0 1 598.8455 650.9196)" style="fill:#262262;stroke:#000000;stroke-width:0.5;stroke-miterlimit:10; font-family:'Tahoma'; font-size:36;">AB</text>
	
		<text transform="matrix(1 0 0 1 558.3042 500.0046)" style="fill:#262262;stroke:#000000;stroke-width:0.5;stroke-miterlimit:10; font-family:'Tahoma'; font-size:24;">ABC</text>
	
		<text transform="matrix(1 0 0 1 113.2736 500.0045)" style="fill:#262262;stroke:#000000;stroke-width:0.5;stroke-miterlimit:10; font-family:'Tahoma'; font-size:24;">BC</text>
	
		<text transform="matrix(1 0 0 1 567.3761 322.0495)" style="fill:#262262;stroke:#000000;stroke-width:0.5;stroke-miterlimit:10; font-family:'Tahoma'; font-size:24;">AC</text>
	
		<text transform="matrix(1 0 0 1 296.7921 624.577)" style="fill:#262262;stroke:#000000;stroke-width:0.5;stroke-miterlimit:10; font-family:'Tahoma'; font-size:16;">BD</text>
	
		<text transform="matrix(1 0 0 1 141.3711 363.6448)" style="fill:#262262;stroke:#000000;stroke-width:0.5;stroke-miterlimit:10; font-family:'Tahoma'; font-size:18;">CD</text>
	
		<text transform="matrix(1 0 0 1 136.0672 458.1218)" style="fill:#262262;stroke:#000000;stroke-width:0.5;stroke-miterlimit:10; font-family:'Tahoma'; font-size:18;">BCD</text>
	
		<text transform="matrix(1 0 0 1 190.547 284.8784)" style="fill:#262262;stroke:#000000;stroke-width:0.5;stroke-miterlimit:10; font-family:'Tahoma'; font-size:10;">CE</text>
	
		<text transform="matrix(1 0 0 1 256.4084 288.9649)" style="fill:#262262;stroke:#000000;stroke-width:0.5;stroke-miterlimit:10; font-family:'Tahoma'; font-size:12;">EF</text>
	
		<text transform="matrix(1 0 0 1 321.3794 221.2473)" style="fill:#262262;stroke:#000000;stroke-width:0.5;stroke-miterlimit:10; font-family:'Tahoma'; font-size:6;">DE</text>
	
		<text transform="matrix(1 0 0 1 334.6022 228.0026)" style="fill:#262262;stroke:#000000;stroke-width:0.5;stroke-miterlimit:10; font-family:'Tahoma'; font-size:6;">DEG</text>
	
		<text transform="matrix(1 0 0 1 290.2196 308.652)" style="fill:#262262;stroke:#000000;stroke-width:0.5;stroke-miterlimit:10; font-family:'Tahoma'; font-size:8;">DEFG</text>
	
		<text transform="matrix(1 0 0 1 387.6085 308.652)" style="fill:#262262;stroke:#000000;stroke-width:0.5;stroke-miterlimit:10; font-family:'Tahoma'; font-size:8;">ADEFG</text>
	
		<text transform="matrix(1 0 0 1 336.2856 178.1351)" style="fill:#262262;stroke:#000000;stroke-width:0.5;stroke-miterlimit:10; font-family:'Tahoma'; font-size:6;">DG</text>
	
		<text transform="matrix(1 0 0 1 349.6902 178.135)" style="fill:#262262;stroke:#000000;stroke-width:0.5;stroke-miterlimit:10; font-family:'Tahoma'; font-size:6;">ADG</text>
	
		<text transform="matrix(1 0 0 1 309.2231 272.6751)" style="fill:#262262;stroke:#000000;stroke-width:0.5;stroke-miterlimit:10; font-family:'Tahoma'; font-size:12;">DEF</text>
	
		<text transform="matrix(1 0 0 1 299.1339 246.9209)" style="fill:#262262;stroke:#000000;stroke-width:0.5;stroke-miterlimit:10; font-family:'Tahoma'; font-size:8;">DF</text>
	
		<text transform="matrix(1 0 0 1 286.1897 258.2715)" style="fill:#262262;stroke:#000000;stroke-width:0.5;stroke-miterlimit:10; font-family:'Tahoma'; font-size:6;">DFG</text>
	
		<text transform="matrix(1 0 0 1 397.9749 259.2717)" style="fill:#262262;stroke:#000000;stroke-width:0.5;stroke-miterlimit:10; font-family:'Tahoma'; font-size:6;">ADFG</text>
	
		<text transform="matrix(1 0 0 1 412.8695 265.9567)" style="fill:#262262;stroke:#000000;stroke-width:0.5;stroke-miterlimit:10; font-family:'Tahoma'; font-size:6;">AFG</text>
	
		<text transform="matrix(1 0 0 1 364.9568 219.2473)" style="fill:#262262;stroke:#000000;stroke-width:0.5;stroke-miterlimit:10; font-family:'Tahoma'; font-size:6;">ADE</text>
	
		<text transform="matrix(1 0 0 1 348.0071 228.0026)" style="fill:#262262;stroke:#000000;stroke-width:0.5;stroke-miterlimit:10; font-family:'Tahoma'; font-size:6;">ADEG</text>
	
		<text transform="matrix(1 0 0 1 363.6383 272.6753)" style="fill:#262262;stroke:#000000;stroke-width:0.5;stroke-miterlimit:10; font-family:'Tahoma'; font-size:12;">ADEF</text>
	
		<text transform="matrix(1 0 0 1 386.1906 247.9208)" style="fill:#262262;stroke:#000000;stroke-width:0.5;stroke-miterlimit:10; font-family:'Tahoma'; font-size:8;">ADF</text>
	
		<text transform="matrix(1 0 0 1 428.0328 284.8784)" style="fill:#262262;stroke:#000000;stroke-width:0.5;stroke-miterlimit:10; font-family:'Tahoma'; font-size:12;">AEF</text>
	
		<text transform="matrix(1 0 0 1 447.7424 296.372)" style="fill:#262262;stroke:#000000;stroke-width:0.5;stroke-miterlimit:10; font-family:'Tahoma'; font-size:10;">ACEFG</text>
	
		<text transform="matrix(1 0 0 1 220.9097 296.3719)" style="fill:#262262;stroke:#000000;stroke-width:0.5;stroke-miterlimit:10; font-family:'Tahoma'; font-size:10;">CEFG</text>
	
		<text transform="matrix(1 0 0 1 474.494 307.6521)" style="fill:#262262;stroke:#000000;stroke-width:0.5;stroke-miterlimit:10; font-family:'Tahoma'; font-size:6;">ACEF</text>
	
		<text transform="matrix(1 0 0 1 198.8668 323.0497)" style="fill:#262262;stroke:#000000;stroke-width:0.5;stroke-miterlimit:10; font-family:'Tahoma'; font-size:8;">CF</text>
	
		<text transform="matrix(1 0 0 1 198.9866 338.5997)" style="fill:#262262;stroke:#000000;stroke-width:0.5;stroke-miterlimit:10; font-family:'Tahoma'; font-size:6;">CFG</text>
	
		<text transform="matrix(1 0 0 1 193.8814 350.4895)" style="fill:#262262;stroke:#000000;stroke-width:0.5;stroke-miterlimit:10; font-family:'Tahoma'; font-size:6;">CDFG</text>
	
		<text transform="matrix(1 0 0 1 258.515 554.0307)" style="fill:#262262;stroke:#000000;stroke-width:0.5;stroke-miterlimit:10; font-family:'Tahoma'; font-size:6;">BF</text>
	
		<text transform="matrix(1 0 0 1 271.1584 552.0309)" style="fill:#262262;stroke:#000000;stroke-width:0.5;stroke-miterlimit:10; font-family:'Tahoma'; font-size:6;">BFG</text>
	
		<text transform="matrix(1 0 0 1 284.4214 555.2628)" style="fill:#262262;stroke:#000000;stroke-width:0.5;stroke-miterlimit:10; font-family:'Tahoma'; font-size:6;">BDFG</text>
	
		<text transform="matrix(1 0 0 1 398.6132 555.263)" style="fill:#262262;stroke:#000000;stroke-width:0.5;stroke-miterlimit:10; font-family:'Tahoma'; font-size:6;">ABDFG</text>
	
		<text transform="matrix(1 0 0 1 255.4864 528.6783)" style="fill:#262262;stroke:#000000;stroke-width:0.5;stroke-miterlimit:10; font-family:'Tahoma'; font-size:10;">BEF</text>
	
		<text transform="matrix(1 3.030624e-03 -3.030624e-03 1 319.6057 600.7184)" style="fill:#262262;stroke:#000000;stroke-width:0.5;stroke-miterlimit:10; font-family:'Tahoma'; font-size:6;">BDE</text>
	
		<text transform="matrix(1 3.030624e-03 -3.030624e-03 1 336.5492 663.3528)" style="fill:#262262;stroke:#000000;stroke-width:0.5;stroke-miterlimit:10; font-family:'Tahoma'; font-size:6;">BG</text>
	
		<text transform="matrix(1 3.030624e-03 -3.030624e-03 1 349.951 663.3472)" style="fill:#262262;stroke:#000000;stroke-width:0.5;stroke-miterlimit:10; font-family:'Tahoma'; font-size:6;">ABG</text>
	
		<text transform="matrix(1 3.030624e-03 -3.030624e-03 1 336.449 633.2198)" style="fill:#262262;stroke:#000000;stroke-width:0.5;stroke-miterlimit:10; font-family:'Tahoma'; font-size:4;">BDG</text>
	
		<text transform="matrix(1 3.030624e-03 -3.030624e-03 1 349.451 633.2164)" style="fill:#262262;stroke:#000000;stroke-width:0.5;stroke-miterlimit:10; font-family:'Tahoma'; font-size:4;">ABDG</text>
	
		<text transform="matrix(1 3.030624e-03 -3.030624e-03 1 335.3248 589.8657)" style="fill:#262262;stroke:#000000;stroke-width:0.5;stroke-miterlimit:10; font-family:'Tahoma'; font-size:4;">BDEG</text>
	
		<text transform="matrix(1 0 0 1 308.3329 543.3318)" style="fill:#262262;stroke:#000000;stroke-width:0.5;stroke-miterlimit:10; font-family:'Tahoma'; font-size:10;">BDEF</text>
	
		<text transform="matrix(1 0 0 1 290.8624 501.0046)" style="fill:#262262;stroke:#000000;stroke-width:0.5;stroke-miterlimit:10; font-family:'Tahoma'; font-size:8;">BDEFG</text>
	
		<text transform="matrix(1 0 0 1 362.189 600.7351)" style="fill:#262262;stroke:#000000;stroke-width:0.5;stroke-miterlimit:10; font-family:'Tahoma'; font-size:6;">ABDE</text>
	
		<text transform="matrix(1 0 0 1 349.3347 589.8805)" style="fill:#262262;stroke:#000000;stroke-width:0.5;stroke-miterlimit:10; font-family:'Tahoma'; font-size:4;">ABDEG</text>
	
		<text transform="matrix(1 0 0 1 362.5752 543.3319)" style="fill:#262262;stroke:#000000;stroke-width:0.5;stroke-miterlimit:10; font-family:'Tahoma'; font-size:10;">ABDEF</text>
	
		<text transform="matrix(1 0 0 1 385.2506 501.0048)" style="fill:#262262;stroke:#000000;stroke-width:0.5;stroke-miterlimit:10; font-family:'Tahoma'; font-size:8;">ABDEFG</text>
	
		<text transform="matrix(1 0 0 1 384.7582 571.2795)" style="fill:#262262;stroke:#000000;stroke-width:0.5;stroke-miterlimit:10; font-family:'Tahoma'; font-size:10;">ABDF</text>
	
		<text transform="matrix(1 0 0 1 293.9874 571.2796)" style="fill:#262262;stroke:#000000;stroke-width:0.5;stroke-miterlimit:10; font-family:'Tahoma'; font-size:10;">BDF</text>
	
		<text transform="matrix(1 0 0 1 468.8426 560.4291)" style="fill:#262262;stroke:#000000;stroke-width:0.5;stroke-miterlimit:10; font-family:'Tahoma'; font-size:12;">ABE</text>
	
		<text transform="matrix(1 0 0 1 423.3881 525.6781)" style="fill:#262262;stroke:#000000;stroke-width:0.5;stroke-miterlimit:10; font-family:'Tahoma'; font-size:10;">ABEF</text>
	
		<text transform="matrix(1 0 0 1 449.0759 516.9054)" style="fill:#262262;stroke:#000000;stroke-width:0.5;stroke-miterlimit:10; font-family:'Tahoma'; font-size:8;">ABCEFG</text>
	
		<text transform="matrix(1 0 0 1 225.5608 516.9058)" style="fill:#262262;stroke:#000000;stroke-width:0.5;stroke-miterlimit:10; font-family:'Tahoma'; font-size:8;">BCEFG</text>
	
		<text transform="matrix(1 0 0 1 375.02 624.5766)" style="fill:#262262;stroke:#000000;stroke-width:0.5;stroke-miterlimit:10; font-family:'Tahoma'; font-size:16;">ABD</text>
	
		<text transform="matrix(1 0 0 1 432.1555 553.0305)" style="fill:#262262;stroke:#000000;stroke-width:0.5;stroke-miterlimit:10; font-family:'Tahoma'; font-size:6;">ABF</text>
	
		<text transform="matrix(1 0 0 1 413.3525 547.225)" style="fill:#262262;stroke:#000000;stroke-width:0.5;stroke-miterlimit:10; font-family:'Tahoma'; font-size:6;">ABFG</text>
	
		<text transform="matrix(1 0 0 1 409.4183 533.6786)" style="fill:#262262;stroke:#000000;stroke-width:0.5;stroke-miterlimit:10; font-family:'Tahoma'; font-size:6;">ABEFG</text>
	
		<text transform="matrix(1 0 0 1 272.2206 534.6718)" style="fill:#262262;stroke:#000000;stroke-width:0.5;stroke-miterlimit:10; font-family:'Tahoma'; font-size:6;">BEFG</text>
	
		<text transform="matrix(1 0 0 1 204.2453 560.4291)" style="fill:#262262;stroke:#000000;stroke-width:0.5;stroke-miterlimit:10; font-family:'Tahoma'; font-size:12;">BE</text>
	
		<text transform="matrix(1 0 0 1 188.5133 537.9849)" style="fill:#262262;stroke:#000000;stroke-width:0.5;stroke-miterlimit:10; font-family:'Tahoma'; font-size:8;">BCE</text>
	
		<text transform="matrix(1 0 0 1 208.7606 507.979)" style="fill:#262262;stroke:#000000;stroke-width:0.5;stroke-miterlimit:10; font-family:'Tahoma'; font-size:6;">BCEF</text>
	
		<text transform="matrix(1 0 0 1 196.1503 492.7162)" style="fill:#262262;stroke:#000000;stroke-width:0.5;stroke-miterlimit:10; font-family:'Tahoma'; font-size:6;">BCF</text>
	
		<text transform="matrix(1 0 0 1 180.7889 452.122)" style="fill:#262262;stroke:#000000;stroke-width:0.5;stroke-miterlimit:10; font-family:'Tahoma'; font-size:6;">BCDF</text>
	
		<text transform="matrix(1 0 0 1 147.1236 387.7473)" style="fill:#262262;stroke:#000000;stroke-width:0.5;stroke-miterlimit:10; font-family:'Tahoma'; font-size:10;">CDE</text>
	
		<text transform="matrix(1 0 0 1 106.9256 402.2812)" style="fill:#262262;stroke:#000000;stroke-width:0.5;stroke-miterlimit:10; font-family:'Tahoma'; font-size:10;">CDG</text>
	
		<text transform="matrix(1 0 0 1 76.1841 402.2812)" style="fill:#262262;stroke:#000000;stroke-width:0.5;stroke-miterlimit:10; font-family:'Tahoma'; font-size:10;">CG</text>
	
		<text transform="matrix(1 0 0 1 104.3207 416.8767)" style="fill:#262262;stroke:#000000;stroke-width:0.5;stroke-miterlimit:10; font-family:'Tahoma'; font-size:10;">BCDG</text>
	
		<text transform="matrix(1 0 0 1 73.2372 416.8765)" style="fill:#262262;stroke:#000000;stroke-width:0.5;stroke-miterlimit:10; font-family:'Tahoma'; font-size:10;">BCG</text>
	
		<text transform="matrix(1 0 0 1 140.344 402.2812)" style="fill:#262262;stroke:#000000;stroke-width:0.5;stroke-miterlimit:10; font-family:'Tahoma'; font-size:10;">CDEG</text>
	
		<text transform="matrix(1 0 0 1 137.3968 416.8766)" style="fill:#262262;stroke:#000000;stroke-width:0.5;stroke-miterlimit:10; font-family:'Tahoma'; font-size:10;">BCDEG</text>
	
		<text transform="matrix(1 0 0 1 179.3492 385.748)" style="fill:#262262;stroke:#000000;stroke-width:0.5;stroke-miterlimit:10; font-family:'Tahoma'; font-size:12;">CDEF</text>
	
		<text transform="matrix(1 0 0 1 179.813 433.9422)" style="fill:#262262;stroke:#000000;stroke-width:0.5;stroke-miterlimit:10; font-family:'Tahoma'; font-size:12;">BCDEF</text>
	
		<text transform="matrix(1 0 0 1 175.4262 416.8766)" style="fill:#262262;stroke:#000000;stroke-width:0.5;stroke-miterlimit:10; font-family:'Tahoma'; font-size:10;">BCDEFG</text>
	
		<text transform="matrix(1 0 0 1 175.8136 402.2809)" style="fill:#262262;stroke:#000000;stroke-width:0.5;stroke-miterlimit:10; font-family:'Tahoma'; font-size:10;">CDEFG</text>
	
		<text transform="matrix(1 0 0 1 144.1767 429.754)" style="fill:#262262;stroke:#000000;stroke-width:0.5;stroke-miterlimit:10; font-family:'Tahoma'; font-size:10;">BCDE</text>
	
		<text transform="matrix(1 0 0 1 183.5567 362.6699)" style="fill:#262262;stroke:#000000;stroke-width:0.5;stroke-miterlimit:10; font-family:'Tahoma'; font-size:6;">CDF</text>
	
		<text transform="matrix(1 0 0 1 210.5287 307.6522)" style="fill:#262262;stroke:#000000;stroke-width:0.5;stroke-miterlimit:10; font-family:'Tahoma'; font-size:6;">CEF</text>
	
		<text transform="matrix(1 0 0 1 191.1837 463.7608)" style="fill:#262262;stroke:#000000;stroke-width:0.5;stroke-miterlimit:10; font-family:'Tahoma'; font-size:6;">BCDFG</text>
	
		<text transform="matrix(1 0 0 1 199.234 478.472)" style="fill:#262262;stroke:#000000;stroke-width:0.5;stroke-miterlimit:10; font-family:'Tahoma'; font-size:6;">BCFG</text>
	
		<text transform="matrix(1 0 0 1 115.7514 322.0494)" style="fill:#262262;stroke:#000000;stroke-width:0.5;stroke-miterlimit:10; font-family:'Tahoma'; font-size:24;">C</text>
	
		<text transform="matrix(1 0 0 1 203.5654 257.2755)" style="fill:#262262;stroke:#000000;stroke-width:0.5;stroke-miterlimit:10; font-family:'Tahoma'; font-size:10;">E</text>
	
		<text transform="matrix(1 0 0 1 300.8286 199.6785)" style="fill:#262262;stroke:#000000;stroke-width:0.5;stroke-miterlimit:10; font-family:'Tahoma'; font-size:18;">D</text>
	
		<text transform="matrix(1 0 0 1 339.3201 142.9276)" style="fill:#262262;stroke:#000000;stroke-width:0.5;stroke-miterlimit:10; font-family:'Tahoma'; font-size:6;">G</text>
	
		<text transform="matrix(1 0 0 1 350.7246 142.9274)" style="fill:#262262;stroke:#000000;stroke-width:0.5;stroke-miterlimit:10; font-family:'Tahoma'; font-size:6;">AG</text>
	
		<text transform="matrix(1 0 0 1 378.4573 199.6788)" style="fill:#262262;stroke:#000000;stroke-width:0.5;stroke-miterlimit:10; font-family:'Tahoma'; font-size:18;">AD</text>
	
		<text transform="matrix(1 0 0 1 262.7599 264.2461)" style="fill:#262262;stroke:#000000;stroke-width:0.5;stroke-miterlimit:10; font-family:'Tahoma'; font-size:8;">F</text>
	
		<text transform="matrix(1 0 0 1 427.5615 263.2462)" style="fill:#262262;stroke:#000000;stroke-width:0.5;stroke-miterlimit:10; font-family:'Tahoma'; font-size:8;">AF</text>
	
		<text transform="matrix(1 0 0 1 488.9592 284.8784)" style="fill:#262262;stroke:#000000;stroke-width:0.5;stroke-miterlimit:10; font-family:'Tahoma'; font-size:10;">ACE</text>
	
		<text transform="matrix(1 0 0 1 473.0561 280.8783)" style="fill:#262262;stroke:#000000;stroke-width:0.5;stroke-miterlimit:10; font-family:'Tahoma'; font-size:6;">ACEG</text>
	
		<text transform="matrix(1 0 0 1 465.7956 270.675)" style="fill:#262262;stroke:#000000;stroke-width:0.5;stroke-miterlimit:10; font-family:'Tahoma'; font-size:6;">AEG</text>
	
		<text transform="matrix(1 0 0 1 219.1133 267.2462)" style="fill:#262262;stroke:#000000;stroke-width:0.5;stroke-miterlimit:10; font-family:'Tahoma'; font-size:6;">EG</text>
	
		<text transform="matrix(1 0 0 1 232.0708 281.8785)" style="fill:#262262;stroke:#000000;stroke-width:0.5;stroke-miterlimit:10; font-family:'Tahoma'; font-size:6;">EFG</text>
	
		<text transform="matrix(1 0 0 1 273.6719 261.2717)" style="fill:#262262;stroke:#000000;stroke-width:0.5;stroke-miterlimit:10; font-family:'Tahoma'; font-size:6;">FG</text>
	
		<text transform="matrix(1 0 0 1 453.4445 281.8785)" style="fill:#262262;stroke:#000000;stroke-width:0.5;stroke-miterlimit:10; font-family:'Tahoma'; font-size:6;">AEFG</text>
	
		<text transform="matrix(1 0 0 1 211.0909 280.8783)" style="fill:#262262;stroke:#000000;stroke-width:0.5;stroke-miterlimit:10; font-family:'Tahoma'; font-size:6;">CEG</text>
	
		<text transform="matrix(1 0 0 1 485.3893 319.0497)" style="fill:#262262;stroke:#000000;stroke-width:0.5;stroke-miterlimit:10; font-family:'Tahoma'; font-size:6;">ACF</text>
	
		<text transform="matrix(1 0 0 1 484.5981 336.5997)" style="fill:#262262;stroke:#000000;stroke-width:0.5;stroke-miterlimit:10; font-family:'Tahoma'; font-size:6;">ACFG</text>
	
		<text transform="matrix(1 0 0 1 526.1324 388.7473)" style="fill:#262262;stroke:#000000;stroke-width:0.5;stroke-miterlimit:10; font-family:'Tahoma'; font-size:10;">ACDE</text>
	
		<text transform="matrix(1 0 0 1 527.4006 403.2813)" style="fill:#262262;stroke:#000000;stroke-width:0.5;stroke-miterlimit:10; font-family:'Tahoma'; font-size:10;">ACDEG</text>
	
		<text transform="matrix(1 0 0 1 601.3953 403.2814)" style="fill:#262262;stroke:#000000;stroke-width:0.5;stroke-miterlimit:10; font-family:'Tahoma'; font-size:10;">ACG</text>
	
		<text transform="matrix(1 0 0 1 567.5944 402.2812)" style="fill:#262262;stroke:#000000;stroke-width:0.5;stroke-miterlimit:10; font-family:'Tahoma'; font-size:8;">ACDG</text>
	
		<text transform="matrix(1 0 0 1 525.2142 431.9427)" style="fill:#262262;stroke:#000000;stroke-width:0.5;stroke-miterlimit:10; font-family:'Tahoma'; font-size:8;">ABCDE</text>
	
		<text transform="matrix(1 0 0 1 526.7549 417.8767)" style="fill:#262262;stroke:#000000;stroke-width:0.5;stroke-miterlimit:10; font-family:'Tahoma'; font-size:10;">ABCDEG</text>
	
		<text transform="matrix(1 0 0 1 598.4482 417.8763)" style="fill:#262262;stroke:#000000;stroke-width:0.5;stroke-miterlimit:10; font-family:'Tahoma'; font-size:10;">ABCG</text>
	
		<text transform="matrix(1 0 0 1 566.2371 416.877)" style="fill:#262262;stroke:#000000;stroke-width:0.5;stroke-miterlimit:10; font-family:'Tahoma'; font-size:8;">ABCDG</text>
	
		<text transform="matrix(1 0 0 1 477.4637 434.1018)" style="fill:#262262;stroke:#000000;stroke-width:0.5;stroke-miterlimit:10; font-family:'Tahoma'; font-size:12;">ABCDEF</text>
	
		<text transform="matrix(1 0 0 1 500.9477 364.6453)" style="fill:#262262;stroke:#000000;stroke-width:0.5;stroke-miterlimit:10; font-family:'Tahoma'; font-size:6;">ACDF</text>
	
		<text transform="matrix(1 0 0 1 489.5633 350.4896)" style="fill:#262262;stroke:#000000;stroke-width:0.5;stroke-miterlimit:10; font-family:'Tahoma'; font-size:6;">ACDFG</text>
	
		<text transform="matrix(1 0 0 1 477.9997 385.7477)" style="fill:#262262;stroke:#000000;stroke-width:0.5;stroke-miterlimit:10; font-family:'Tahoma'; font-size:12;">ACDEF</text>
	
		<text transform="matrix(1 0 0 1 475.9946 403.2809)" style="fill:#262262;stroke:#000000;stroke-width:0.5;stroke-miterlimit:10; font-family:'Tahoma'; font-size:12;">ACDEFG</text>
	
		<text transform="matrix(1 0 0 1 489.3628 541.9645)" style="fill:#262262;stroke:#000000;stroke-width:0.5;stroke-miterlimit:10; font-family:'Tahoma'; font-size:8;">ABCE</text>
	
		<text transform="matrix(1 0 0 1 471.4585 505.9788)" style="fill:#262262;stroke:#000000;stroke-width:0.5;stroke-miterlimit:10; font-family:'Tahoma'; font-size:6;">ABCEF</text>
	
		<text transform="matrix(1 0 0 1 465.2013 544.0809)" style="fill:#262262;stroke:#000000;stroke-width:0.5;stroke-miterlimit:10; font-family:'Tahoma'; font-size:6;">ABEG</text>
	
		<text transform="matrix(1 0 0 1 219.5211 546.0807)" style="fill:#262262;stroke:#000000;stroke-width:0.5;stroke-miterlimit:10; font-family:'Tahoma'; font-size:6;">BEG</text>
	
		<text transform="matrix(1 0 0 1 208.3229 536.2512)" style="fill:#262262;stroke:#000000;stroke-width:0.5;stroke-miterlimit:10; font-family:'Tahoma'; font-size:6;">BCEG</text>
	
		<text transform="matrix(1 0 0 1 474.2875 534.6718)" style="fill:#262262;stroke:#000000;stroke-width:0.5;stroke-miterlimit:10; font-family:'Tahoma'; font-size:6;">ABCEG</text>
	
		<text transform="matrix(1 0 0 1 486.6212 492.7167)" style="fill:#262262;stroke:#000000;stroke-width:0.5;stroke-miterlimit:10; font-family:'Tahoma'; font-size:6;">ABCF</text>
	
		<text transform="matrix(1 0 0 1 484.6184 481.3644)" style="fill:#262262;stroke:#000000;stroke-width:0.5;stroke-miterlimit:10; font-family:'Tahoma'; font-size:6;">ABCFG</text>
	
		<text transform="matrix(1 0 0 1 499.1799 452.1218)" style="fill:#262262;stroke:#000000;stroke-width:0.5;stroke-miterlimit:10; font-family:'Tahoma'; font-size:6;">ABCDF</text>
	
		<text transform="matrix(1 0 0 1 485.7953 464.7605)" style="fill:#262262;stroke:#000000;stroke-width:0.5;stroke-miterlimit:10; font-family:'Tahoma'; font-size:6;">ABCDFG</text>
	
		<text transform="matrix(1 0 0 1 473.6684 258.2715)" style="fill:#262262;stroke:#000000;stroke-width:0.5;stroke-miterlimit:10; font-family:'Tahoma'; font-size:12;">AE</text>
	
		<text transform="matrix(1 0 0 1 526.0294 363.6452)" style="fill:#262262;stroke:#000000;stroke-width:0.5;stroke-miterlimit:10; font-family:'Tahoma'; font-size:18;">ACD</text>
	
		<text transform="matrix(1 0 0 1 523.0265 459.1212)" style="fill:#262262;stroke:#000000;stroke-width:0.5;stroke-miterlimit:10; font-family:'Tahoma'; font-size:18;">ABCD</text>
	
		<text transform="matrix(1 0 0 1 351.728 433.0495)" style="fill:#FFFFFF;stroke:#000000;stroke-width:0.5;stroke-miterlimit:10; font-family:'Tahoma'; font-size:24;">ABCDEFG</text>
	<circle style="opacity:0.2;fill:#FFF200;stroke:#010101;stroke-width:2;" cx="59.2" cy="143.5" r="6.9"/>
	<circle style="opacity:0.2;fill:#2E3192;stroke:#010101;stroke-width:2;" cx="59.2" cy="162.2" r="6.9"/>
	<circle style="opacity:0.2;fill:#ED1C24;stroke:#010101;stroke-width:2;" cx="59.2" cy="180.9" r="6.9"/>
	<circle style="opacity:0.2;fill:#58595B;stroke:#010101;stroke-width:2;" cx="59.2" cy="199.7" r="6.9"/>
	<circle style="opacity:0.2;fill:#3C2415;stroke:#010101;stroke-width:2;" cx="59.2" cy="219.1" r="6.9"/>
	<circle style="opacity:0.2;fill:#9E1F63;stroke:#010101;stroke-width:2;" cx="59.2" cy="237.8" r="6.9"/>
	
		<text transform="matrix(1 0 0 1 70.423 261.1314)" style="fill:#262262;stroke:#000000;stroke-width:0.5;stroke-miterlimit:10; font-family:'Tahoma'; font-size:14;">NameG</text>
	<circle style="opacity:0.2;fill:#F7941E;stroke:#010101;stroke-width:2;" cx="58.7" cy="257" r="6.9"/>
</g>
</svg>
