<?xml version="1.0" encoding="utf-8"?>
<!-- Generator: Adobe Illustrator 18.1.1, SVG Export Plug-In . SVG Version: 6.00 Build 0)  -->
<svg version="1.1" xmlns="http://www.w3.org/2000/svg" xmlns:xlink="http://www.w3.org/1999/xlink" x="0px" y="0px"
	 viewBox="0 0 700 700" enable-background="new 0 0 700 700" xml:space="preserve">
<g id="Layer_1_copy">
	
		<ellipse transform="matrix(0.6461 0.7633 -0.7633 0.6461 489.031 -187.9076)" opacity="0.2" fill="#2E3192" stroke="#000000" stroke-width="3" stroke-miterlimit="10" cx="447.1" cy="433.4" rx="150.5" ry="228.9"/>
	
		<ellipse transform="matrix(0.6461 -0.7633 0.7633 0.6461 -129.5462 392.6876)" opacity="0.2" fill="#ED1C24" stroke="#000000" stroke-width="3" stroke-miterlimit="10" cx="358.7" cy="336" rx="150.5" ry="249.2"/>
	
		<ellipse transform="matrix(-0.6461 -0.7633 0.7633 -0.6461 315.2812 814.7631)" opacity="0.2" fill="#808285" stroke="#000000" stroke-width="3" stroke-miterlimit="10" cx="346.5" cy="334.3" rx="150.5" ry="248.9"/>
	
		<ellipse transform="matrix(-0.6461 0.7633 -0.7633 -0.6461 747.7516 521.9661)" opacity="0.2" fill="#FFF200" stroke="#000000" stroke-width="3" stroke-miterlimit="10" cx="252.9" cy="434.3" rx="150.5" ry="228.9"/>
</g>
<g id="Layer_1">
	
		<text transform="matrix(1 0 0 1 78.9351 351.0854)" fill="#262262" stroke="#000000" stroke-width="0.5" stroke-miterlimit="10" font-family="'Tahoma'" font-size="48">A</text>
	
		<text transform="matrix(1 0 0 1 197.0082 202.118)" fill="#262262" stroke="#000000" stroke-width="0.5" stroke-miterlimit="10" font-family="'Tahoma'" font-size="48">C</text>
	
		<text transform="matrix(1 0 0 1 470.179 202.1178)" fill="#262262" stroke="#000000" stroke-width="0.5" stroke-miterlimit="10" font-family="'Tahoma'" font-size="48">D</text>
	
		<text transform="matrix(1 0 0 1 417.2797 360.0052)" fill="#262262" stroke="#000000" stroke-width="0.5" stroke-miterlimit="10" font-family="'Tahoma'" font-size="48">BCD</text>
	
		<text transform="matrix(1 0 0 1 290.7734 451.5443)" fill="#FFFFFF" stroke="#000000" stroke-width="0.5" stroke-miterlimit="10" font-family="'Tahoma'" font-size="48">ABCD</text>
	
		<text transform="matrix(1 0 0 1 208.0905 360.0053)" fill="#262262" stroke="#000000" stroke-width="0.5" stroke-miterlimit="10" font-family="'Tahoma'" font-size="48">ACD</text>
	
		<text transform="matrix(1 0 0 1 315.3084 256.7533)" fill="#262262" stroke="#000000" stroke-width="0.5" stroke-miterlimit="10" font-family="'Tahoma'" font-size="48">CD</text>
	
		<text transform="matrix(1 0 0 1 321.4647 585.9647)" fill="#262262" stroke="#000000" stroke-width="0.5" stroke-miterlimit="10" font-family="'Tahoma'" font-size="48">AB</text>
	
		<text transform="matrix(1 0 0 1 155.2617 278.4999)" fill="#262262" stroke="#000000" stroke-width="0.5" stroke-miterlimit="10" font-family="'Tahoma'" font-size="24">AC</text>
	
		<text transform="matrix(1 0 0 1 391.8746 511.6646)" fill="#262262" stroke="#000000" stroke-width="0.5" stroke-miterlimit="10" font-family="'Tahoma'" font-size="24">ABC</text>
	
		<text transform="matrix(1 0 0 1 260.3011 511.6649)" fill="#262262" stroke="#000000" stroke-width="0.5" stroke-miterlimit="10" font-family="'Tahoma'" font-size="24">ABD</text>
	
		<text transform="matrix(1 0 0 1 161.332 479.5004)" fill="#262262" stroke="#000000" stroke-width="0.5" stroke-miterlimit="10" font-family="'Tahoma'" font-size="48">AD</text>
	
		<text transform="matrix(1 0 0 1 483.9026 479.5002)" fill="#262262" stroke="#000000" stroke-width="0.5" stroke-miterlimit="10" font-family="'Tahoma'" font-size="48">BC</text>
	
		<text transform="matrix(1 0 0 1 515.5938 279.4999)" fill="#262262" stroke="#000000" stroke-width="0.5" stroke-miterlimit="10" font-family="'Tahoma'" font-size="24">BD</text>
	
		<text transform="matrix(1 0 0 1 597.6342 351.0854)" fill="#262262" stroke="#000000" stroke-width="0.5" stroke-miterlimit="10" font-family="'Tahoma'" font-size="48">B</text>
	
		<text transform="matrix(1 0 0 1 34.0366 247.9676)" fill="#262262" stroke="#000000" stroke-width="0.5" stroke-miterlimit="10" font-family="'Tahoma'" font-size="24">NameA</text>
	
		<text transform="matrix(1 0 0 1 583.4872 247.1015)" fill="#262262" stroke="#000000" stroke-width="0.5" stroke-miterlimit="10" font-family="'Tahoma'" font-size="24">NameB</text>
	
		<text transform="matrix(1 0 0 1 184.2316 120.4988)" fill="#262262" stroke="#000000" stroke-width="0.5" stroke-miterlimit="10" font-family="'Tahoma'" font-size="24">NameC</text>
	
		<text transform="matrix(1 0 0 1 440.7973 120.4985)" fill="#262262" stroke="#000000" stroke-width="0.5" stroke-miterlimit="10" font-family="'Tahoma'" font-size="24">NameD</text>
</g>
</svg>
