<?xml version="1.0" encoding="utf-8"?>
<!-- Generator: Adobe Illustrator 18.1.1, SVG Export Plug-In . SVG Version: 6.00 Build 0)  -->
<svg version="1.1" id="Layer_1" xmlns="http://www.w3.org/2000/svg" xmlns:xlink="http://www.w3.org/1999/xlink" x="0px" y="0px"
	 viewBox="0 0 700 700" enable-background="new 0 0 700 700" xml:space="preserve">
<ellipse transform="matrix(1 2.726655e-03 -2.726655e-03 1 0.9056 -0.9843)" opacity="0.2" fill="#FFF200" stroke="#231F20" stroke-width="3" stroke-miterlimit="10" cx="361.4" cy="331.6" rx="142.4" ry="276.6"/>
<ellipse transform="matrix(0.3116 -0.9502 0.9502 0.3116 -109.5119 525.6476)" opacity="0.2" fill="#3C2415" stroke="#231F20" stroke-width="3" stroke-miterlimit="10" cx="308" cy="338.4" rx="142.4" ry="276.6"/>
<ellipse transform="matrix(-0.8074 -0.59 0.59 -0.8074 263.6938 881.0757)" opacity="0.2" fill="#58595B" stroke="#231F20" stroke-width="3" stroke-miterlimit="10" cx="275.7" cy="397.5" rx="142.4" ry="276.6"/>
<ellipse transform="matrix(-0.8106 0.5856 -0.5856 -0.8106 869.1332 585.2136)" opacity="0.2" fill="#ED1C24" stroke="#231F20" stroke-width="3" stroke-miterlimit="10" cx="339.9" cy="433.2" rx="142.4" ry="276.6"/>
<ellipse transform="matrix(0.3064 0.9519 -0.9519 0.3064 643.1213 -109.806)" opacity="0.2" fill="#2E3192" stroke="#231F20" stroke-width="3" stroke-miterlimit="10" cx="396.9" cy="386.4" rx="142.4" ry="276.6"/>
<text transform="matrix(1 0 0 1 347.0442 113.672)" fill="#262262" stroke="#000000" stroke-width="0.5" stroke-miterlimit="10" font-family="'Tahoma'" font-size="48">A</text>
<text transform="matrix(1 0 0 1 314.0625 37.6956)" fill="#262262" stroke="#000000" stroke-width="0.5" stroke-miterlimit="10" font-family="'Tahoma'" font-size="30">NameA</text>
<text transform="matrix(1 0 0 1 47.2374 170.0749)" fill="#262262" stroke="#000000" stroke-width="0.5" stroke-miterlimit="10" font-family="'Tahoma'" font-size="30">NameE</text>
<text transform="matrix(1 0 0 1 560.7568 214.6308)" fill="#262262" stroke="#000000" stroke-width="0.5" stroke-miterlimit="10" font-family="'Tahoma'" font-size="30">NameB</text>
<text transform="matrix(1 0 0 1 560.5883 672.4093)" fill="#262262" stroke="#000000" stroke-width="0.5" stroke-miterlimit="10" font-family="'Tahoma'" font-size="30">NameC</text>
<text transform="matrix(1 0 0 1 81.4627 672.4094)" fill="#262262" stroke="#000000" stroke-width="0.5" stroke-miterlimit="10" font-family="'Tahoma'" font-size="30">NameD</text>
<text transform="matrix(1 0 0 1 375.8035 196.8933)" fill="#262262" stroke="#000000" stroke-width="0.5" stroke-miterlimit="10" font-family="'Tahoma'" font-size="24">AD</text>
<text transform="matrix(1 0 0 1 252.3033 194.8933)" fill="#262262" stroke="#000000" stroke-width="0.5" stroke-miterlimit="10" font-family="'Tahoma'" font-size="14">AE</text>
<text transform="matrix(1 0 0 1 330.856 228.7366)" fill="#262262" stroke="#000000" stroke-width="0.5" stroke-miterlimit="10" font-family="'Tahoma'" font-size="24">ADE</text>
<text transform="matrix(1 0 0 1 237.3551 211.9512)" fill="#262262" stroke="#000000" stroke-width="0.5" stroke-miterlimit="10" font-family="'Tahoma'" font-size="12">ACE</text>
<text transform="matrix(1 0 0 1 248.9238 255.8115)" fill="#262262" stroke="#000000" stroke-width="0.5" stroke-miterlimit="10" font-family="'Tahoma'" font-size="24">ACDE</text>
<text transform="matrix(1 0 0 1 170.8765 317.4028)" fill="#262262" stroke="#000000" stroke-width="0.5" stroke-miterlimit="10" font-family="'Tahoma'" font-size="24">CDE</text>
<text transform="matrix(1 0 0 1 161.0152 248.8114)" fill="#262262" stroke="#000000" stroke-width="0.5" stroke-miterlimit="10" font-family="'Tahoma'" font-size="24">CE</text>
<text transform="matrix(1 0 0 1 126.3444 385.8975)" fill="#262262" stroke="#000000" stroke-width="0.5" stroke-miterlimit="10" font-family="'Tahoma'" font-size="14">DE</text>
<text transform="matrix(1 0 0 1 158.8796 395.8974)" fill="#262262" stroke="#000000" stroke-width="0.5" stroke-miterlimit="10" font-family="'Tahoma'" font-size="24">BCDE</text>
<text transform="matrix(1 0 0 1 139.0759 412.5749)" fill="#262262" stroke="#000000" stroke-width="0.5" stroke-miterlimit="10" font-family="'Tahoma'" font-size="12">BDE</text>
<text transform="matrix(1 0 0 1 148.7437 480.6174)" fill="#262262" stroke="#000000" stroke-width="0.5" stroke-miterlimit="10" font-family="'Tahoma'" font-size="24">BD</text>
<text transform="matrix(1 0 0 1 199.0767 480.6177)" fill="#262262" stroke="#000000" stroke-width="0.5" stroke-miterlimit="10" font-family="'Tahoma'" font-size="18">BCD</text>
<text transform="matrix(1 0 0 1 256.4037 561.5017)" fill="#262262" stroke="#000000" stroke-width="0.5" stroke-miterlimit="10" font-family="'Tahoma'" font-size="14">CD</text>
<text transform="matrix(1 0 0 1 288.6122 560.5018)" fill="#262262" stroke="#000000" stroke-width="0.5" stroke-miterlimit="10" font-family="'Tahoma'" font-size="14">ACD</text>
<text transform="matrix(1 0 0 1 275.1477 520.7164)" fill="#262262" stroke="#000000" stroke-width="0.5" stroke-miterlimit="10" font-family="'Tahoma'" font-size="24">ABCD</text>
<text transform="matrix(1 0 0 1 363.9681 577.4798)" fill="#262262" stroke="#000000" stroke-width="0.5" stroke-miterlimit="10" font-family="'Tahoma'" font-size="24">AC</text>
<text transform="matrix(1 0 0 1 377.6915 521.7162)" fill="#262262" stroke="#000000" stroke-width="0.5" stroke-miterlimit="10" font-family="'Tahoma'" font-size="24">ABC</text>
<text transform="matrix(1 0 0 1 477.4032 501.286)" fill="#262262" stroke="#000000" stroke-width="0.5" stroke-miterlimit="10" font-family="'Tahoma'" font-size="12">BC</text>
<text transform="matrix(1 0 0 1 487.9092 475.3505)" fill="#262262" stroke="#000000" stroke-width="0.5" stroke-miterlimit="10" font-family="'Tahoma'" font-size="14">BCE</text>
<text transform="matrix(1 0 0 1 422.6694 457.9744)" fill="#262262" stroke="#000000" stroke-width="0.5" stroke-miterlimit="10" font-family="'Tahoma'" font-size="24">ABCE</text>
<text transform="matrix(1 0 0 1 465.8284 357.5483)" fill="#262262" stroke="#000000" stroke-width="0.5" stroke-miterlimit="10" font-family="'Tahoma'" font-size="18">ABE</text>
<text transform="matrix(1 0 0 1 516.9958 405.8973)" fill="#262262" stroke="#000000" stroke-width="0.5" stroke-miterlimit="10" font-family="'Tahoma'" font-size="24">BE</text>
<text transform="matrix(1 0 0 1 478.9468 254.1877)" fill="#262262" stroke="#000000" stroke-width="0.5" stroke-miterlimit="10" font-family="'Tahoma'" font-size="14">AB</text>
<text transform="matrix(1 0 0 1 448.0276 241.6825)" fill="#262262" stroke="#000000" stroke-width="0.5" stroke-miterlimit="10" font-family="'Tahoma'" font-size="12">ABD</text>
<text transform="matrix(1 0 0 1 402.5328 278.5751)" fill="#262262" stroke="#000000" stroke-width="0.5" stroke-miterlimit="10" font-family="'Tahoma'" font-size="24">ABDE</text>
<text transform="matrix(1 0 0 1 595.8315 336.405)" fill="#262262" stroke="#000000" stroke-width="0.5" stroke-miterlimit="10" font-family="'Tahoma'" font-size="48">B</text>
<text transform="matrix(1 0 0 1 451.1648 636.1471)" fill="#262262" stroke="#000000" stroke-width="0.5" stroke-miterlimit="10" font-family="'Tahoma'" font-size="48">C</text>
<text transform="matrix(1 0 0 1 132.0001 600.2096)" fill="#262262" stroke="#000000" stroke-width="0.5" stroke-miterlimit="10" font-family="'Tahoma'" font-size="48">D</text>
<text transform="matrix(1 0 0 1 67.9433 278.575)" fill="#262262" stroke="#000000" stroke-width="0.5" stroke-miterlimit="10" font-family="'Tahoma'" font-size="48">E</text>
<text transform="matrix(1 0 0 1 249.4931 386.4207)" fill="#FFFFFF" stroke="#000000" stroke-width="0.5" stroke-miterlimit="10" font-family="'Tahoma'" font-size="54">ABCDE</text>
</svg>
