<?xml version="1.0" encoding="utf-8"?>
<!-- Generator: Adobe Illustrator 18.1.1, SVG Export Plug-In . SVG Version: 6.00 Build 0)  -->
<svg version="1.1" xmlns="http://www.w3.org/2000/svg" xmlns:xlink="http://www.w3.org/1999/xlink" x="0px" y="0px"
	 viewBox="0 0 700 700" style="enable-background:new 0 0 700 700;" xml:space="preserve">
<g id="Layer_1">
	<path style="opacity:0.2;fill:#3C2415;stroke:#B9539F;stroke-width:3;" d="M336.2,609.9c-12.8-5.2-18.7-17.5-18.7-38.9
		c0-41.8-46.8-50.7-76.4-18c-8.6,9.5-30.4,7.9-40.6-4.1c-11.6-13.6-8.7-30.6,8.5-50.2c15.3-17.4,16.8-34.6,4.5-50.3
		c-6.8-8.7-13.5-11.3-32.8-12.9c-28.8-2.4-38.5-10.4-38.5-31.6c0-21.2,9.8-29.2,38.5-31.6c19.3-1.6,25.9-4.2,32.8-12.9
		c14.3-18.2,10.7-37.6-11.1-59.3c-17.4-17.4-13-37.4,11-50.2c10.1-5.4,24.2-0.3,40.3,14.7c26.9,25,63.8,8.1,63.8-29.2
		c0-33.2,26-51.3,48.5-33.6c9.1,7.1,11.6,13.5,13.2,33.5c2.4,29.2,12.9,40.6,37.3,40.6c11.6,0,19.2-3.5,29.8-13.7
		c17.5-17,36.4-18.4,49.1-3.7c10.8,12.5,11.2,28,0.9,38.3c-25.1,25.1-29.1,46.7-11.9,63.9c8.2,8.2,15.2,10.7,30.6,10.7
		c35.9,0,53.6,33.3,30.6,56.3c-8,8-15.3,10.7-29.4,10.7c-24,0-36.3,6.9-40,26.6c-3.1,16.3,2,28,19.7,45.7c5.9,5.9,7.8,13.3,7.5,24.2
		c-0.3,8.8-6.4,17.2-15.1,21.5c-16,7.9-33.6,0.3-42.7-11.5c-14.4-18.8-37.4-18.4-52.6-6.3c-9.6,7.7-12.1,13.7-13.7,34.1
		c-1.6,19.8-4.2,26.4-12.9,33.3C354.3,615.1,350.4,615.6,336.2,609.9z"/>
	<path style="opacity:0.2;fill:#58595B;stroke:#3A53A4;stroke-width:3;" d="M320,635.2c-31.4-13.5-42.6-51.8-34.1-82.8
		c4.6-23.7,6.8-51.8-8.9-71.6c-19.1-20.1-44.6-27.9-68.9-15.3c-31.7,9.5-72,1.2-87.6-30.7c-18-34.9-2.7-86.3,37.5-97
		c25.5-8,51.4,3.1,76.5,6.2c23.3-7,52.3-21.4,52.8-49.5c1.8-30.7-5.4-62,0.5-92.4c13-28.6,46.3-43.8,76.6-36.8
		c28.6,4,53.8,30.9,50.1,60.7c1.5,22.1-5.7,43.8-4.2,65.7c5.6,37.2,50.7,63.2,85.2,45.8c37.3-14.7,88.3,11.2,90.3,53.3
		c5.2,33.2-13.8,71.6-49.1,77.5c-31.3,8-65.5-15.1-97.1-1.7c-22.9,9.7-27.8,30.9-29.8,53c1.3,28.3,13.1,59.1,0.1,86.2
		c-12.4,23.9-39.1,36.1-65.4,33.5C336.3,639.1,327.8,638.4,320,635.2z"/>
	<path style="opacity:0.2;fill:#ED1C24;stroke:#0D9747;stroke-width:3;" d="M135.8,537.5C86.6,526.9,45.6,485.4,34,436.6
		c-0.8-30.3-6-63.6,10.5-91C73.2,285.8,149.8,255,211.6,280c38.2,14.6,62,53.3,103.1,62.3c46.5,14.9,97.4-5.4,130.5-39
		c47.9-42.4,126.1-42.2,173.5,0.8c25.1,22.9,46.9,55.1,43.5,90.6c1.1,30.6-0.6,63.6-21.5,88.1c-34.8,52.7-109.7,72.2-166,43.7
		c-35.7-16.4-59.4-54.6-100.7-59.3c-29.1-8.5-60.7-1.1-87.2,12.1c-22.2,13.2-38,34.6-62,45.2C198.4,540,165.4,541.5,135.8,537.5z"/>
	<path style="opacity:0.2;fill:#FFF200;stroke:#010101;stroke-width:3;" d="M652.2,674.5H359.6c-6.6,0-12-5.4-12-12V122.9
		c0-6.6,5.4-12,12-12h292.6c6.6,0,12,5.4,12,12v539.6C664.2,669.1,658.8,674.5,652.2,674.5z"/>
	<path style="opacity:0.2;fill:#2E3192;stroke:#010101;stroke-width:3;" d="M652.8,674.5h-606c-6.6,0-12-5.4-12-12V419.4
		c0-6.6,5.4-12,12-12h606c6.6,0,12,5.4,12,12v243.1C664.8,669.1,659.4,674.5,652.8,674.5z"/>
	<path style="opacity:0.2;fill:#9E1F63;stroke:#010101;stroke-width:3;" d="M523.8,406.4c0,97.3-78.9,176.2-176.2,176.2
		c-97.3,0-176.2-78.9-176.2-176.2c0,0,0,0,0,0c0-97.3,78.9-176.2,176.2-176.2S523.8,309.1,523.8,406.4
		C523.8,406.4,523.8,406.4,523.8,406.4z"/>
</g>
<g id="Text">
	
		<text transform="matrix(1 0 0 1 602.8564 204.3211)" style="fill:#262262;stroke:#000000;stroke-width:0.5;stroke-miterlimit:10; font-family:'Tahoma'; font-size:48;">A</text>
	
		<text transform="matrix(1 0 0 1 87.875 127.2716)" style="fill:#262262;stroke:#000000;stroke-width:0.5;stroke-miterlimit:10; font-family:'Tahoma'; font-size:14;">Edwards-Venn 6-set diagram</text>
	
		<text transform="matrix(1 0 0 1 70.8683 156.8092)" style="fill:#262262;stroke:#000000;stroke-width:0.5;stroke-miterlimit:10; font-family:'Tahoma'; font-size:14;">NameA</text>
	
		<text transform="matrix(1 0 0 1 70.8684 176.2626)" style="fill:#262262;stroke:#000000;stroke-width:0.5;stroke-miterlimit:10; font-family:'Tahoma'; font-size:14;">NameB</text>
	
		<text transform="matrix(1 0 0 1 70.8681 194.8458)" style="fill:#262262;stroke:#000000;stroke-width:0.5;stroke-miterlimit:10; font-family:'Tahoma'; font-size:14;">NameC</text>
	
		<text transform="matrix(1 0 0 1 70.8685 213.7002)" style="fill:#262262;stroke:#000000;stroke-width:0.5;stroke-miterlimit:10; font-family:'Tahoma'; font-size:14;">NameD</text>
	
		<text transform="matrix(1 0 0 1 70.868 233.0713)" style="fill:#262262;stroke:#000000;stroke-width:0.5;stroke-miterlimit:10; font-family:'Tahoma'; font-size:14;">NameE</text>
	
		<text transform="matrix(1 0 0 1 70.8679 250.9919)" style="fill:#262262;stroke:#000000;stroke-width:0.5;stroke-miterlimit:10; font-family:'Tahoma'; font-size:14;">NameF</text>
	
		<text transform="matrix(1 0 0 1 100.8546 650.9199)" style="fill:#262262;stroke:#000000;stroke-width:0.5;stroke-miterlimit:10; font-family:'Tahoma'; font-size:48;">B</text>
	
		<text transform="matrix(1 0 0 1 598.8455 650.9196)" style="fill:#262262;stroke:#000000;stroke-width:0.5;stroke-miterlimit:10; font-family:'Tahoma'; font-size:36;">AB</text>
	
		<text transform="matrix(1 0 0 1 558.3042 500.0046)" style="fill:#262262;stroke:#000000;stroke-width:0.5;stroke-miterlimit:10; font-family:'Tahoma'; font-size:24;">ABC</text>
	
		<text transform="matrix(1 0 0 1 113.2736 500.0045)" style="fill:#262262;stroke:#000000;stroke-width:0.5;stroke-miterlimit:10; font-family:'Tahoma'; font-size:24;">BC</text>
	
		<text transform="matrix(1 0 0 1 567.3761 322.0495)" style="fill:#262262;stroke:#000000;stroke-width:0.5;stroke-miterlimit:10; font-family:'Tahoma'; font-size:24;">AC</text>
	
		<text transform="matrix(1 0 0 1 295.5245 613.8773)" style="fill:#262262;stroke:#000000;stroke-width:0.5;stroke-miterlimit:10; font-family:'Tahoma'; font-size:18;">BD</text>
	
		<text transform="matrix(1 0 0 1 141.3714 363.6452)" style="fill:#262262;stroke:#000000;stroke-width:0.5;stroke-miterlimit:10; font-family:'Tahoma'; font-size:18;">CD</text>
	
		<text transform="matrix(1 0 0 1 136.0671 452.8252)" style="fill:#262262;stroke:#000000;stroke-width:0.5;stroke-miterlimit:10; font-family:'Tahoma'; font-size:18;">BCD</text>
	
		<text transform="matrix(1 0 0 1 198.3856 287.3755)" style="fill:#262262;stroke:#000000;stroke-width:0.5;stroke-miterlimit:10; font-family:'Tahoma'; font-size:12;">CE</text>
	
		<text transform="matrix(1 0 0 1 245.9779 282.2907)" style="fill:#262262;stroke:#000000;stroke-width:0.5;stroke-miterlimit:10; font-family:'Tahoma'; font-size:12;">EF</text>
	
		<text transform="matrix(1 0 0 1 330.0226 221.2472)" style="fill:#262262;stroke:#000000;stroke-width:0.5;stroke-miterlimit:10; font-family:'Tahoma'; font-size:12;">DE</text>
	
		<text transform="matrix(1 0 0 1 313.5191 282.2906)" style="fill:#262262;stroke:#000000;stroke-width:0.5;stroke-miterlimit:10; font-family:'Tahoma'; font-size:12;">DEF</text>
	
		<text transform="matrix(1 0 0 1 292.811 256.2538)" style="fill:#262262;stroke:#000000;stroke-width:0.5;stroke-miterlimit:10; font-family:'Tahoma'; font-size:12;">DF</text>
	
		<text transform="matrix(1 0 0 1 355.2905 221.247)" style="fill:#262262;stroke:#000000;stroke-width:0.5;stroke-miterlimit:10; font-family:'Tahoma'; font-size:12;">ADE</text>
	
		<text transform="matrix(1 0 0 1 358.1614 282.2907)" style="fill:#262262;stroke:#000000;stroke-width:0.5;stroke-miterlimit:10; font-family:'Tahoma'; font-size:12;">ADEF</text>
	
		<text transform="matrix(1 0 0 1 387.9062 256.2539)" style="fill:#262262;stroke:#000000;stroke-width:0.5;stroke-miterlimit:10; font-family:'Tahoma'; font-size:12;">ADF</text>
	
		<text transform="matrix(1 0 0 1 433.8273 288.5547)" style="fill:#262262;stroke:#000000;stroke-width:0.5;stroke-miterlimit:10; font-family:'Tahoma'; font-size:12;">AEF</text>
	
		<text transform="matrix(1 0 0 1 451.921 313.0494)" style="fill:#262262;stroke:#000000;stroke-width:0.5;stroke-miterlimit:10; font-family:'Tahoma'; font-size:12;">ACEF</text>
	
		<text transform="matrix(1 0 0 1 198.6228 328.7091)" style="fill:#262262;stroke:#000000;stroke-width:0.5;stroke-miterlimit:10; font-family:'Tahoma'; font-size:12;">CF</text>
	
		<text transform="matrix(1 0 0 1 262.6329 555.0309)" style="fill:#262262;stroke:#000000;stroke-width:0.5;stroke-miterlimit:10; font-family:'Tahoma'; font-size:12;">BF</text>
	
		<text transform="matrix(1 0 0 1 235.0294 537.5895)" style="fill:#262262;stroke:#000000;stroke-width:0.5;stroke-miterlimit:10; font-family:'Tahoma'; font-size:12;">BEF</text>
	
		<text transform="matrix(1 0 0 1 322.6407 597.9927)" style="fill:#262262;stroke:#000000;stroke-width:0.5;stroke-miterlimit:10; font-family:'Tahoma'; font-size:12;">BDE</text>
	
		<text transform="matrix(1 0 0 1 309.9828 543.3318)" style="fill:#262262;stroke:#000000;stroke-width:0.5;stroke-miterlimit:10; font-family:'Tahoma'; font-size:12;">BDEF</text>
	
		<text transform="matrix(1 0 0 1 350.7545 597.993)" style="fill:#262262;stroke:#000000;stroke-width:0.5;stroke-miterlimit:10; font-family:'Tahoma'; font-size:12;">ABDE</text>
	
		<text transform="matrix(1 0 0 1 354.6257 543.3322)" style="fill:#262262;stroke:#000000;stroke-width:0.5;stroke-miterlimit:10; font-family:'Tahoma'; font-size:12;">ABDEF</text>
	
		<text transform="matrix(1 0 0 1 384.3698 561.4285)" style="fill:#262262;stroke:#000000;stroke-width:0.5;stroke-miterlimit:10; font-family:'Tahoma'; font-size:12;">ABDF</text>
	
		<text transform="matrix(1 0 0 1 289.2746 564.4283)" style="fill:#262262;stroke:#000000;stroke-width:0.5;stroke-miterlimit:10; font-family:'Tahoma'; font-size:12;">BDF</text>
	
		<text transform="matrix(1 0 0 1 466.4474 550.0305)" style="fill:#262262;stroke:#000000;stroke-width:0.5;stroke-miterlimit:10; font-family:'Tahoma'; font-size:12;">ABE</text>
	
		<text transform="matrix(1 0 0 1 438.1266 530.6779)" style="fill:#262262;stroke:#000000;stroke-width:0.5;stroke-miterlimit:10; font-family:'Tahoma'; font-size:12;">ABEF</text>
	
		<text transform="matrix(1 0 0 1 377.0772 612.5757)" style="fill:#262262;stroke:#000000;stroke-width:0.5;stroke-miterlimit:10; font-family:'Tahoma'; font-size:12;">ABD</text>
	
		<text transform="matrix(1 0 0 1 418.0242 551.0305)" style="fill:#262262;stroke:#000000;stroke-width:0.5;stroke-miterlimit:10; font-family:'Tahoma'; font-size:12;">ABF</text>
	
		<text transform="matrix(1 0 0 1 214.0963 551.0307)" style="fill:#262262;stroke:#000000;stroke-width:0.5;stroke-miterlimit:10; font-family:'Tahoma'; font-size:12;">BE</text>
	
		<text transform="matrix(1 0 0 1 193.8492 532.678)" style="fill:#262262;stroke:#000000;stroke-width:0.5;stroke-miterlimit:10; font-family:'Tahoma'; font-size:12;">BCE</text>
	
		<text transform="matrix(1 0 0 1 211.3638 504.9788)" style="fill:#262262;stroke:#000000;stroke-width:0.5;stroke-miterlimit:10; font-family:'Tahoma'; font-size:12;">BCEF</text>
	
		<text transform="matrix(1 0 0 1 190.016 485.7162)" style="fill:#262262;stroke:#000000;stroke-width:0.5;stroke-miterlimit:10; font-family:'Tahoma'; font-size:12;">BCF</text>
	
		<text transform="matrix(1 0 0 1 180.6198 459.1213)" style="fill:#262262;stroke:#000000;stroke-width:0.5;stroke-miterlimit:10; font-family:'Tahoma'; font-size:12;">BCDF</text>
	
		<text transform="matrix(1 0 0 1 144.2837 397.747)" style="fill:#262262;stroke:#000000;stroke-width:0.5;stroke-miterlimit:10; font-family:'Tahoma'; font-size:12;">CDE</text>
	
		<text transform="matrix(1 0 0 1 178.3487 397.7471)" style="fill:#262262;stroke:#000000;stroke-width:0.5;stroke-miterlimit:10; font-family:'Tahoma'; font-size:12;">CDEF</text>
	
		<text transform="matrix(1 0 0 1 177.8127 422.9429)" style="fill:#262262;stroke:#000000;stroke-width:0.5;stroke-miterlimit:10; font-family:'Tahoma'; font-size:12;">BCDEF</text>
	
		<text transform="matrix(1 0 0 1 140.7478 422.9422)" style="fill:#262262;stroke:#000000;stroke-width:0.5;stroke-miterlimit:10; font-family:'Tahoma'; font-size:12;">BCDE</text>
	
		<text transform="matrix(1 0 0 1 181.1558 358.6699)" style="fill:#262262;stroke:#000000;stroke-width:0.5;stroke-miterlimit:10; font-family:'Tahoma'; font-size:12;">CDF</text>
	
		<text transform="matrix(1 0 0 1 219.4794 307.6522)" style="fill:#262262;stroke:#000000;stroke-width:0.5;stroke-miterlimit:10; font-family:'Tahoma'; font-size:12;">CEF</text>
	
		<text transform="matrix(1 0 0 1 94.7949 338.0171)" style="fill:#262262;stroke:#000000;stroke-width:0.5;stroke-miterlimit:10; font-family:'Tahoma'; font-size:48;">C</text>
	
		<text transform="matrix(1 0 0 1 215.9496 268.2466)" style="fill:#262262;stroke:#000000;stroke-width:0.5;stroke-miterlimit:10; font-family:'Tahoma'; font-size:18;">E</text>
	
		<text transform="matrix(1 0 0 1 315.9447 192.9234)" style="fill:#262262;stroke:#000000;stroke-width:0.5;stroke-miterlimit:10; font-family:'Tahoma'; font-size:24;">D</text>
	
		<text transform="matrix(1 0 0 1 361.0341 189.9236)" style="fill:#262262;stroke:#000000;stroke-width:0.5;stroke-miterlimit:10; font-family:'Tahoma'; font-size:18;">AD</text>
	
		<text transform="matrix(1 0 0 1 268.6151 265.2469)" style="fill:#262262;stroke:#000000;stroke-width:0.5;stroke-miterlimit:10; font-family:'Tahoma'; font-size:18;">F</text>
	
		<text transform="matrix(1 0 0 1 417.4422 265.2468)" style="fill:#262262;stroke:#000000;stroke-width:0.5;stroke-miterlimit:10; font-family:'Tahoma'; font-size:12;">AF</text>
	
		<text transform="matrix(1 0 0 1 478.9864 293.5547)" style="fill:#262262;stroke:#000000;stroke-width:0.5;stroke-miterlimit:10; font-family:'Tahoma'; font-size:12;">ACE</text>
	
		<text transform="matrix(1 0 0 1 479.2239 332.6318)" style="fill:#262262;stroke:#000000;stroke-width:0.5;stroke-miterlimit:10; font-family:'Tahoma'; font-size:12;">ACF</text>
	
		<text transform="matrix(1 0 0 1 523.6929 398.7473)" style="fill:#262262;stroke:#000000;stroke-width:0.5;stroke-miterlimit:10; font-family:'Tahoma'; font-size:12;">ACDE</text>
	
		<text transform="matrix(1 0 0 1 523.1566 422.9427)" style="fill:#262262;stroke:#000000;stroke-width:0.5;stroke-miterlimit:10; font-family:'Tahoma'; font-size:12;">ABCDE</text>
	
		<text transform="matrix(1 0 0 1 477.1017 458.1218)" style="fill:#262262;stroke:#000000;stroke-width:0.5;stroke-miterlimit:10; font-family:'Tahoma'; font-size:12;">ABCDF</text>
	
		<text transform="matrix(1 0 0 1 481.2246 359.3556)" style="fill:#262262;stroke:#000000;stroke-width:0.5;stroke-miterlimit:10; font-family:'Tahoma'; font-size:12;">ACDF</text>
	
		<text transform="matrix(1 0 0 1 476.8583 397.7465)" style="fill:#262262;stroke:#000000;stroke-width:0.5;stroke-miterlimit:10; font-family:'Tahoma'; font-size:12;">ACDEF</text>
	
		<text transform="matrix(1 0 0 1 478.5208 526.3762)" style="fill:#262262;stroke:#000000;stroke-width:0.5;stroke-miterlimit:10; font-family:'Tahoma'; font-size:12;">ABCE</text>
	
		<text transform="matrix(1 0 0 1 449.1963 503.9784)" style="fill:#262262;stroke:#000000;stroke-width:0.5;stroke-miterlimit:10; font-family:'Tahoma'; font-size:12;">ABCEF</text>
	
		<text transform="matrix(1 0 0 1 474.6877 483.7163)" style="fill:#262262;stroke:#000000;stroke-width:0.5;stroke-miterlimit:10; font-family:'Tahoma'; font-size:12;">ABCF</text>
	
		<text transform="matrix(1 0 0 1 466.5019 271.2468)" style="fill:#262262;stroke:#000000;stroke-width:0.5;stroke-miterlimit:10; font-family:'Tahoma'; font-size:18;">AE</text>
	
		<text transform="matrix(1 0 0 1 523.0294 364.6452)" style="fill:#262262;stroke:#000000;stroke-width:0.5;stroke-miterlimit:10; font-family:'Tahoma'; font-size:18;">ACD</text>
	
		<text transform="matrix(1 0 0 1 520.0264 452.825)" style="fill:#262262;stroke:#000000;stroke-width:0.5;stroke-miterlimit:10; font-family:'Tahoma'; font-size:18;">ABCD</text>
	
		<text transform="matrix(1 0 0 1 354.8758 442.4265)" style="fill:#FFFFFF;stroke:#000000;stroke-width:0.5;stroke-miterlimit:10; font-family:'Tahoma'; font-size:36;">ABCDEF</text>
	<circle style="opacity:0.2;fill:#FFF200;stroke:#010101;stroke-width:2;" cx="59.2" cy="152.5" r="6.9"/>
	<circle style="opacity:0.2;fill:#2E3192;stroke:#010101;stroke-width:2;" cx="59.2" cy="171.2" r="6.9"/>
	<circle style="opacity:0.2;fill:#ED1C24;stroke:#010101;stroke-width:2;" cx="59.2" cy="189.9" r="6.9"/>
	<circle style="opacity:0.2;fill:#58595B;stroke:#010101;stroke-width:2;" cx="59.2" cy="208.7" r="6.9"/>
	<circle style="opacity:0.2;fill:#3C2415;stroke:#010101;stroke-width:2;" cx="59.2" cy="228.1" r="6.9"/>
	<circle style="opacity:0.2;fill:#9E1F63;stroke:#010101;stroke-width:2;" cx="59.2" cy="246.8" r="6.9"/>
</g>
</svg>
