<?xml version="1.0" encoding="utf-8"?>
<!-- Generator: Adobe Illustrator 18.1.1, SVG Export Plug-In . SVG Version: 6.00 Build 0)  -->
<svg version="1.1" id="Layer_1" xmlns="http://www.w3.org/2000/svg" xmlns:xlink="http://www.w3.org/1999/xlink" x="0px" y="0px"
	 viewBox="0 0 700 700" enable-background="new 0 0 700 700" xml:space="preserve">
<circle opacity="0.2" fill="#FFF200" stroke="#000000" stroke-width="3" stroke-miterlimit="10" cx="255.6" cy="276.8" r="173.8"/>
<circle opacity="0.2" fill="#2E3192" stroke="#000000" stroke-width="3" stroke-miterlimit="10" cx="430.2" cy="276.5" r="173.8"/>
<circle opacity="0.2" fill="#ED1C24" stroke="#000000" stroke-width="3" stroke-miterlimit="10" cx="342" cy="427.5" r="173.8"/>
<text transform="matrix(1 0 0 1 168.1717 244.6383)" fill="#262262" stroke="#000000" stroke-width="0.5" stroke-miterlimit="10" font-family="'Tahoma'" font-size="48">A</text>
<text transform="matrix(1 0 0 1 490.9359 244.6384)" fill="#262262" stroke="#000000" stroke-width="0.5" stroke-miterlimit="10" font-family="'Tahoma'" font-size="48">B</text>
<text transform="matrix(1 0 0 1 331.1554 531.9962)" fill="#262262" stroke="#000000" stroke-width="0.5" stroke-miterlimit="10" font-family="'Tahoma'" font-size="48">C</text>
<text transform="matrix(1 0 0 1 201.8871 409.232)" fill="#262262" stroke="#000000" stroke-width="0.5" stroke-miterlimit="10" font-family="'Tahoma'" font-size="48">AC</text>
<text transform="matrix(1 0 0 1 417.3343 409.2315)" fill="#262262" stroke="#000000" stroke-width="0.5" stroke-miterlimit="10" font-family="'Tahoma'" font-size="48">BC</text>
<text transform="matrix(1 0 0 1 310.8302 228.7437)" fill="#262262" stroke="#000000" stroke-width="0.5" stroke-miterlimit="10" font-family="'Tahoma'" font-size="48">AB</text>
<text transform="matrix(1 0 0 1 307.0508 339.2191)" fill="#FFFFFF" stroke="#000000" stroke-width="0.5" stroke-miterlimit="10" font-family="'Tahoma'" font-size="48">ABC</text>
<text transform="matrix(1 0 0 1 120.7988 75.1879)" fill="#262262" stroke="#000000" stroke-width="0.5" stroke-miterlimit="10" font-family="'Tahoma'" font-size="30">NameA</text>
<text transform="matrix(1 0 0 1 468.5198 75.188)" fill="#262262" stroke="#000000" stroke-width="0.5" stroke-miterlimit="10" font-family="'Tahoma'" font-size="30">NameB</text>
<text transform="matrix(1 0 0 1 302.6121 651.5806)" fill="#262262" stroke="#000000" stroke-width="0.5" stroke-miterlimit="10" font-family="'Tahoma'" font-size="30">NameC</text>
</svg>
