<?xml version="1.0" encoding="utf-8"?>
<!-- Generator: Adobe Illustrator 18.1.1, SVG Export Plug-In . SVG Version: 6.00 Build 0)  -->
<svg version="1.1" xmlns="http://www.w3.org/2000/svg" xmlns:xlink="http://www.w3.org/1999/xlink" x="0px" y="0px"
	 viewBox="0 0 700 700" enable-background="new 0 0 700 700" xml:space="preserve">
<g id="Shape_E">
	<path opacity="0.2" fill="#3C2415" stroke="#000000" stroke-width="3" stroke-miterlimit="10" d="M345.4,441.6
		c-11.4,7.5-19.7,13.8-34.9,20.6c-22.4,10-44,14-57.7,14.9c-44.3,2.9-79.8-21.3-118.2-48.3C86,394.7,61.7,377.7,51,349.1
		c-28.4-75.7,44.4-157.9,60.3-175.8c15.1-17,36.1-40,71.5-49.3c32.1-8.4,59.2-0.9,69.2,1.9c40.9,11.8,65.2,39.6,73,48.8
		c24.6,28.9,18.6,42.9,40.8,58.7c13.2,9.5,19.3,7.3,63.9,16.6c49.6,10.4,74.8,15.9,99,32.8c11.4,8,29.4,21,37.7,44.7
		c5.1,14.7,4.1,28.9,3.4,40.1c-0.8,12.9-1.5,22.7-7.8,32.5c-7.7,12-19.3,17.1-23,18.7c-36.5,15.9-62.9-25.6-111.3-19
		C403.8,403.2,382.8,417,345.4,441.6z"/>
</g>
<g id="Shape_D">
	<path opacity="0.2" fill="#58595B" stroke="#000000" stroke-width="3" stroke-miterlimit="10" d="M417.1,407.5
		c3.1,13.3,6.2,23.3,7.3,39.9c1.7,24.5-2.1,46.1-6,59.3c-12.6,42.6-47.5,67.5-86.2,94.3c-48.8,33.8-73.2,50.7-103.8,50.9
		c-80.9,0.5-132.8-96.3-144.1-117.3c-10.7-20-25.1-47.7-21.5-84.1c3.2-33,19.6-55.9,25.7-64.2c25.2-34.3,59.7-47.5,71-51.6
		c35.6-13.1,46.7-2.7,69.2-18c13.4-9.1,13.5-15.6,37.7-54.2c26.9-42.9,40.8-64.7,65-81.5c11.4-7.9,29.8-20.3,55-19.9
		c15.6,0.3,28.5,6.2,38.8,10.7c11.8,5.2,20.8,9.2,27.8,18.5c8.6,11.4,9.3,24,9.6,28.1c2.4,39.7-45.8,50.2-56.3,97.9
		C401.2,339.4,406.9,363.9,417.1,407.5z"/>
</g>
<g id="Shape_C">
	<path opacity="0.2" fill="#ED1C24" stroke="#000000" stroke-width="3" stroke-miterlimit="10" d="M391.2,315.3
		c13.6,0.2,24.1-0.4,40.4,2.5c24.1,4.2,44.3,13.1,56.1,20c38.3,22.4,54.2,62.3,70.9,106.2c21.1,55.5,31.7,83.2,24.6,112.9
		C564.3,635.5,458,662.8,434.8,668.7c-22,5.6-52.3,12.9-86.8,0.8c-31.3-11-49.6-32.4-56.2-40.4c-27.2-32.7-31.8-69.3-33.1-81.3
		c-4.2-37.7,8.6-46-0.9-71.5c-5.7-15.2-11.9-16.9-43.6-49.6c-35.2-36.4-53.1-55.1-63.6-82.6c-4.9-13-12.6-33.8-6.1-58.1
		c4-15,12.8-26.2,19.7-35.1c7.9-10.3,13.9-18,24.6-22.6c13.1-5.6,25.5-3.3,29.5-2.6c39.1,7.2,37.8,56.5,81.5,78.1
		C321.4,314.4,346.5,314.7,391.2,315.3z"/>
</g>
<g id="Shape_B">
	<path opacity="0.2" fill="#2E3192" stroke="#000000" stroke-width="3" stroke-miterlimit="10" d="M306.6,300.2
		c4.9-12.7,8-22.8,16.3-37.1c12.3-21.2,27.6-37,38.2-45.8c34.3-28.2,77.2-29.3,124.2-29.8c59.4-0.7,89-1,114.5,16
		c67.3,44.9,56.1,154.2,53.7,177.9c-2.3,22.6-6,53.6-29.3,81.8c-21.1,25.6-47.6,35.3-57.3,38.8c-40.1,14.3-76.1,5.9-87.7,3
		c-36.8-9.1-40.2-23.9-67.4-23.9c-16.3,0-19.9,5.3-61.6,23.8c-46.3,20.5-70,30.8-99.5,31.1c-13.9,0.2-36.1,0.1-56.7-14.3
		c-12.7-8.9-20.1-21.1-26.1-30.6c-6.9-10.9-12-19.3-12.7-30.9c-0.8-14.2,5.7-25.1,7.8-28.6c20.3-34.2,66.1-15.9,101.4-49.5
		C281.6,365.5,290.6,342,306.6,300.2z"/>
</g>
<g id="Shape_A">
	<path opacity="0.2" fill="#FFF200" stroke="#000000" stroke-width="3" stroke-miterlimit="10" d="M275.9,384.9
		c-10.7-8.4-19.4-14.3-30.6-26.6c-16.6-18-27.2-37.3-32.4-50c-16.8-41.1-5.1-82.4,8.3-127.4c17-56.9,25.4-85.3,49.2-104.6
		c62.9-50.9,163.9-7.9,185.8,1.5c20.9,8.9,49.4,21.6,69.4,52.2c18.2,27.8,19.6,55.9,20.1,66.2c1.7,42.5-17,74.4-23.2,84.7
		c-19.6,32.5-34.8,31.3-42.8,57.3c-4.8,15.5-0.8,20.6,4.5,65.9c5.8,50.3,8.6,76,0.2,104.3c-4,13.3-10.6,34.5-30.5,49.9
		c-12.3,9.5-26.1,13-37,15.9c-12.5,3.4-22,5.8-33.3,2.9c-13.8-3.5-22.3-12.9-25-15.9c-26.7-29.5,4.4-67.8-17.2-111.6
		C330.8,428.1,311.1,412.6,275.9,384.9z"/>
</g>
<g id="Text">
	
		<text transform="matrix(1 0 0 1 370.1269 120.0971)" fill="#262262" stroke="#000000" stroke-width="0.5" stroke-miterlimit="10" font-family="'Tahoma'" font-size="48">A</text>
	
		<text transform="matrix(1 0 0 1 360.8614 191.1093)" fill="#262262" stroke="#000000" stroke-width="0.5" stroke-miterlimit="10" font-family="'Tahoma'" font-size="24">AD</text>
	
		<text transform="matrix(1 0 0 1 255.557 192.1091)" fill="#262262" stroke="#000000" stroke-width="0.5" stroke-miterlimit="10" font-family="'Tahoma'" font-size="24">AE</text>
	
		<text transform="matrix(1 0 0 1 288.4385 243.0347)" fill="#262262" stroke="#000000" stroke-width="0.5" stroke-miterlimit="10" font-family="'Tahoma'" font-size="24">ADE</text>
	
		<text transform="matrix(1 0 0 1 208.5769 274.738)" fill="#262262" stroke="#000000" stroke-width="0.5" stroke-miterlimit="10" font-family="'Tahoma'" font-size="24">ACE</text>
	
		<text transform="matrix(1 0 0 1 233.2596 333.4443)" fill="#262262" stroke="#000000" stroke-width="0.5" stroke-miterlimit="10" font-family="'Tahoma'" font-size="24">ACDE</text>
	
		<text transform="matrix(1 0 0 1 181.5063 373.9636)" fill="#262262" stroke="#000000" stroke-width="0.5" stroke-miterlimit="10" font-family="'Tahoma'" font-size="24">CDE</text>
	
		<text transform="matrix(1 0 0 1 162.9743 298.7108)" fill="#262262" stroke="#000000" stroke-width="0.5" stroke-miterlimit="10" font-family="'Tahoma'" font-size="24">CE</text>
	
		<text transform="matrix(1 0 0 1 128.169 398.1904)" fill="#262262" stroke="#000000" stroke-width="0.5" stroke-miterlimit="10" font-family="'Tahoma'" font-size="24">DE</text>
	
		<text transform="matrix(1 0 0 1 249.2854 439.3283)" fill="#262262" stroke="#000000" stroke-width="0.5" stroke-miterlimit="10" font-family="'Tahoma'" font-size="24">BCDE</text>
	
		<text transform="matrix(1 0 0 1 173.3246 452.3285)" fill="#262262" stroke="#000000" stroke-width="0.5" stroke-miterlimit="10" font-family="'Tahoma'" font-size="24">BDE</text>
	
		<text transform="matrix(1 0 0 1 201.9807 513.0236)" fill="#262262" stroke="#000000" stroke-width="0.5" stroke-miterlimit="10" font-family="'Tahoma'" font-size="24">BD</text>
	
		<text transform="matrix(1 0 0 1 277.8689 505.9724)" fill="#262262" stroke="#000000" stroke-width="0.5" stroke-miterlimit="10" font-family="'Tahoma'" font-size="24">BCD</text>
	
		<text transform="matrix(1 0 0 1 293.1592 572.6953)" fill="#262262" stroke="#000000" stroke-width="0.5" stroke-miterlimit="10" font-family="'Tahoma'" font-size="24">CD</text>
	
		<text transform="matrix(1 0 0 1 353.6544 532.9675)" fill="#262262" stroke="#000000" stroke-width="0.5" stroke-miterlimit="10" font-family="'Tahoma'" font-size="24">ACD</text>
	
		<text transform="matrix(1 0 0 1 360.5495 463.5082)" fill="#262262" stroke="#000000" stroke-width="0.5" stroke-miterlimit="10" font-family="'Tahoma'" font-size="24">ABCD</text>
	
		<text transform="matrix(1 0 0 1 426.3467 540.5308)" fill="#262262" stroke="#000000" stroke-width="0.5" stroke-miterlimit="10" font-family="'Tahoma'" font-size="24">AC</text>
	
		<text transform="matrix(1 0 0 1 433.0389 463.5085)" fill="#262262" stroke="#000000" stroke-width="0.5" stroke-miterlimit="10" font-family="'Tahoma'" font-size="24">ABC</text>
	
		<text transform="matrix(1 0 0 1 508.4132 477.3248)" fill="#262262" stroke="#000000" stroke-width="0.5" stroke-miterlimit="10" font-family="'Tahoma'" font-size="24">BC</text>
	
		<text transform="matrix(1 0 0 1 487.134 397.9714)" fill="#262262" stroke="#000000" stroke-width="0.5" stroke-miterlimit="10" font-family="'Tahoma'" font-size="24">BCE</text>
	
		<text transform="matrix(1 0 0 1 416.0938 373.9639)" fill="#262262" stroke="#000000" stroke-width="0.5" stroke-miterlimit="10" font-family="'Tahoma'" font-size="24">ABCE</text>
	
		<text transform="matrix(1 0 0 1 441.7688 298.7111)" fill="#262262" stroke="#000000" stroke-width="0.5" stroke-miterlimit="10" font-family="'Tahoma'" font-size="24">ABE</text>
	
		<text transform="matrix(1 0 0 1 519.991 344.8557)" fill="#262262" stroke="#000000" stroke-width="0.5" stroke-miterlimit="10" font-family="'Tahoma'" font-size="24">BE</text>
	
		<text transform="matrix(1 0 0 1 483.368 230.3004)" fill="#262262" stroke="#000000" stroke-width="0.5" stroke-miterlimit="10" font-family="'Tahoma'" font-size="24">AB</text>
	
		<text transform="matrix(1 0 0 1 401.6188 224.5868)" fill="#262262" stroke="#000000" stroke-width="0.5" stroke-miterlimit="10" font-family="'Tahoma'" font-size="24">ABD</text>
	
		<text transform="matrix(1 0 0 1 344.0566 288.9619)" fill="#262262" stroke="#000000" stroke-width="0.5" stroke-miterlimit="10" font-family="'Tahoma'" font-size="24">ABDE</text>
	
		<text transform="matrix(1 0 0 1 603.8369 344.6877)" fill="#262262" stroke="#000000" stroke-width="0.5" stroke-miterlimit="10" font-family="'Tahoma'" font-size="48">B</text>
	
		<text transform="matrix(1 0 0 1 448.3544 627.3423)" fill="#262262" stroke="#000000" stroke-width="0.5" stroke-miterlimit="10" font-family="'Tahoma'" font-size="48">C</text>
	
		<text transform="matrix(1 0 0 1 165.7341 588.3893)" fill="#262262" stroke="#000000" stroke-width="0.5" stroke-miterlimit="10" font-family="'Tahoma'" font-size="48">D</text>
	
		<text transform="matrix(1 0 0 1 104.0929 251.0275)" fill="#262262" stroke="#000000" stroke-width="0.5" stroke-miterlimit="10" font-family="'Tahoma'" font-size="48">E</text>
	
		<text transform="matrix(1 0 0 1 278.7231 381.6623)" fill="#FFFFFF" stroke="#000000" stroke-width="0.5" stroke-miterlimit="10" font-family="'Tahoma'" font-size="42">ABCDE</text>
	
		<text transform="matrix(1 0 0 1 337.144 35.2443)" fill="#262262" stroke="#000000" stroke-width="0.5" stroke-miterlimit="10" font-family="'Tahoma'" font-size="30">NameA</text>
	
		<text transform="matrix(1 0 0 1 70.7637 110.62)" fill="#262262" stroke="#000000" stroke-width="0.5" stroke-miterlimit="10" font-family="'Tahoma'" font-size="30">NameE</text>
	
		<text transform="matrix(1 0 0 1 570.7622 174.8877)" fill="#262262" stroke="#000000" stroke-width="0.5" stroke-miterlimit="10" font-family="'Tahoma'" font-size="30">NameB</text>
	
		<text transform="matrix(1 0 0 1 543.6575 671.0576)" fill="#262262" stroke="#000000" stroke-width="0.5" stroke-miterlimit="10" font-family="'Tahoma'" font-size="30">NameC</text>
	
		<text transform="matrix(1 0 0 1 50.3954 671.0573)" fill="#262262" stroke="#000000" stroke-width="0.5" stroke-miterlimit="10" font-family="'Tahoma'" font-size="30">NameD</text>
</g>
</svg>
