<?xml version="1.0" encoding="utf-8"?>
<!-- Generator: Adobe Illustrator 18.1.1, SVG Export Plug-In . SVG Version: 6.00 Build 0)  -->
<svg version="1.1" id="Layer_1" xmlns="http://www.w3.org/2000/svg" xmlns:xlink="http://www.w3.org/1999/xlink" x="0px" y="0px"
	 viewBox="0 0 700 700" style="enable-background:new 0 0 700 700;" xml:space="preserve">
<path style="opacity:0.2;fill:#ED1C24;stroke:#0D9747;stroke-width:3;" d="M136.8,537.5C87.6,526.9,46.6,485.4,35,436.6
	c-0.8-30.3-6-63.6,10.5-91C74.2,285.8,150.8,255,212.6,280c38.2,14.6,62,53.3,103.1,62.3c46.5,14.9,97.4-5.4,130.5-39
	c47.9-42.4,126.1-42.2,173.5,0.8c25.1,22.9,46.9,55.1,43.5,90.6c1.1,30.6-0.6,63.6-21.5,88.1c-34.8,52.7-109.7,72.2-166,43.7
	c-35.7-16.4-59.4-54.6-100.7-59.3c-29.1-8.5-60.7-1.1-87.2,12.1c-22.2,13.2-38,34.6-62,45.2C199.4,540,166.4,541.5,136.8,537.5z"/>
<path style="opacity:0.2;fill:#FFF200;stroke:#010101;stroke-width:3;" d="M653.2,674.5H362.8c-6.6,0-12-5.4-12-12V122.9
	c0-6.6,5.4-12,12-12h290.3c6.6,0,12,5.4,12,12v539.6C665.2,669.1,659.8,674.5,653.2,674.5z"/>
<path style="opacity:0.2;fill:#2E3192;stroke:#010101;stroke-width:3;" d="M653.8,674.5h-606c-6.6,0-12-5.4-12-12V419.4
	c0-6.6,5.4-12,12-12h606c6.6,0,12,5.4,12,12v243.1C665.8,669.1,660.4,674.5,653.8,674.5z"/>
<text transform="matrix(1 0 0 1 593.8564 204.3211)" style="fill:#262262;stroke:#000000;stroke-width:0.5;stroke-miterlimit:10; font-family:'Tahoma'; font-size:48;">A</text>
<text transform="matrix(1 0 0 1 77.875 127.2716)" style="fill:#262262;stroke:#000000;stroke-width:0.5;stroke-miterlimit:10; font-family:'Tahoma'; font-size:14;">Edwards-Venn 3-set diagram</text>
<text transform="matrix(1 0 0 1 70.8683 165.8092)" style="fill:#262262;stroke:#000000;stroke-width:0.5;stroke-miterlimit:10; font-family:'Tahoma'; font-size:14;">NameA</text>
<text transform="matrix(1 0 0 1 70.8684 185.2626)" style="fill:#262262;stroke:#000000;stroke-width:0.5;stroke-miterlimit:10; font-family:'Tahoma'; font-size:14;">NameB</text>
<text transform="matrix(1 0 0 1 70.8681 203.8458)" style="fill:#262262;stroke:#000000;stroke-width:0.5;stroke-miterlimit:10; font-family:'Tahoma'; font-size:14;">NameC</text>
<text transform="matrix(1 0 0 1 91.8546 650.9199)" style="fill:#262262;stroke:#000000;stroke-width:0.5;stroke-miterlimit:10; font-family:'Tahoma'; font-size:48;">B</text>
<text transform="matrix(1 0 0 1 589.8455 650.9196)" style="fill:#262262;stroke:#000000;stroke-width:0.5;stroke-miterlimit:10; font-family:'Tahoma'; font-size:36;">AB</text>
<text transform="matrix(1 0 0 1 115.053 482.3366)" style="fill:#262262;stroke:#000000;stroke-width:0.5;stroke-miterlimit:10; font-family:'Tahoma'; font-size:34;">BC</text>
<text transform="matrix(1 0 0 1 524.3383 331.7437)" style="fill:#262262;stroke:#000000;stroke-width:0.5;stroke-miterlimit:10; font-family:'Tahoma'; font-size:34;">AC</text>
<text transform="matrix(1 0 0 1 125.0722 331.7438)" style="fill:#262262;stroke:#000000;stroke-width:0.5;stroke-miterlimit:10; font-family:'Tahoma'; font-size:34;">C</text>
<text transform="matrix(1 0 0 1 503.5817 482.3364)" style="fill:#FFFFFF;stroke:#000000;stroke-width:0.5;stroke-miterlimit:10; font-family:'Tahoma'; font-size:46;">ABC</text>
<circle style="opacity:0.2;fill:#FFF200;stroke:#010101;stroke-width:2;" cx="59.2" cy="161.5" r="6.9"/>
<circle style="opacity:0.2;fill:#2E3192;stroke:#010101;stroke-width:2;" cx="59.2" cy="180.2" r="6.9"/>
<circle style="opacity:0.2;fill:#ED1C24;stroke:#010101;stroke-width:2;" cx="59.2" cy="198.9" r="6.9"/>
</svg>
