<?xml version="1.0" encoding="utf-8"?>
<!-- Generator: Adobe Illustrator 18.1.1, SVG Export Plug-In . SVG Version: 6.00 Build 0)  -->
<svg version="1.1" id="Layer_1" xmlns="http://www.w3.org/2000/svg" xmlns:xlink="http://www.w3.org/1999/xlink" x="0px" y="0px"
	 viewBox="0 0 700 700" style="enable-background:new 0 0 700 700;" xml:space="preserve">
<path style="opacity:0.2;fill:#3C2415;stroke:#B9539F;stroke-width:3;" d="M338,609.9c-12.8-5.2-18.7-17.5-18.7-38.9
	c0-41.8-46.8-50.7-76.4-18c-8.6,9.5-30.4,7.9-40.6-4.1c-11.6-13.6-8.7-30.6,8.5-50.2c15.3-17.4,16.8-34.6,4.5-50.3
	c-6.8-8.7-13.5-11.3-32.8-12.9c-28.8-2.4-38.5-10.4-38.5-31.6c0-21.2,9.8-29.2,38.5-31.6c19.3-1.6,25.9-4.2,32.8-12.9
	c14.3-18.2,10.7-37.6-11.1-59.3c-17.4-17.4-13-37.4,11-50.2c10.1-5.4,24.2-0.3,40.3,14.7c26.9,25,63.8,8.1,63.8-29.2
	c0-33.2,26-51.3,48.5-33.6c9.1,7.1,11.6,13.5,13.2,33.5c2.4,29.2,12.9,40.6,37.3,40.6c11.6,0,19.2-3.5,29.8-13.7
	c17.5-17,36.4-18.4,49.1-3.7c10.8,12.5,11.2,28,0.9,38.3c-25.1,25.1-29.1,46.7-11.9,63.9c8.2,8.2,15.2,10.7,30.6,10.7
	c35.9,0,53.6,33.3,30.6,56.3c-8,8-15.3,10.7-29.4,10.7c-24,0-36.3,6.9-40,26.6c-3.1,16.3,2,28,19.7,45.7c5.9,5.9,7.8,13.3,7.5,24.2
	c-0.3,8.8-6.4,17.2-15.1,21.5c-16,7.9-33.6,0.3-42.7-11.5c-14.4-18.8-37.4-18.4-52.6-6.3c-9.6,7.7-12.1,13.7-13.7,34.1
	c-1.6,19.8-4.2,26.4-12.9,33.3C356.2,615.1,352.2,615.6,338,609.9z"/>
<path style="opacity:0.2;fill:#58595B;stroke:#3A53A4;stroke-width:3;" d="M318.7,635.2c-31.4-13.5-42.6-51.8-34.1-82.8
	c4.6-23.7,6.8-51.8-8.9-71.6c-19.1-20.1-44.6-27.9-68.9-15.3c-31.7,9.5-72,1.2-87.6-30.7c-18-34.9-2.7-86.3,37.5-97
	c25.5-8,51.4,3.1,76.5,6.2c23.3-7,52.3-21.4,52.8-49.5c1.8-30.7-5.4-62,0.5-92.4c13-28.6,46.3-43.8,76.6-36.8
	c28.6,4,53.8,30.9,50.1,60.7c1.5,22.1-5.7,43.8-4.2,65.7c5.6,37.2,50.7,63.2,85.2,45.8c37.3-14.7,88.3,11.2,90.3,53.3
	c5.2,33.2-13.8,71.6-49.1,77.5c-31.3,8-65.5-15.1-97.1-1.7c-22.9,9.7-27.8,30.9-29.8,53c1.3,28.3,13.1,59.1,0.1,86.2
	c-12.4,23.9-39.1,36.1-65.4,33.5C335,639.1,326.5,638.4,318.7,635.2z"/>
<path style="opacity:0.2;fill:#ED1C24;stroke:#0D9747;stroke-width:3;" d="M136.8,537.5C87.6,526.9,46.6,485.4,35,436.6
	c-0.8-30.3-6-63.6,10.5-91C74.2,285.8,150.8,255,212.6,280c38.2,14.6,62,53.3,103.1,62.3c46.5,14.9,97.4-5.4,130.5-39
	c47.9-42.4,126.1-42.2,173.5,0.8c25.1,22.9,46.9,55.1,43.5,90.6c1.1,30.6-0.6,63.6-21.5,88.1c-34.8,52.7-109.7,72.2-166,43.7
	c-35.7-16.4-59.4-54.6-100.7-59.3c-29.1-8.5-60.7-1.1-87.2,12.1c-22.2,13.2-38,34.6-62,45.2C199.4,540,166.4,541.5,136.8,537.5z"/>
<path style="opacity:0.2;fill:#FFF200;stroke:#010101;stroke-width:3;" d="M653.2,674.5H362.8c-6.6,0-12-5.4-12-12V122.9
	c0-6.6,5.4-12,12-12h290.3c6.6,0,12,5.4,12,12v539.6C665.2,669.1,659.8,674.5,653.2,674.5z"/>
<path style="opacity:0.2;fill:#2E3192;stroke:#010101;stroke-width:3;" d="M653.8,674.5h-606c-6.6,0-12-5.4-12-12V419.4
	c0-6.6,5.4-12,12-12h606c6.6,0,12,5.4,12,12v243.1C665.8,669.1,660.4,674.5,653.8,674.5z"/>
<text transform="matrix(1 0 0 1 593.8564 204.3211)" style="fill:#262262;stroke:#000000;stroke-width:0.5;stroke-miterlimit:10; font-family:'Tahoma'; font-size:48;">A</text>
<text transform="matrix(1 0 0 1 77.875 127.2716)" style="fill:#262262;stroke:#000000;stroke-width:0.5;stroke-miterlimit:10; font-family:'Tahoma'; font-size:14;">Edwards-Venn 5-set diagram</text>
<text transform="matrix(1 0 0 1 69.8683 159.8092)" style="fill:#262262;stroke:#000000;stroke-width:0.5;stroke-miterlimit:10; font-family:'Tahoma'; font-size:14;">NameA</text>
<text transform="matrix(1 0 0 1 69.8684 179.2626)" style="fill:#262262;stroke:#000000;stroke-width:0.5;stroke-miterlimit:10; font-family:'Tahoma'; font-size:14;">NameB</text>
<text transform="matrix(1 0 0 1 69.8681 197.8458)" style="fill:#262262;stroke:#000000;stroke-width:0.5;stroke-miterlimit:10; font-family:'Tahoma'; font-size:14;">NameC</text>
<text transform="matrix(1 0 0 1 69.8685 216.7002)" style="fill:#262262;stroke:#000000;stroke-width:0.5;stroke-miterlimit:10; font-family:'Tahoma'; font-size:14;">NameD</text>
<text transform="matrix(1 0 0 1 69.868 236.0713)" style="fill:#262262;stroke:#000000;stroke-width:0.5;stroke-miterlimit:10; font-family:'Tahoma'; font-size:14;">NameE</text>
<text transform="matrix(1 0 0 1 91.8546 650.9199)" style="fill:#262262;stroke:#000000;stroke-width:0.5;stroke-miterlimit:10; font-family:'Tahoma'; font-size:48;">B</text>
<text transform="matrix(1 0 0 1 589.8455 650.9196)" style="fill:#262262;stroke:#000000;stroke-width:0.5;stroke-miterlimit:10; font-family:'Tahoma'; font-size:36;">AB</text>
<text transform="matrix(1 0 0 1 549.3042 500.0046)" style="fill:#262262;stroke:#000000;stroke-width:0.5;stroke-miterlimit:10; font-family:'Tahoma'; font-size:24;">ABC</text>
<text transform="matrix(1 0 0 1 104.2736 500.0045)" style="fill:#262262;stroke:#000000;stroke-width:0.5;stroke-miterlimit:10; font-family:'Tahoma'; font-size:24;">BC</text>
<text transform="matrix(1 0 0 1 558.3761 322.0495)" style="fill:#262262;stroke:#000000;stroke-width:0.5;stroke-miterlimit:10; font-family:'Tahoma'; font-size:24;">AC</text>
<text transform="matrix(1 0 0 1 291.4051 600.0492)" style="fill:#262262;stroke:#000000;stroke-width:0.5;stroke-miterlimit:10; font-family:'Tahoma'; font-size:18;">BD</text>
<text transform="matrix(1 0 0 1 149.4531 362.6449)" style="fill:#262262;stroke:#000000;stroke-width:0.5;stroke-miterlimit:10; font-family:'Tahoma'; font-size:18;">CD</text>
<text transform="matrix(1 0 0 1 150.4314 457.9592)" style="fill:#262262;stroke:#000000;stroke-width:0.5;stroke-miterlimit:10; font-family:'Tahoma'; font-size:18;">BCD</text>
<text transform="matrix(1 0 0 1 232.892 322.0495)" style="fill:#262262;stroke:#000000;stroke-width:0.5;stroke-miterlimit:10; font-family:'Tahoma'; font-size:18;">CE</text>
<text transform="matrix(1 0 0 1 317.3049 298.5218)" style="fill:#262262;stroke:#000000;stroke-width:0.5;stroke-miterlimit:10; font-family:'Tahoma'; font-size:18;">DE</text>
<text transform="matrix(1 0 0 1 362.7309 298.5217)" style="fill:#262262;stroke:#000000;stroke-width:0.5;stroke-miterlimit:10; font-family:'Tahoma'; font-size:18;">ADE</text>
<text transform="matrix(1 0 0 1 302.4609 501.0051)" style="fill:#262262;stroke:#000000;stroke-width:0.5;stroke-miterlimit:10; font-family:'Tahoma'; font-size:18;">BDE</text>
<text transform="matrix(1 0 0 1 357.4264 501.0049)" style="fill:#262262;stroke:#000000;stroke-width:0.5;stroke-miterlimit:10; font-family:'Tahoma'; font-size:18;">ABDE</text>
<text transform="matrix(1 0 0 1 415.5937 522.3743)" style="fill:#262262;stroke:#000000;stroke-width:0.5;stroke-miterlimit:10; font-family:'Tahoma'; font-size:18;">ABE</text>
<text transform="matrix(1 0 0 1 379.8111 600.0488)" style="fill:#262262;stroke:#000000;stroke-width:0.5;stroke-miterlimit:10; font-family:'Tahoma'; font-size:18;">ABD</text>
<text transform="matrix(1 0 0 1 256.1442 526.3767)" style="fill:#262262;stroke:#000000;stroke-width:0.5;stroke-miterlimit:10; font-family:'Tahoma'; font-size:18;">BE</text>
<text transform="matrix(1 0 0 1 227.588 492.8206)" style="fill:#262262;stroke:#000000;stroke-width:0.5;stroke-miterlimit:10; font-family:'Tahoma'; font-size:18;">BCE</text>
<text transform="matrix(1 0 0 1 167.9948 397.7469)" style="fill:#262262;stroke:#000000;stroke-width:0.5;stroke-miterlimit:10; font-family:'Tahoma'; font-size:18;">CDE</text>
<text transform="matrix(1 0 0 1 162.6909 424.942)" style="fill:#262262;stroke:#000000;stroke-width:0.5;stroke-miterlimit:10; font-family:'Tahoma'; font-size:18;">BCDE</text>
<text transform="matrix(1 0 0 1 93.0019 338.0171)" style="fill:#262262;stroke:#000000;stroke-width:0.5;stroke-miterlimit:10; font-family:'Tahoma'; font-size:24;">C</text>
<text transform="matrix(1 0 0 1 223.2179 275.1272)" style="fill:#262262;stroke:#000000;stroke-width:0.5;stroke-miterlimit:10; font-family:'Tahoma'; font-size:18;">E</text>
<text transform="matrix(1 0 0 1 322.3541 189.9236)" style="fill:#262262;stroke:#000000;stroke-width:0.5;stroke-miterlimit:10; font-family:'Tahoma'; font-size:18;">D</text>
<text transform="matrix(1 0 0 1 363.4219 189.9238)" style="fill:#262262;stroke:#000000;stroke-width:0.5;stroke-miterlimit:10; font-family:'Tahoma'; font-size:18;">AD</text>
<text transform="matrix(1 0 0 1 441.7979 322.0494)" style="fill:#262262;stroke:#000000;stroke-width:0.5;stroke-miterlimit:10; font-family:'Tahoma'; font-size:18;">ACE</text>
<text transform="matrix(1 0 0 1 486.0533 397.7472)" style="fill:#262262;stroke:#000000;stroke-width:0.5;stroke-miterlimit:10; font-family:'Tahoma'; font-size:18;">ACDE</text>
<text transform="matrix(1 0 0 1 480.7498 427.6366)" style="fill:#262262;stroke:#000000;stroke-width:0.5;stroke-miterlimit:10; font-family:'Tahoma'; font-size:18;">ABCDE</text>
<text transform="matrix(1 0 0 1 436.494 492.8208)" style="fill:#262262;stroke:#000000;stroke-width:0.5;stroke-miterlimit:10; font-family:'Tahoma'; font-size:18;">ABCE</text>
<text transform="matrix(1 0 0 1 465.4495 271.2468)" style="fill:#262262;stroke:#000000;stroke-width:0.5;stroke-miterlimit:10; font-family:'Tahoma'; font-size:18;">AE</text>
<text transform="matrix(1 0 0 1 516.3302 362.6445)" style="fill:#262262;stroke:#000000;stroke-width:0.5;stroke-miterlimit:10; font-family:'Tahoma'; font-size:18;">ACD</text>
<text transform="matrix(1 0 0 1 503.7057 459.9592)" style="fill:#262262;stroke:#000000;stroke-width:0.5;stroke-miterlimit:10; font-family:'Tahoma'; font-size:18;">ABCD</text>
<text transform="matrix(1 0 0 1 359.2625 444.4265)" style="fill:#FFFFFF;stroke:#000000;stroke-width:0.5;stroke-miterlimit:10; font-family:'Tahoma'; font-size:36;">ABCDE</text>
<circle style="opacity:0.2;fill:#FFF200;stroke:#010101;stroke-width:2;" cx="58.2" cy="155.5" r="6.9"/>
<circle style="opacity:0.2;fill:#2E3192;stroke:#010101;stroke-width:2;" cx="58.2" cy="174.2" r="6.9"/>
<circle style="opacity:0.2;fill:#ED1C24;stroke:#010101;stroke-width:2;" cx="58.2" cy="192.9" r="6.9"/>
<circle style="opacity:0.2;fill:#58595B;stroke:#010101;stroke-width:2;" cx="58.2" cy="211.7" r="6.9"/>
<circle style="opacity:0.2;fill:#3C2415;stroke:#010101;stroke-width:2;" cx="58.2" cy="231.1" r="6.9"/>
</svg>
