<?xml version="1.0" encoding="utf-8"?>
<!-- Generator: Adobe Illustrator 18.1.1, SVG Export Plug-In . SVG Version: 6.00 Build 0)  -->
<svg version="1.1" id="Text" xmlns="http://www.w3.org/2000/svg" xmlns:xlink="http://www.w3.org/1999/xlink" x="0px" y="0px"
	 viewBox="0 0 700 700" style="enable-background:new 0 0 700 700;" xml:space="preserve">
<g style="opacity:0.2;">
	<path style="fill:#2E3192;stroke:#000000;stroke-width:2;stroke-linecap:round;stroke-linejoin:round;stroke-miterlimit:10;" d="
		M101,333.1c1.4,16.9,9.2,28.6,13.1,34.3c4.1,6,15.9,23.4,36.4,29.6c24.5,7.4,40.3-10.7,60.9,0.9c3.4,1.9,8,4.6,10.2,9.9
		c4.2,10.4-6.8,17.3-5.9,31.8c0.7,11.8,9,22.6,17.8,27.5c4.3,2.4,8.8,3.4,17.9,4.8c14,2.2,14.8,0.6,21.4,2.7
		c11.2,3.6,18.2,11.1,20.3,13.5c6.1,6.8,4.7,9.3,11.1,18.2c5.8,7.9,11.1,15.2,20.2,18.6c11.3,4.3,27,2.1,35.2-6.8
		c8-8.7,3.7-17.9,12.2-24.7c6.7-5.3,15.4-4.5,21-4c15.2,1.4,26.3,10.1,43.5,24c9.9,8,7.6,7.4,11.5,9.7c18.2,10.9,45.3,8.1,62-5.5
		c7.2-5.9,11.4-12.8,12.4-14.4c3.5-5.9,5.7-12.5,6.8-19.5c2-12.9-1.7-25.2-7.8-36.8c-11.5-21.9-11.2-43.6,0.7-65.6
		c5.8-10.7,13.4-19.3,23.6-25.4c3.4-2,7.2-3.3,10.9-4.6c33.9-11.1,56.3-33.6,67.7-67.4c2.5-7.5,6.2-22.2,4.8-40.8
		c-0.8-10.4-3.3-38.5-25.8-62.6c-23.2-24.8-52.2-28.9-59.9-29.9c-12.3-1.7-23.1-0.8-27-0.3c-10.5,1.2-20.7,3.2-30.1,7.5
		c-11.5,5.2-22.4,11.3-31.5,20.9c-18.7,19.7-23,26-40.2,42.4c-15.5,14.9-29.7,23.7-37.5,28.4c-39,23.8-83,29.3-83,29.3
		c-0.7,0.1-1.8,0.2-3.1,0.4c-11.1,1.3-40.9,4.6-73.2-2.5c-18.2-4-14-6.3-28.3-8.8c-14.9-2.7-46.1-8.4-68.5,11.7
		C98.6,299.1,100.7,329.9,101,333.1z"/>
</g>
<path style="fill:#716B6B;stroke:#000000;stroke-width:2;stroke-linecap:round;stroke-linejoin:round;stroke-miterlimit:10;" d="
	M244,440.1"/>
<g style="opacity:0.2;">
	<path style="fill:#ED1C24;stroke:#000000;stroke-width:2;stroke-linecap:round;stroke-linejoin:round;stroke-miterlimit:10;" d="
		M206,145.8c-8.8,18.1-4.3,41.9,3.6,56.9c0.1,0.2,0-0.1,16,22.2l0,0c9.4,11.7,14.2,17.5,15.8,22c3.9,10.7-4.1,24.5-11.1,31.5
		c-6.2,6.2-9.4,4.7-20.4,13.9c-8,6.7-11.9,10-13,15.3c-0.6,3.2-0.5,6.3,7.4,24.8c4,9.3,7.7,17,8.5,19.8c2.5,8.8,0.4,16.5-11.4,43.1
		c-15.6,35.1-20.9,41.7-19.3,55.2c0.4,3.7,2,17.6,12,23.1c7.1,3.9,15.1,1.9,18.6,1c15.2-3.8,16.4-14.7,28.6-17.6
		c10.5-2.5,25.1,2.1,28.6,10.5c4.9,11.8-11.6,28.9-12.4,43.6c-0.3,5.9,0.6,10,2.1,16.3c1.3,5.6,9.1,40.5,36.2,50.6
		c8.7,3.3,16.8,3.3,18.7,3.3c6.9,0,13.6-1.4,20.3-4.1c12.1-4.9,20.8-14.2,27.8-25.4c13-21,31.9-31.8,56.9-32.7
		c12.2-0.4,23.4,1.7,33.9,7.5c3.4,1.9,6.5,4.5,9.5,7.1c26.8,23.5,57.5,31.4,92.4,24.1c7.7-1.6,22.3-5.9,37.6-16.6
		c8.6-5.9,31.5-22.4,40.8-54c9.6-32.6-1.6-59.7-4.6-66.8c-4.7-11.4-11.1-20.4-13.4-23.4c-6.4-8.4-13.2-16.2-21.7-22.2
		c-10.3-7.3-21.1-13.5-34-16.5c-26.5-6.1-34.1-6.6-57-13.1c-20.7-5.8-35.5-13.6-43.5-17.9c-40.3-21.5-67.4-56.7-67.4-56.7
		c-0.4-0.6-1.1-1.4-1.9-2.5c-6.8-8.9-24.7-32.9-35-64.3c-5.8-17.8-1.7-15.2-6.7-28.8c-14.3-38.9-44.8-53.1-44.8-53.1
		C271.2,106.5,220.8,115.2,206,145.8z"/>
</g>
<g style="opacity:0.2;">
	<path style="fill:#58595B;stroke:#000000;stroke-width:2;stroke-linecap:round;stroke-linejoin:round;stroke-miterlimit:10;" d="
		M507.6,152.1c-15-7.7-29.1-7.4-36-7.1c-7.9,0.3-28.8,1-44.4,15.1c-15.3,13.8-11.6,27.9-32.8,47.5c-7.2,6.7-11.2,8.3-15.1,8.6
		c-9.1,0.6-12.8-6.9-30.1-16c-11-5.8-18.2-9.6-25.4-7c-3.7,1.3-7,5.1-13.6,12.6c-9.3,10.7-8.4,12.2-13.7,16.7
		c-9,7.6-19.1,9.5-22.2,10c-9,1.6-10.4-1-21.3-0.2c-9.8,0.7-18.8,1.3-26.5,7.2c-9.6,7.3-15.5,21.5-13,33.4
		c2.3,10.8,9.8,11.6,12.1,25.5c1.6,9.4-0.6,16.1-1.2,17.7c-0.5,1.5-2.3,6.4-6.4,10.7c-8.1,8.6-17.8,7-41.4,13.5
		c-8,2.2-12,3.3-14.3,4.5c-19,9.6-30.9,34.1-28.3,55.4c1.1,9.2,4.8,16.5,5.7,18.2c3.2,6.1,7.5,11.5,13,16.1c9.9,8.5,22.2,12,35.3,13
		c24.6,1.9,42.9,13.7,55.2,35.5c6,10.6,9.2,21.5,9,33.5c-0.1,3.9-1,7.9-1.9,11.7c-8.6,34.6-1.4,65.5,21.1,93.1
		c5,6.1,15.5,17.1,32,25.8c9.2,4.9,34.4,17.7,66.7,11.4c33.3-6.4,52.2-28.9,57.2-34.8c8-9.5,13-19.2,14.6-22.7
		c4.5-9.6,8.3-19.2,9.7-29.5c1.7-12.5,2.3-25-1-37.8c-6.8-26.3-9.8-33.3-14.6-56.6c-4.4-21.1-4.2-37.8-4.1-46.8
		c0.6-45.7,19.3-85.9,19.3-85.9c0.3-0.6,0.8-1.7,1.3-2.9c4.8-10.1,17.8-37.1,41-60.6c13.1-13.3,12.7-8.6,22.5-19.2
		c10.2-11.2,31.6-34.6,26.5-64.3C537.6,168.1,510.4,153.5,507.6,152.1z"/>
</g>
<g style="opacity:0.2;">
	<path style="fill:#3C2415;stroke:#000000;stroke-width:2;stroke-linecap:round;stroke-linejoin:round;stroke-miterlimit:10;" d="
		M608.8,382.4c-1.3-16.9-8.9-28.7-12.7-34.4c-3.9-5.8-15.4-23.3-36.1-30c-24.5-7.9-36.4,7.4-55.5-3.9c-1.8-1.1-15.8-9.6-18.9-24.1
		c-1.2-5.6,0.4-6.6-0.5-17.5c-1-12.5-1.5-20.7-7.3-25.3c-3-2.4-8-3.3-17.9-5c-14-2.4-14.8-0.8-21.3-2.9
		c-11.2-3.7-18.1-11.3-20.2-13.7c-6.1-6.9-4.6-9.4-10.9-18.3c-5.7-8-11-15.3-20-18.8c-11.3-4.4-26.4-2-35.2,6.4
		c-8,7.6-4.7,14.4-15.4,23.7c-7.2,6.3-14,7.9-15.8,8.2c-1.6,0.3-6.7,1.3-12.4,0.2c-11.6-2.4-15.3-11.5-33.2-28.2
		c-6.1-5.6-9.1-8.5-11.4-9.9c-18.1-11.1-45.2-8.5-62,4.9c-7.3,5.8-11.5,12.7-12.5,14.3c-3.5,5.9-5.8,12.4-7,19.5
		c-2.1,12.9,1.4,25.2,7.4,36.9c11.3,22,10.8,43.8-1.4,65.6c-5.9,10.6-13.5,19.1-23.9,25.2c-3.4,2-7.2,3.3-11,4.5
		c-34,10.8-56.6,33.1-68.3,66.7c-2.6,7.5-6.4,22.2-5.2,40.8c0.7,10.4,3,38.6,25.2,62.8c22.9,25,52,29.4,59.6,30.5
		c12.2,1.8,23.1,1,27,0.6c10.5-1.1,20.7-3,30.2-7.2c11.6-5.1,22.5-11.1,31.7-20.6c18.9-19.6,23.2-25.8,40.6-42.1
		c15.7-14.8,30-23.4,37.7-28c39.2-23.4,83.3-28.5,83.3-28.5c0.7-0.1,1.8-0.2,3.1-0.4c11.1-1.2,40.9-4.2,73.1,3.2
		c18.2,4.2,14,6.4,28.2,9.1c14.9,2.8,46,8.8,68.6-11C610.9,416.4,609.1,385.6,608.8,382.4z"/>
</g>
<g style="opacity:0.2;">
	<path style="fill:#9E1F63;stroke:#000000;stroke-width:2;stroke-linecap:round;stroke-linejoin:round;stroke-miterlimit:10;" d="
		M460.9,583.8c13.7-10,19.6-22.7,22.5-29c3.4-7.4,12.1-26.5,6.4-46.5c-6.1-21.5-23.3-24.6-27.3-49.5c-1-6-1.7-11.1,0.5-16.7
		c4.3-10.7,17.1-18.1,29.6-25.3c3.6-2.1,12.2-6.8,13.7-14.9c0.1-0.3,0.1-0.6,0.1-0.8c0.9-7.4-2.6-13.3-5.2-17.8
		c-4.2-7.5-6.9-14-7.7-16.1c-4-10.8-1.7-20.9-0.1-28c3.3-14.4,8.6-17.4,25.9-45.2c12.1-19.5,17-30.1,16.4-41.8
		c-0.2-3.8-0.6-11.3-6.2-16.9c-1-1-4.8-4.6-10.7-5.3c-5-0.7-10.4,0.8-18.2,6.7c-18.6,13.8-17.1,26.9-29,30.1
		c-9.1,2.5-18.2-3.1-22.3-5.5c-4-2.3-12.5-7.4-14.4-15.9c-2.3-10.2,7.2-15.1,10.1-30.5c1.8-9.3,0-16.6-2-25.2
		c-1.2-5-9.6-40.9-36.9-50.9c-8.7-3.2-17.4-3.1-18.8-3.1c-6.9,0.1-13.6,1.6-20.2,4.4c-12,5-20.6,14.5-27.4,25.8
		c-12.7,21.2-31.5,32.3-56.4,33.5c-12.2,0.6-23.4-1.4-34-7c-3.5-1.8-6.6-4.4-9.6-7c-27.1-23.2-58-30.6-92.7-22.8
		c-7.7,1.7-22.2,6.3-37.4,17.1c-8.5,6.1-31.2,22.9-40.1,54.5c-9.2,32.7,2.5,59.6,5.5,66.7c4.9,11.4,11.3,20.2,13.7,23.2
		c6.5,8.3,13.5,16,22,21.9c10.4,7.2,21.3,13.2,34.2,16c26.6,5.7,34.1,6.1,57.1,12.3c20.8,5.5,35.7,13.1,43.7,17.3
		c40.6,21,68.2,55.7,68.2,55.7c0.4,0.6,1.1,1.4,2,2.5c6.9,8.8,25.2,32.5,35.9,63.8c6,17.7,1.9,15.2,7.1,28.7
		c5.4,14.2,16.8,43.7,45.6,52.5C433.2,603.5,458.3,585.7,460.9,583.8z"/>
</g>
<g style="opacity:0.2;">
	<path style="fill:#FFF200;stroke:#000000;stroke-width:2;stroke-linecap:round;stroke-linejoin:round;stroke-miterlimit:10;" d="
		M203.3,561.2c15.3,7.2,29.3,6.3,36.2,5.8c7.2-0.5,28.1-2,43.9-16.7c3.8-3.5,4-4.7,28-43.9c6.4-10.5,9.7-15.7,14.8-16.5
		c8.8-1.4,12.4,9.8,31.3,18.8c8,3.8,18.2,8.6,28,4.8c5.4-2.1,11-6.9,14.6-11.1c7.8-9.1,4.7-12.3,11.6-19.1c0,0,8.3-7.9,21.8-10.8
		c9-1.9,10.4,0.6,21.3-0.5c7.5-0.8,19.7-1.8,26.2-8.1c9.1-8.9,5.2-26.6,3.6-33.6c-3.7-16.7-11-17.7-10.1-29.8
		c0.6-7.5,4.1-17.3,11.8-24.1c7.3-6.5,12.4-6,40.9-15c7.9-2.5,11.8-3.7,14.2-5c18.6-10.3,29.6-35.1,26.3-56.4
		c-1.4-9.2-5.4-16.3-6.3-17.9c-3.4-6-8-11.2-13.5-15.6c-10.2-8.1-22.6-11.2-35.8-11.7c-24.7-1-43.4-12.1-56.4-33.5
		c-6.3-10.4-10-21.2-10.2-33.2c-0.1-3.9,0.7-7.9,1.5-11.8c7.3-34.9-0.9-65.5-24.5-92.3c-5.2-5.9-16.2-16.5-32.9-24.6
		c-9.4-4.5-35-16.4-67.1-9c-33.1,7.6-51.2,30.8-55.9,36.9c-7.6,9.8-12.3,19.6-13.8,23.2c-4.2,9.7-7.6,19.5-8.6,29.8
		c-1.3,12.6-1.4,25,2.4,37.7c7.7,26.1,11,32.9,16.6,56c5.1,20.9,5.6,37.6,5.8,46.6c1.1,45.6-16.2,86.5-16.2,86.5
		c-0.3,0.7-0.7,1.7-1.2,2.9c-4.4,10.3-16.5,37.7-38.8,62.1c-12.6,13.8-12.4,9-21.8,20c-9.8,11.6-30.3,35.7-24.2,65.2
		C172.7,546.3,200.4,559.8,203.3,561.2z"/>
</g>
<text transform="matrix(1 0 0 1 568.4863 512.6367)" style="fill:#282560;stroke:#231F20;stroke-width:0.5;stroke-miterlimit:10; font-family:'Tahoma'; font-size:32;">C</text>
<text transform="matrix(1 0 0 1 342.0303 642.6318)" style="fill:#282560;stroke:#231F20;stroke-width:0.5;stroke-miterlimit:10; font-family:'Tahoma'; font-size:32;">D</text>
<text transform="matrix(1 0 0 1 109.584 487.7969)" style="fill:#282560;stroke:#231F20;stroke-width:0.5;stroke-miterlimit:10; font-family:'Tahoma'; font-size:32;">E</text>
<text transform="matrix(1 0 0 1 106.7734 234.9976)" style="fill:#282560;stroke:#231F20;stroke-width:0.5;stroke-miterlimit:10; font-family:'Tahoma'; font-size:32;">F</text>
<text transform="matrix(1 0 0 1 342.6406 99.6006)" style="fill:#282560;stroke:#231F20;stroke-width:0.5;stroke-miterlimit:10; font-family:'Tahoma'; font-size:32;">A</text>
<text transform="matrix(1 0 0 1 568.665 243.5405)" style="fill:#282560;stroke:#231F20;stroke-width:0.5;stroke-miterlimit:10; font-family:'Tahoma'; font-size:32;">B</text>
<text transform="matrix(1 0 0 1 140.793 315.8789)" style="fill:#282560;stroke:#231F20;stroke-width:0.5;stroke-miterlimit:10; font-family:'Tahoma'; font-size:12;">BF</text>
<text transform="matrix(1 0 0 1 201.7651 515.3428)" style="fill:#282560;stroke:#231F20;stroke-width:0.5;stroke-miterlimit:10; font-family:'Tahoma'; font-size:12;">AE</text>
<text transform="matrix(1 0 0 1 198.1758 235.7031)" style="fill:#282560;stroke:#231F20;stroke-width:0.5;stroke-miterlimit:10; font-family:'Tahoma'; font-size:12;">EF</text>
<text transform="matrix(1 0 0 1 409.3047 571.0391)" style="fill:#282560;stroke:#231F20;stroke-width:0.5;stroke-miterlimit:10; font-family:'Tahoma'; font-size:12;">DF</text>
<text transform="matrix(1 0 0 1 314.4385 561.8818)" style="fill:#282560;stroke:#231F20;stroke-width:0.5;stroke-miterlimit:10; font-family:'Tahoma'; font-size:12;">CD</text>
<text transform="matrix(1 0 0 1 280.4595 164.4956)" style="fill:#282560;stroke:#231F20;stroke-width:0.5;stroke-miterlimit:10; font-family:'Tahoma'; font-size:12;">AC</text>
<text transform="matrix(1 0 0 1 376.1533 171.9478)" style="fill:#282560;stroke:#231F20;stroke-width:0.5;stroke-miterlimit:10; font-family:'Tahoma'; font-size:12;">AF</text>
<text transform="matrix(1 0 0 1 491.8301 215.0034)" style="fill:#282560;stroke:#231F20;stroke-width:0.5;stroke-miterlimit:10; font-family:'Tahoma'; font-size:12;">BD</text>
<text transform="matrix(1 0 0 1 536.166 301.814)" style="fill:#282560;stroke:#231F20;stroke-width:0.5;stroke-miterlimit:10; font-family:'Tahoma'; font-size:12;">AB</text>
<text transform="matrix(1 0 0 1 564.4297 340.8955)" style="fill:#282560;stroke:#231F20;stroke-width:0.5;stroke-miterlimit:10; font-family:'Tahoma'; font-size:12;">BE</text>
<text transform="matrix(1 0 0 1 518.1973 338.3242)" style="fill:#282560;stroke:#231F20;stroke-width:0.5;stroke-miterlimit:10; font-family:'Tahoma'; font-size:12;">ABE</text>
<text transform="matrix(1 0 0 1 248.4248 559.2266)" style="fill:#282560;stroke:#231F20;stroke-width:0.5;stroke-miterlimit:10; font-family:'Tahoma'; font-size:12;">AD</text>
<text transform="matrix(1 0 0 1 245.0581 485.0918)" style="fill:#282560;stroke:#231F20;stroke-width:0.5;stroke-miterlimit:10; font-family:'Tahoma'; font-size:12;">ADE</text>
<text transform="matrix(1 0 0 1 195.4565 468.1885)" style="fill:#282560;stroke:#231F20;stroke-width:0.5;stroke-miterlimit:10; font-family:'Tahoma'; font-size:12;">ACE</text>
<text transform="matrix(1 0 0 1 196.3374 419.3535)" style="fill:#282560;stroke:#231F20;stroke-width:0.5;stroke-miterlimit:10; font-family:'Tahoma'; font-size:12;">CDE</text>
<text transform="matrix(1 0 0 1 207.3599 395.7656)" style="fill:#282560;stroke:#231F20;stroke-width:0.5;stroke-miterlimit:10; font-family:'Tahoma'; font-size:12;">BCDE</text>
<text transform="matrix(1 0 0 1 264.0967 494.5273)" style="fill:#282560;stroke:#231F20;stroke-width:0.5;stroke-miterlimit:10; font-family:'Tahoma'; font-size:12;">ACDE</text>
<text transform="matrix(1 0 0 1 267.4629 537.4082)" style="fill:#282560;stroke:#231F20;stroke-width:0.5;stroke-miterlimit:10; font-family:'Tahoma'; font-size:12;">ACD</text>
<text transform="matrix(1 0 0 1 489.166 433.3662)" style="fill:#282560;stroke:#231F20;stroke-width:0.5;stroke-miterlimit:10; font-family:'Tahoma'; font-size:12;">BCE</text>
<text transform="matrix(1 0 0 1 496.3887 360.5557)" style="fill:#282560;stroke:#231F20;stroke-width:0.5;stroke-miterlimit:10; font-family:'Tahoma'; font-size:12;">ABCE</text>
<text transform="matrix(1 0 0 1 468.0518 326.5825)" style="fill:#282560;stroke:#231F20;stroke-width:0.5;stroke-miterlimit:10; font-family:'Tahoma'; font-size:12;">ABEF</text>
<text transform="matrix(1 0 0 1 497.5625 291.6636)" style="fill:#282560;stroke:#231F20;stroke-width:0.5;stroke-miterlimit:10; font-family:'Tahoma'; font-size:12;">ABF</text>
<text transform="matrix(1 0 0 1 439.0234 237.0552)" style="fill:#282560;stroke:#231F20;stroke-width:0.5;stroke-miterlimit:10; font-family:'Tahoma'; font-size:12;">ABD</text>
<text transform="matrix(1 0 0 1 416.1748 223.9663)" style="fill:#282560;stroke:#231F20;stroke-width:0.5;stroke-miterlimit:10; font-family:'Tahoma'; font-size:12;">ABDF</text>
<text transform="matrix(1 0 0 1 502.4629 247.0854)" style="fill:#282560;stroke:#231F20;stroke-width:0.5;stroke-miterlimit:10; font-family:'Tahoma'; font-size:12;">BDF</text>
<text transform="matrix(1 0 0 1 412.9141 194.2314)" style="fill:#282560;stroke:#231F20;stroke-width:0.5;stroke-miterlimit:10; font-family:'Tahoma'; font-size:12;">ADF</text>
<text transform="matrix(1 0 0 1 329.52 189.1777)" style="fill:#282560;stroke:#231F20;stroke-width:0.5;stroke-miterlimit:10; font-family:'Tahoma'; font-size:12;">ACF</text>
<text transform="matrix(1 0 0 1 226.8521 215.0029)" style="fill:#282560;stroke:#231F20;stroke-width:0.5;stroke-miterlimit:10; font-family:'Tahoma'; font-size:12;">CEF</text>
<text transform="matrix(1 0 0 1 218.0903 260.4702)" style="fill:#282560;stroke:#231F20;stroke-width:0.5;stroke-miterlimit:10; font-family:'Tahoma'; font-size:12;">DEF</text>
<text transform="matrix(1 0 0 1 239.2183 274.7461)" style="fill:#282560;stroke:#231F20;stroke-width:0.5;stroke-miterlimit:10; font-family:'Tahoma'; font-size:12;">CDEF</text>
<text transform="matrix(1 0 0 1 195.9927 284.377)" style="fill:#282560;stroke:#231F20;stroke-width:0.5;stroke-miterlimit:10; font-family:'Tahoma'; font-size:12;">BEF</text>
<text transform="matrix(1 0 0 1 199.1523 311.186)" style="fill:#282560;stroke:#231F20;stroke-width:0.5;stroke-miterlimit:10; font-family:'Tahoma'; font-size:12;">BCEF</text>
<text transform="matrix(1 0 0 1 176.9326 362.5615)" style="fill:#282560;stroke:#231F20;stroke-width:0.5;stroke-miterlimit:10; font-family:'Tahoma'; font-size:12;">BDEF</text>
<text transform="matrix(1 0 0 1 263.0688 223.9658)" style="fill:#282560;stroke:#231F20;stroke-width:0.5;stroke-miterlimit:10; font-family:'Tahoma'; font-size:12;">ACEF</text>
<text transform="matrix(1 0 0 1 370.7227 230.4976)" style="fill:#282560;stroke:#231F20;stroke-width:0.5;stroke-miterlimit:10; font-family:'Tahoma'; font-size:12;">ADEF</text>
<text transform="matrix(1 0 0 1 366.1436 204.3379)" style="fill:#282560;stroke:#231F20;stroke-width:0.5;stroke-miterlimit:10; font-family:'Tahoma'; font-size:12;">AEF</text>
<text transform="matrix(1 0 0 1 448.8076 258.1265)" style="fill:#282560;stroke:#231F20;stroke-width:0.5;stroke-miterlimit:10; font-family:'Tahoma'; font-size:12;">ABDE</text>
<text transform="matrix(1 0 0 1 462.3018 454.8125)" style="fill:#282560;stroke:#231F20;stroke-width:0.5;stroke-miterlimit:10; font-family:'Tahoma'; font-size:12;">ABC</text>
<text transform="matrix(1 0 0 1 433.3193 453.46)" style="fill:#282560;stroke:#231F20;stroke-width:0.5;stroke-miterlimit:10; font-family:'Tahoma'; font-size:12;">ABCF</text>
<text transform="matrix(1 0 0 1 449.7002 506.0908)" style="fill:#282560;stroke:#231F20;stroke-width:0.5;stroke-miterlimit:10; font-family:'Tahoma'; font-size:12;">BCF</text>
<text transform="matrix(1 0 0 1 368.749 506.0908)" style="fill:#282560;stroke:#231F20;stroke-width:0.5;stroke-miterlimit:10; font-family:'Tahoma'; font-size:12;">ACDF</text>
<text transform="matrix(1 0 0 1 308.6577 486.4453)" style="fill:#282560;stroke:#231F20;stroke-width:0.5;stroke-miterlimit:10; font-family:'Tahoma'; font-size:12;">ABCD</text>
<text transform="matrix(1 0 0 1 319.0933 515.3428)" style="fill:#282560;stroke:#231F20;stroke-width:0.5;stroke-miterlimit:10; font-family:'Tahoma'; font-size:12;">BCD</text>
<text transform="matrix(1 0 0 1 256.937 446.1064)" style="fill:#282560;stroke:#231F20;stroke-width:0.5;stroke-miterlimit:10; font-family:'Tahoma'; font-size:12;">ABCDE</text>
<text transform="matrix(1 0 0 1 219.3442 342.9282)" style="fill:#282560;stroke:#231F20;stroke-width:0.5;stroke-miterlimit:10; font-family:'Tahoma'; font-size:12;">BCDEF</text>
<text transform="matrix(1 0 0 1 307.126 252.3442)" style="fill:#282560;stroke:#231F20;stroke-width:0.5;stroke-miterlimit:10; font-family:'Tahoma'; font-size:12;">ACDEF</text>
<text transform="matrix(1 0 0 1 160.3486 386.2842)" style="fill:#282560;stroke:#231F20;stroke-width:0.5;stroke-miterlimit:10; font-family:'Tahoma'; font-size:12;">BDE</text>
<text transform="matrix(1 0 0 1 371.9766 468.1885)" style="fill:#282560;stroke:#231F20;stroke-width:0.5;stroke-miterlimit:10; font-family:'Tahoma'; font-size:12;">ABCDF</text>
<text transform="matrix(1 0 0 1 451.0078 366.4414)" style="fill:#282560;stroke:#231F20;stroke-width:0.5;stroke-miterlimit:10; font-family:'Tahoma'; font-size:12;">ABCEF</text>
<text transform="matrix(1 0 0 1 419.2051 284.377)" style="fill:#282560;stroke:#231F20;stroke-width:0.5;stroke-miterlimit:10; font-family:'Tahoma'; font-size:12;">ABDEF</text>
<text transform="matrix(1 0 0 1 409.3721 493.2363)" style="fill:#282560;stroke:#231F20;stroke-width:0.5;stroke-miterlimit:10; font-family:'Tahoma'; font-size:12;">BCDF</text>
<text transform="matrix(1 0 0 1 400.8662 515.3418)" style="fill:#282560;stroke:#231F20;stroke-width:0.5;stroke-miterlimit:10; font-family:'Tahoma'; font-size:12;">CDF</text>
<text transform="matrix(1 0 0 1 205.4985 183.4102)" style="fill:#282560;stroke:#231F20;stroke-width:0.5;stroke-miterlimit:10; font-family:'Tahoma'; font-size:12;">CF</text>
<text transform="matrix(1 0 0 1 552.082 412.8926)" style="fill:#282560;stroke:#231F20;stroke-width:0.5;stroke-miterlimit:10; font-family:'Tahoma'; font-size:12;">CE</text>
<text transform="matrix(1 0 0 1 495.2373 487.7979)" style="fill:#282560;stroke:#231F20;stroke-width:0.5;stroke-miterlimit:10; font-family:'Tahoma'; font-size:12;">BC</text>
<text transform="matrix(1 0 0 1 163.8848 427.3545)" style="fill:#282560;stroke:#231F20;stroke-width:0.5;stroke-miterlimit:10; font-family:'Tahoma'; font-size:12;">DE</text>
<text transform="matrix(1 0 0 1 273.9868 361.123)" style="fill:#FFFFFF;stroke:#231F20;stroke-width:0.5;stroke-miterlimit:10; font-family:'Tahoma'; font-size:46;">ABCDEF</text>
<text transform="matrix(1 0 0 1 519.8329 133.1738)" style="fill:#262262;stroke:#000000;stroke-width:0.5;stroke-miterlimit:10; font-family:'Tahoma'; font-size:30;">NameB</text>
<text transform="matrix(1 0 0 1 520.8292 602.4657)" style="fill:#262262;stroke:#000000;stroke-width:0.5;stroke-miterlimit:10; font-family:'Tahoma'; font-size:30;">NameC</text>
<text transform="matrix(1 0 0 1 301.4478 690.6956)" style="fill:#262262;stroke:#000000;stroke-width:0.5;stroke-miterlimit:10; font-family:'Tahoma'; font-size:30;">NameD</text>
<text transform="matrix(1 0 0 1 304.8614 34.0233)" style="fill:#262262;stroke:#000000;stroke-width:0.5;stroke-miterlimit:10; font-family:'Tahoma'; font-size:30;">NameA</text>
<text transform="matrix(1 0 0 1 54.6058 144.847)" style="fill:#262262;stroke:#000000;stroke-width:0.5;stroke-miterlimit:10; font-family:'Tahoma'; font-size:30;">NameF</text>
<text transform="matrix(1 0 0 1 54.0124 602.4655)" style="fill:#262262;stroke:#000000;stroke-width:0.5;stroke-miterlimit:10; font-family:'Tahoma'; font-size:30;">NameE</text>
</svg>
