<?xml version="1.0" encoding="utf-8"?>
<!-- Generator: Adobe Illustrator 19.0.0, SVG Export Plug-In . SVG Version: 6.00 Build 0)  -->
<svg version="1.1" id="Layer_1" xmlns="http://www.w3.org/2000/svg" xmlns:xlink="http://www.w3.org/1999/xlink" x="0px" y="0px"
	 viewBox="40 0 930 850" enable-background="new 40 0 930 850" xml:space="preserve">
<g id="Area_A">
	<path opacity="0.2" fill="#7F1416" stroke="#000000" stroke-width="3" stroke-miterlimit="10" enable-background="new    " d="
		M515,34.5c64.4-11.3,187.1,22.6,234,99c27,44,3.8,61.3-12,88c-16,27-51,42-56,58s-5,16-5,16s4,29,18,41s129,60,154,91s33,37,5,69
		s-139,40-191,63s-67,51-36,85s44,38,83,35s50,13,27,49s-89.9,39.6-138,27c-42-11-130-56-154-85s-66.4-68.8-36-151
		c27-73-3.7-109-10.8-127c-7.2-18-29.2-16-48.2-38s-17-36,0-56s45-36,27-71S412,52.5,515,34.5z"/>
</g>
<g id="Area_B">
	<path opacity="0.2" fill="#FEDA00" stroke="#000000" stroke-width="3" stroke-miterlimit="10" enable-background="new    " d="
		M479,107.6c-12.7-26.2-33-39-76-36s-139,40-169,82s-54,106-25,179s62,81,81,88s24,28,29,55s14,49,59,41s75-21,124,35s74,100,160,95
		s229-60.6,231-173c0.8-47-39.4-68.7-58-23c-9.1,22.3-29,38-50,38s-69-5-72-34s40.1-128.4,63-185c15.5-38.4,22.5-105-71-84
		c-49,11-94,42-125,49s-31,7-31,7s-39,3-49-36S494,138.6,479,107.6z"/>
</g>
<g id="Area_C">
	<path opacity="0.2" fill="#78C143" stroke="#000000" stroke-width="3" stroke-miterlimit="10" enable-background="new    " d="
		M295,279c-32-24-97-60-134,35s-35,198,0,234s84,66,134,73s58.2,1.5,81-15s54,5.9,74,18c20,12,47,3,57-19s10-22,10-22l0,0
		c0,0,8-65,116-61s141-23,184-134s5-173-21-209s-86-21-59,26s-12,79-23,86s-42,36-84-18s-43-100-91-153s-73.8-40.6-99,23
		c-14.2,35.9-20,86-34,130S339,312,295,279z"/>
</g>
<g id="Area_D">
	<path opacity="0.2" fill="#E7E6AA" stroke="#000000" stroke-width="3" stroke-miterlimit="10" enable-background="new    " d="
		M276,510.1c-51.7,15.2-110,52.8-63,135.4s157,182.6,259,125.6s104-90,103-113s46-42,59-46s45-18.3,26-54s-59.2-81,5.9-153
		s78.9-129,0-238S531.1,62.2,505,62.1c-34-0.1-102.4,39.1-26,64c30.7,10,50,44,50,63s26.2,70.7-71.1,60
		c-68.7-7.6-101.9-16.9-145.9-27c-83-19-114,36-53,109S395.6,475,276,510.1z"/>
</g>
<g id="Area_E">
	<path opacity="0.2" fill="#283277" stroke="#000000" stroke-width="3" stroke-miterlimit="10" enable-background="new    " d="
		M435,682c-22,64,3,145,167.1,129c181.3-17.7,171.7-152.3,172.3-193.6C775,576,763,554,748,540s-19-48-9-68s28-45-29-63
		s-97.2-16.6-109.2-111C588.7,203.6,519,160,397,152s-189,54-189,98s29.2,40.3,62.1,14.7C303,239,332,261,349,276s17,15,17,15
		s38,44-75,129s-150.8,149.6,43.5,151C477,572,458.9,612.4,435,682z"/>
</g>
<g id="Area_F">
	<path opacity="0.2" fill="#4F53A3" stroke="#000000" stroke-width="3" stroke-miterlimit="10" enable-background="new    " d="
		M671,655c28.8,42.6,90.8,113.2,198.7-29c74.3-98,37.4-173,14.3-216c-7.1-13.3-33-38.2-62-62c-20.6-16.9-40-20-62-22
		s-45,3.7-60.2-25.6C684.7,271.2,663,234,609,288s-98,19-140,3s-74.5-52.8-167.8-5.9S179,415,170,455s8.8,86,24.9,106
		s53,33.4,45.4-35c-2.3-21,19-38.8,46.7-53c27.7-14.2,64-33,81,38s-9,138,13,191s80,47,136-29S605.4,557.7,671,655z"/>
</g>
<g id="Area_G">
	<path opacity="0.2" fill="#CA4B9B" stroke="#000000" stroke-width="3" stroke-miterlimit="10" enable-background="new    " d="
		M792,458c48.9,9.6,150,15,106-148S779,139,696,143s-94,22-108,42s-23.7,33.2-54.8,30.9c-31.2-2.2-64.7-13.3-67.2,44.5
		c-2.1,47.6,20,80.5-93,127.5s-110.9,148.4-73,269c17.5,55.7,65.7,97,105,112s71-15,38-49s-41.1-51.3-22-89.7
		C440.1,592,461,569,576,659s144.8,70,154,20.9s-16.5-111.4-25.2-161.5C693,450,758.2,451.3,792,458z"/>
</g>
<g id="Text">
	<text transform="matrix(1 0 0 1 648.4585 112.05)" fill="#262262" font-family="'Tahoma'" font-size="36px">A</text>
	
		<text transform="matrix(1 0 0 1 648.4585 112.05)" fill="none" stroke="#000000" stroke-width="0.5" stroke-miterlimit="10" font-family="'Tahoma'" font-size="36px">A</text>
	<text transform="matrix(1 0 0 1 448.5392 99.0872)" fill="#262262" font-family="'Tahoma'" font-size="10px">ABD</text>
	
		<text transform="matrix(1 0 0 1 448.5392 99.0872)" fill="none" stroke="#000000" stroke-width="0.5" stroke-miterlimit="10" font-family="'Tahoma'" font-size="10px">ABD</text>
	<text transform="matrix(1 0 0 1 390.7687 195.0424)" fill="#262262" font-family="'Tahoma'" font-size="10px">ABE</text>
	
		<text transform="matrix(1 0 0 1 390.7687 195.0424)" fill="none" stroke="#000000" stroke-width="0.5" stroke-miterlimit="10" font-family="'Tahoma'" font-size="10px">ABE</text>
	<text transform="matrix(1 0 0 1 443.0065 199.5314)" fill="#262262" font-family="'Tahoma'" font-size="10px">ABCE</text>
	
		<text transform="matrix(1 0 0 1 443.0065 199.5314)" fill="none" stroke="#000000" stroke-width="0.5" stroke-miterlimit="10" font-family="'Tahoma'" font-size="10px">ABCE</text>
	<text transform="matrix(1 0 0 1 476.1419 240.4931)" fill="#262262" font-family="'Tahoma'" font-size="10px">ABCEG</text>
	
		<text transform="matrix(1 0 0 1 476.1419 240.4931)" fill="none" stroke="#000000" stroke-width="0.5" stroke-miterlimit="10" font-family="'Tahoma'" font-size="10px">ABCEG</text>
	<text transform="matrix(1 0 0 1 424.4365 264.1823)" fill="#262262" font-family="'Tahoma'" font-size="10px">ABCDE</text>
	
		<text transform="matrix(1 0 0 1 424.4365 264.1823)" fill="none" stroke="#000000" stroke-width="0.5" stroke-miterlimit="10" font-family="'Tahoma'" font-size="10px">ABCDE</text>
	<text transform="matrix(1 0 0 1 384.9887 256.1781)" fill="#262262" font-family="'Tahoma'" font-size="10px">ABDE</text>
	
		<text transform="matrix(1 0 0 1 384.9887 256.1781)" fill="none" stroke="#000000" stroke-width="0.5" stroke-miterlimit="10" font-family="'Tahoma'" font-size="10px">ABDE</text>
	<text transform="matrix(1 0 0 1 367.9645 284.4218)" fill="#262262" font-family="'Tahoma'" font-size="10px">ABDEF</text>
	
		<text transform="matrix(1 0 0 1 367.9645 284.4218)" fill="none" stroke="#000000" stroke-width="0.5" stroke-miterlimit="10" font-family="'Tahoma'" font-size="10px">ABDEF</text>
	<text transform="matrix(1 0 0 1 346.9071 275.1728)" fill="#262262" font-family="'Tahoma'" font-size="10px">BDEF</text>
	
		<text transform="matrix(1 0 0 1 346.9071 275.1728)" fill="none" stroke="#000000" stroke-width="0.5" stroke-miterlimit="10" font-family="'Tahoma'" font-size="10px">BDEF</text>
	<text transform="matrix(1 0 0 1 299.9411 242.4933)" fill="#262262" font-family="'Tahoma'" font-size="10px">BDE</text>
	
		<text transform="matrix(1 0 0 1 299.9411 242.4933)" fill="none" stroke="#000000" stroke-width="0.5" stroke-miterlimit="10" font-family="'Tahoma'" font-size="10px">BDE</text>
	<text transform="matrix(1 0 0 1 254.7816 291.8718)" fill="#262262" font-family="'Tahoma'" font-size="10px">BCD</text>
	
		<text transform="matrix(1 0 0 1 254.7816 291.8718)" fill="none" stroke="#000000" stroke-width="0.5" stroke-miterlimit="10" font-family="'Tahoma'" font-size="10px">BCD</text>
	<text transform="matrix(1 0 0 1 233.8984 270.1106)" fill="#262262" font-family="'Tahoma'" font-size="10px">BCDE</text>
	
		<text transform="matrix(1 0 0 1 233.8984 270.1106)" fill="none" stroke="#000000" stroke-width="0.5" stroke-miterlimit="10" font-family="'Tahoma'" font-size="10px">BCDE</text>
	<text transform="matrix(1 0 0 1 209.7225 269.1104)" fill="#262262" font-family="'Tahoma'" font-size="10px">BCE</text>
	
		<text transform="matrix(1 0 0 1 209.7225 269.1104)" fill="none" stroke="#000000" stroke-width="0.5" stroke-miterlimit="10" font-family="'Tahoma'" font-size="10px">BCE</text>
	<text transform="matrix(1 0 0 1 299.0128 270.1104)" fill="#262262" font-family="'Tahoma'" font-size="10px">BD</text>
	
		<text transform="matrix(1 0 0 1 299.0128 270.1104)" fill="none" stroke="#000000" stroke-width="0.5" stroke-miterlimit="10" font-family="'Tahoma'" font-size="10px">BD</text>
	<text transform="matrix(1 0 0 1 537.3253 230.9541)" fill="#262262" font-family="'Tahoma'" font-size="10px">ACDEG</text>
	
		<text transform="matrix(1 0 0 1 537.3253 230.9541)" fill="none" stroke="#000000" stroke-width="0.5" stroke-miterlimit="10" font-family="'Tahoma'" font-size="10px">ACDEG</text>
	<text transform="matrix(1 0 0 1 507.2669 227.0262)" fill="#262262" font-family="'Tahoma'" font-size="10px">ACEG</text>
	
		<text transform="matrix(1 0 0 1 507.2669 227.0262)" fill="none" stroke="#000000" stroke-width="0.5" stroke-miterlimit="10" font-family="'Tahoma'" font-size="10px">ACEG</text>
	<text transform="matrix(1 0 0 1 503.7486 199.5315)" fill="#262262" font-family="'Tahoma'" font-size="10px">ACE</text>
	
		<text transform="matrix(1 0 0 1 503.7486 199.5315)" fill="none" stroke="#000000" stroke-width="0.5" stroke-miterlimit="10" font-family="'Tahoma'" font-size="10px">ACE</text>
	<text transform="matrix(1 0 0 1 532.26 209.0705)" fill="#262262" font-family="'Tahoma'" font-size="10px">ACDE</text>
	
		<text transform="matrix(1 0 0 1 532.26 209.0705)" fill="none" stroke="#000000" stroke-width="0.5" stroke-miterlimit="10" font-family="'Tahoma'" font-size="10px">ACDE</text>
	<text transform="matrix(1 0 0 1 736.9608 176.6326)" fill="#262262" font-family="'Tahoma'" font-size="10px">ACG</text>
	
		<text transform="matrix(1 0 0 1 736.9608 176.6326)" fill="none" stroke="#000000" stroke-width="0.5" stroke-miterlimit="10" font-family="'Tahoma'" font-size="10px">ACG</text>
	<text transform="matrix(1 0 0 1 730.551 195.0426)" fill="#262262" font-family="'Tahoma'" font-size="10px">ABCG</text>
	
		<text transform="matrix(1 0 0 1 730.551 195.0426)" fill="none" stroke="#000000" stroke-width="0.5" stroke-miterlimit="10" font-family="'Tahoma'" font-size="10px">ABCG</text>
	<text transform="matrix(1 0 0 1 794.5945 295.6925)" fill="#262262" font-family="'Tahoma'" font-size="12px">CG</text>
	
		<text transform="matrix(1 0 0 1 794.5945 295.6925)" fill="none" stroke="#000000" stroke-width="0.5" stroke-miterlimit="10" font-family="'Tahoma'" font-size="12px">CG</text>
	<text transform="matrix(1 0 0 1 837.7944 402.2477)" fill="#262262" font-family="'Tahoma'" font-size="12px">FG</text>
	
		<text transform="matrix(1 0 0 1 837.7944 402.2477)" fill="none" stroke="#000000" stroke-width="0.5" stroke-miterlimit="10" font-family="'Tahoma'" font-size="12px">FG</text>
	<text transform="matrix(1 0 0 1 788.5503 477.5615)" fill="#262262" font-family="'Tahoma'" font-size="12px">AF</text>
	
		<text transform="matrix(1 0 0 1 788.5503 477.5615)" fill="none" stroke="#000000" stroke-width="0.5" stroke-miterlimit="10" font-family="'Tahoma'" font-size="12px">AF</text>
	<text transform="matrix(1 0 0 1 807.0215 556.2225)" fill="#262262" font-family="'Tahoma'" font-size="12px">BF</text>
	
		<text transform="matrix(1 0 0 1 807.0215 556.2225)" fill="none" stroke="#000000" stroke-width="0.5" stroke-miterlimit="10" font-family="'Tahoma'" font-size="12px">BF</text>
	<text transform="matrix(1 0 0 1 601.9807 727.4918)" fill="#262262" font-family="'Tahoma'" font-size="12px">AE</text>
	
		<text transform="matrix(1 0 0 1 601.9807 727.4918)" fill="none" stroke="#000000" stroke-width="0.5" stroke-miterlimit="10" font-family="'Tahoma'" font-size="12px">AE</text>
	<text transform="matrix(1 0 0 1 477.5217 741.7651)" fill="#262262" font-family="'Tahoma'" font-size="12px">DE</text>
	
		<text transform="matrix(1 0 0 1 477.5217 741.7651)" fill="none" stroke="#000000" stroke-width="0.5" stroke-miterlimit="10" font-family="'Tahoma'" font-size="12px">DE</text>
	<text transform="matrix(1 0 0 1 744.7089 659.9883)" fill="#262262" font-family="'Tahoma'" font-size="12px">EF</text>
	
		<text transform="matrix(1 0 0 1 744.7089 659.9883)" fill="none" stroke="#000000" stroke-width="0.5" stroke-miterlimit="10" font-family="'Tahoma'" font-size="12px">EF</text>
	<text transform="matrix(1 0 0 1 731.6914 295.3453)" fill="#262262" font-family="'Tahoma'" font-size="12px">BCG</text>
	
		<text transform="matrix(1 0 0 1 731.6914 295.3453)" fill="none" stroke="#000000" stroke-width="0.5" stroke-miterlimit="10" font-family="'Tahoma'" font-size="12px">BCG</text>
	<text transform="matrix(1 0 0 1 626.518 340.5334)" fill="#262262" font-family="'Tahoma'" font-size="12px">ABCDFG</text>
	
		<text transform="matrix(1 0 0 1 626.518 340.5334)" fill="none" stroke="#000000" stroke-width="0.5" stroke-miterlimit="10" font-family="'Tahoma'" font-size="12px">ABCDFG</text>
	<text transform="matrix(1 0 0 1 518.533 284.4216)" fill="#262262" font-family="'Tahoma'" font-size="12px">ABCDEG</text>
	
		<text transform="matrix(1 0 0 1 518.533 284.4216)" fill="none" stroke="#000000" stroke-width="0.5" stroke-miterlimit="10" font-family="'Tahoma'" font-size="12px">ABCDEG</text>
	<text transform="matrix(1 0 0 1 396.5053 323.7971)" fill="#262262" font-family="'Tahoma'" font-size="12px">ABCDEF</text>
	
		<text transform="matrix(1 0 0 1 396.5053 323.7971)" fill="none" stroke="#000000" stroke-width="0.5" stroke-miterlimit="10" font-family="'Tahoma'" font-size="12px">ABCDEF</text>
	<text transform="matrix(1 0 0 1 652.4215 467.1723)" fill="#262262" font-family="'Tahoma'" font-size="12px">ABCEFG</text>
	
		<text transform="matrix(1 0 0 1 652.4215 467.1723)" fill="none" stroke="#000000" stroke-width="0.5" stroke-miterlimit="10" font-family="'Tahoma'" font-size="12px">ABCEFG</text>
	<text transform="matrix(1 0 0 1 567.1579 565.3593)" fill="#262262" font-family="'Tahoma'" font-size="12px">ABDEFG</text>
	
		<text transform="matrix(1 0 0 1 567.1579 565.3593)" fill="none" stroke="#000000" stroke-width="0.5" stroke-miterlimit="10" font-family="'Tahoma'" font-size="12px">ABDEFG</text>
	<text transform="matrix(1 0 0 1 423.5045 559.1869)" fill="#262262" font-family="'Tahoma'" font-size="12px">ACDEFG</text>
	
		<text transform="matrix(1 0 0 1 423.5045 559.1869)" fill="none" stroke="#000000" stroke-width="0.5" stroke-miterlimit="10" font-family="'Tahoma'" font-size="12px">ACDEFG</text>
	<text transform="matrix(1 0 0 1 356.9921 453.5528)" fill="#262262" font-family="'Tahoma'" font-size="12px">BCDEFG</text>
	
		<text transform="matrix(1 0 0 1 356.9922 453.5523)" fill="none" stroke="#000000" stroke-width="0.5" stroke-miterlimit="10" font-family="'Tahoma'" font-size="12px">BCDEFG</text>
	<text transform="matrix(1 0 0 1 705.6599 213.4527)" fill="#262262" font-family="'Tahoma'" font-size="10px">ABG</text>
	
		<text transform="matrix(1 0 0 1 705.6599 213.4527)" fill="none" stroke="#000000" stroke-width="0.5" stroke-miterlimit="10" font-family="'Tahoma'" font-size="10px">ABG</text>
	<text transform="matrix(1 0 0 1 723.1628 254.1779)" fill="#262262" font-family="'Tahoma'" font-size="10px">BG</text>
	
		<text transform="matrix(1 0 0 1 723.1628 254.1779)" fill="none" stroke="#000000" stroke-width="0.5" stroke-miterlimit="10" font-family="'Tahoma'" font-size="10px">BG</text>
	<text transform="matrix(1 0 0 1 695.225 279.2825)" fill="#262262" font-family="'Tahoma'" font-size="10px">BDG</text>
	
		<text transform="matrix(1 0 0 1 695.225 279.2825)" fill="none" stroke="#000000" stroke-width="0.5" stroke-miterlimit="10" font-family="'Tahoma'" font-size="10px">BDG</text>
	<text transform="matrix(1 0 0 1 674.7654 295.3451)" fill="#262262" font-family="'Tahoma'" font-size="10px">BDFG</text>
	
		<text transform="matrix(1 0 0 1 674.7654 295.3451)" fill="none" stroke="#000000" stroke-width="0.5" stroke-miterlimit="10" font-family="'Tahoma'" font-size="10px">BDFG</text>
	<text transform="matrix(1 0 0 1 700.9166 305.9448)" fill="#262262" font-family="'Tahoma'" font-size="10px">BCDG</text>
	
		<text transform="matrix(1 0 0 1 700.9166 305.9448)" fill="none" stroke="#000000" stroke-width="0.5" stroke-miterlimit="10" font-family="'Tahoma'" font-size="10px">BCDG</text>
	<text transform="matrix(1 0 0 1 684.4779 323.7969)" fill="#262262" font-family="'Tahoma'" font-size="10px">BCDFG</text>
	
		<text transform="matrix(1 0 0 1 684.4779 323.7969)" fill="none" stroke="#000000" stroke-width="0.5" stroke-miterlimit="10" font-family="'Tahoma'" font-size="10px">BCDFG</text>
	<text transform="matrix(1 0 0 1 717.5524 341.5336)" fill="#262262" font-family="'Tahoma'" font-size="10px">BCFG</text>
	
		<text transform="matrix(1 0 0 1 717.5524 341.5336)" fill="none" stroke="#000000" stroke-width="0.5" stroke-miterlimit="10" font-family="'Tahoma'" font-size="10px">BCFG</text>
	<text transform="matrix(1 0 0 1 693.9127 385.4904)" fill="#262262" font-family="'Tahoma'" font-size="10px">ABCFG</text>
	
		<text transform="matrix(1 0 0 1 693.9127 385.4904)" fill="none" stroke="#000000" stroke-width="0.5" stroke-miterlimit="10" font-family="'Tahoma'" font-size="10px">ABCFG</text>
	<text transform="matrix(1 0 0 1 664.8901 539.1389)" fill="#262262" font-family="'Tahoma'" font-size="10px">ABEFG</text>
	
		<text transform="matrix(1 0 0 1 664.8901 539.1389)" fill="none" stroke="#000000" stroke-width="0.5" stroke-miterlimit="10" font-family="'Tahoma'" font-size="10px">ABEFG</text>
	<text transform="matrix(1 0 0 1 513.2603 611.6633)" fill="#262262" font-family="'Tahoma'" font-size="10px">ADEFG</text>
	
		<text transform="matrix(1 0 0 1 513.2603 611.6633)" fill="none" stroke="#000000" stroke-width="0.5" stroke-miterlimit="10" font-family="'Tahoma'" font-size="10px">ADEFG</text>
	<text transform="matrix(1 0 0 1 481.9143 659.0623)" fill="#262262" font-family="'Tahoma'" font-size="10px">ADEF</text>
	
		<text transform="matrix(1 0 0 1 481.9143 659.0623)" fill="none" stroke="#000000" stroke-width="0.5" stroke-miterlimit="10" font-family="'Tahoma'" font-size="10px">ADEF</text>
	<text transform="matrix(1 0 0 1 459.3622 617.5801)" fill="#262262" font-family="'Tahoma'" font-size="10px">ACDEF</text>
	
		<text transform="matrix(1 0 0 1 459.3622 617.5801)" fill="none" stroke="#000000" stroke-width="0.5" stroke-miterlimit="10" font-family="'Tahoma'" font-size="10px">ACDEF</text>
	<text transform="matrix(1 0 0 1 431.5811 614.0109)" fill="#262262" font-family="'Tahoma'" font-size="10px">ACDF</text>
	
		<text transform="matrix(1 0 0 1 431.5811 614.0109)" fill="none" stroke="#000000" stroke-width="0.5" stroke-miterlimit="10" font-family="'Tahoma'" font-size="10px">ACDF</text>
	<text transform="matrix(1 0 0 1 316.6974 601.9829)" fill="#262262" font-family="'Tahoma'" font-size="10px">CDG</text>
	
		<text transform="matrix(1 0 0 1 316.6974 601.9829)" fill="none" stroke="#000000" stroke-width="0.5" stroke-miterlimit="10" font-family="'Tahoma'" font-size="10px">CDG</text>
	<text transform="matrix(1 0 0 1 372.3744 592.3684)" fill="#262262" font-family="'Tahoma'" font-size="10px">CDFG</text>
	
		<text transform="matrix(1 0 0 1 372.3744 592.3684)" fill="none" stroke="#000000" stroke-width="0.5" stroke-miterlimit="10" font-family="'Tahoma'" font-size="10px">CDFG</text>
	<text transform="matrix(1 0 0 1 405.47 597.9272)" fill="#262262" font-family="'Tahoma'" font-size="10px">ACDFG</text>
	
		<text transform="matrix(1 0 0 1 405.47 597.9272)" fill="none" stroke="#000000" stroke-width="0.5" stroke-miterlimit="10" font-family="'Tahoma'" font-size="10px">ACDFG</text>
	<text transform="matrix(1 0 0 1 403.4733 621.0323)" fill="#262262" font-family="'Tahoma'" font-size="10px">ADFG</text>
	
		<text transform="matrix(1 0 0 1 403.4733 621.0323)" fill="none" stroke="#000000" stroke-width="0.5" stroke-miterlimit="10" font-family="'Tahoma'" font-size="10px">ADFG</text>
	<text transform="matrix(1 0 0 1 211.937 571.1213)" fill="#262262" font-family="'Tahoma'" font-size="10px">CDF</text>
	
		<text transform="matrix(1 0 0 1 211.937 571.1213)" fill="none" stroke="#000000" stroke-width="0.5" stroke-miterlimit="10" font-family="'Tahoma'" font-size="10px">CDF</text>
	<text transform="matrix(1 0 0 1 250.8009 549.2377)" fill="#262262" font-family="'Tahoma'" font-size="10px">CDE</text>
	
		<text transform="matrix(1 0 0 1 250.8009 549.2377)" fill="none" stroke="#000000" stroke-width="0.5" stroke-miterlimit="10" font-family="'Tahoma'" font-size="10px">CDE</text>
	<text transform="matrix(1 0 0 1 216.5263 551.238)" fill="#262262" font-family="'Tahoma'" font-size="10px">CDEF</text>
	
		<text transform="matrix(1 0 0 1 216.5263 551.238)" fill="none" stroke="#000000" stroke-width="0.5" stroke-miterlimit="10" font-family="'Tahoma'" font-size="10px">CDEF</text>
	<text transform="matrix(1 0 0 1 258.3145 505.3453)" fill="#262262" font-family="'Tahoma'" font-size="10px">CE</text>
	
		<text transform="matrix(1 0 0 1 258.3145 505.3453)" fill="none" stroke="#000000" stroke-width="0.5" stroke-miterlimit="10" font-family="'Tahoma'" font-size="10px">CE</text>
	<text transform="matrix(1 0 0 1 290.3276 489.9001)" fill="#262262" font-family="'Tahoma'" font-size="10px">CEG</text>
	
		<text transform="matrix(1 0 0 1 290.3276 489.9001)" fill="none" stroke="#000000" stroke-width="0.5" stroke-miterlimit="10" font-family="'Tahoma'" font-size="10px">CEG</text>
	<text transform="matrix(1 0 0 1 327.5847 498.6269)" fill="#262262" font-family="'Tahoma'" font-size="10px">BCDEG</text>
	
		<text transform="matrix(1 0 0 1 327.5847 498.6269)" fill="none" stroke="#000000" stroke-width="0.5" stroke-miterlimit="10" font-family="'Tahoma'" font-size="10px">BCDEG</text>
	<text transform="matrix(1 0 0 1 290.5976 460.4708)" fill="#262262" font-family="'Tahoma'" font-size="10px">CEFG</text>
	
		<text transform="matrix(1 0 0 1 290.5976 460.4708)" fill="none" stroke="#000000" stroke-width="0.5" stroke-miterlimit="10" font-family="'Tahoma'" font-size="10px">CEFG</text>
	<text transform="matrix(1 0 0 1 245.6787 475.5615)" fill="#262262" font-family="'Tahoma'" font-size="10px">CEF</text>
	
		<text transform="matrix(1 0 0 1 245.6787 475.5615)" fill="none" stroke="#000000" stroke-width="0.5" stroke-miterlimit="10" font-family="'Tahoma'" font-size="10px">CEF</text>
	<text transform="matrix(1 0 0 1 308.7291 444.4151)" fill="#262262" font-family="'Tahoma'" font-size="10px">BCEFG</text>
	
		<text transform="matrix(1 0 0 1 308.7291 444.4151)" fill="none" stroke="#000000" stroke-width="0.5" stroke-miterlimit="10" font-family="'Tahoma'" font-size="10px">BCEFG</text>
	<text transform="matrix(1 0 0 1 299.7219 419.0425)" fill="#262262" font-family="'Tahoma'" font-size="10px">BCEF</text>
	
		<text transform="matrix(1 0 0 1 299.7219 419.0425)" fill="none" stroke="#000000" stroke-width="0.5" stroke-miterlimit="10" font-family="'Tahoma'" font-size="10px">BCEF</text>
	<text transform="matrix(1 0 0 1 342.3145 385.231)" fill="#262262" font-family="'Tahoma'" font-size="10px">BCDEF</text>
	
		<text transform="matrix(1 0 0 1 342.3145 385.231)" fill="none" stroke="#000000" stroke-width="0.5" stroke-miterlimit="10" font-family="'Tahoma'" font-size="10px">BCDEF</text>
	<text transform="matrix(1 0 0 1 293.4025 340.5336)" fill="#262262" font-family="'Tahoma'" font-size="10px">BCDF</text>
	
		<text transform="matrix(1 0 0 1 293.4025 340.5336)" fill="none" stroke="#000000" stroke-width="0.5" stroke-miterlimit="10" font-family="'Tahoma'" font-size="10px">BCDF</text>
	<text transform="matrix(1 0 0 1 321.6558 288.3495)" fill="#262262" font-family="'Tahoma'" font-size="10px">BDF</text>
	
		<text transform="matrix(1 0 0 1 321.6558 288.3495)" fill="none" stroke="#000000" stroke-width="0.5" stroke-miterlimit="10" font-family="'Tahoma'" font-size="10px">BDF</text>
	<text transform="matrix(1 0 0 1 338.4163 329.4335)" fill="#262262" font-family="'Tahoma'" font-size="10px">ABCDF</text>
	
		<text transform="matrix(1 0 0 1 338.4163 329.4335)" fill="none" stroke="#000000" stroke-width="0.5" stroke-miterlimit="10" font-family="'Tahoma'" font-size="10px">ABCDF</text>
	<text transform="matrix(1 0 0 1 349.836 301.9386)" fill="#262262" font-family="'Tahoma'" font-size="10px">ABDF</text>
	
		<text transform="matrix(1 0 0 1 349.836 301.9386)" fill="none" stroke="#000000" stroke-width="0.5" stroke-miterlimit="10" font-family="'Tahoma'" font-size="10px">ABDF</text>
	<text transform="matrix(1 0 0 1 255.5655 376.2531)" fill="#262262" font-family="'Tahoma'" font-size="10px">BCF</text>
	
		<text transform="matrix(1 0 0 1 255.5655 376.2531)" fill="none" stroke="#000000" stroke-width="0.5" stroke-miterlimit="10" font-family="'Tahoma'" font-size="10px">BCF</text>
	<text transform="matrix(1 0 0 1 314.3364 475.5614)" fill="#262262" font-family="'Tahoma'" font-size="10px">BCEG</text>
	
		<text transform="matrix(1 0 0 1 314.3364 475.5614)" fill="none" stroke="#000000" stroke-width="0.5" stroke-miterlimit="10" font-family="'Tahoma'" font-size="10px">BCEG</text>
	<text transform="matrix(1 0 0 1 306.0653 545.871)" fill="#262262" font-family="'Tahoma'" font-size="10px">CDEG</text>
	
		<text transform="matrix(1 0 0 1 306.0653 545.871)" fill="none" stroke="#000000" stroke-width="0.5" stroke-miterlimit="10" font-family="'Tahoma'" font-size="10px">CDEG</text>
	<text transform="matrix(1 0 0 1 372.4756 533.3319)" fill="#262262" font-family="'Tahoma'" font-size="10px">CDEFG</text>
	
		<text transform="matrix(1 0 0 1 372.4756 533.3319)" fill="none" stroke="#000000" stroke-width="0.5" stroke-miterlimit="10" font-family="'Tahoma'" font-size="10px">CDEFG</text>
	<text transform="matrix(1 0 0 1 445.9556 707.9451)" fill="#262262" font-family="'Tahoma'" font-size="10px">DEF</text>
	
		<text transform="matrix(1 0 0 1 445.9556 707.9451)" fill="none" stroke="#000000" stroke-width="0.5" stroke-miterlimit="10" font-family="'Tahoma'" font-size="10px">DEF</text>
	<text transform="matrix(1 0 0 1 435.7416 751.1334)" fill="#262262" font-family="'Tahoma'" font-size="10px">DEG</text>
	
		<text transform="matrix(1 0 0 1 435.7416 751.1334)" fill="none" stroke="#000000" stroke-width="0.5" stroke-miterlimit="10" font-family="'Tahoma'" font-size="10px">DEG</text>
	<text transform="matrix(1 0 0 1 334.3181 660.9879)" fill="#262262" font-family="'Tahoma'" font-size="10px">DG</text>
	
		<text transform="matrix(1 0 0 1 334.3181 660.9879)" fill="none" stroke="#000000" stroke-width="0.5" stroke-miterlimit="10" font-family="'Tahoma'" font-size="10px">DG</text>
	<text transform="matrix(1 0 0 1 382.0356 632.3353)" fill="#262262" font-family="'Tahoma'" font-size="10px">DFG</text>
	
		<text transform="matrix(1 0 0 1 382.0356 632.3353)" fill="none" stroke="#000000" stroke-width="0.5" stroke-miterlimit="10" font-family="'Tahoma'" font-size="10px">DFG</text>
	<text transform="matrix(1 0 0 1 419.0564 671.6184)" fill="#262262" font-family="'Tahoma'" font-size="10px">DF</text>
	
		<text transform="matrix(1 0 0 1 419.0564 671.6184)" fill="none" stroke="#000000" stroke-width="0.5" stroke-miterlimit="10" font-family="'Tahoma'" font-size="10px">DF</text>
	<text transform="matrix(1 0 0 1 425.7555 638.9883)" fill="#262262" font-family="'Tahoma'" font-size="10px">ADF</text>
	
		<text transform="matrix(1 0 0 1 425.7555 638.9883)" fill="none" stroke="#000000" stroke-width="0.5" stroke-miterlimit="10" font-family="'Tahoma'" font-size="10px">ADF</text>
	<text transform="matrix(1 0 0 1 426.4396 729.4913)" fill="#262262" font-family="'Tahoma'" font-size="10px">DEFG</text>
	
		<text transform="matrix(1 0 0 1 426.4396 729.4913)" fill="none" stroke="#000000" stroke-width="0.5" stroke-miterlimit="10" font-family="'Tahoma'" font-size="10px">DEFG</text>
	<text transform="matrix(1 0 0 1 528.1312 694.2296)" fill="#262262" font-family="'Tahoma'" font-size="10px">ADE</text>
	
		<text transform="matrix(1 0 0 1 528.1312 694.2296)" fill="none" stroke="#000000" stroke-width="0.5" stroke-miterlimit="10" font-family="'Tahoma'" font-size="10px">ADE</text>
	<text transform="matrix(1 0 0 1 552.8036 639.442)" fill="#262262" font-family="'Tahoma'" font-size="10px">ADEG</text>
	
		<text transform="matrix(1 0 0 1 552.8036 639.442)" fill="none" stroke="#000000" stroke-width="0.5" stroke-miterlimit="10" font-family="'Tahoma'" font-size="10px">ADEG</text>
	<text transform="matrix(1 0 0 1 572.0562 620.0319)" fill="#262262" font-family="'Tahoma'" font-size="10px">ABDEG</text>
	
		<text transform="matrix(1 0 0 1 572.0562 620.0319)" fill="none" stroke="#000000" stroke-width="0.5" stroke-miterlimit="10" font-family="'Tahoma'" font-size="10px">ABDEG</text>
	<text transform="matrix(1 0 0 1 677.3513 605.9897)" fill="#262262" font-family="'Tahoma'" font-size="10px">BEFG</text>
	
		<text transform="matrix(1 0 0 1 677.3513 605.9897)" fill="none" stroke="#000000" stroke-width="0.5" stroke-miterlimit="10" font-family="'Tahoma'" font-size="10px">BEFG</text>
	<text transform="matrix(1 0 0 1 702.847 691.7303)" fill="#262262" font-family="'Tahoma'" font-size="10px">AEFG</text>
	
		<text transform="matrix(1 0 0 1 702.847 691.7303)" fill="none" stroke="#000000" stroke-width="0.5" stroke-miterlimit="10" font-family="'Tahoma'" font-size="10px">AEFG</text>
	<text transform="matrix(1 0 0 1 632.9301 685.5936)" fill="#262262" font-family="'Tahoma'" font-size="10px">AEG</text>
	
		<text transform="matrix(1 0 0 1 632.9301 685.5936)" fill="none" stroke="#000000" stroke-width="0.5" stroke-miterlimit="10" font-family="'Tahoma'" font-size="10px">AEG</text>
	<text transform="matrix(1 0 0 1 650.1468 662.9885)" fill="#262262" font-family="'Tahoma'" font-size="10px">EG</text>
	
		<text transform="matrix(1 0 0 1 650.1468 662.9885)" fill="none" stroke="#000000" stroke-width="0.5" stroke-miterlimit="10" font-family="'Tahoma'" font-size="10px">EG</text>
	<text transform="matrix(1 0 0 1 628.2321 638.4418)" fill="#262262" font-family="'Tahoma'" font-size="10px">BEG</text>
	
		<text transform="matrix(1 0 0 1 628.2321 638.4418)" fill="none" stroke="#000000" stroke-width="0.5" stroke-miterlimit="10" font-family="'Tahoma'" font-size="10px">BEG</text>
	<text transform="matrix(1 0 0 1 595.8573 637.4423)" fill="#262262" font-family="'Tahoma'" font-size="10px">ABEG</text>
	
		<text transform="matrix(1 0 0 1 595.8573 637.4423)" fill="none" stroke="#000000" stroke-width="0.5" stroke-miterlimit="10" font-family="'Tahoma'" font-size="10px">ABEG</text>
	<text transform="matrix(1 0 0 1 607.873 615.0109)" fill="#262262" font-family="'Tahoma'" font-size="10px">BDEG</text>
	
		<text transform="matrix(1 0 0 1 607.873 615.0109)" fill="none" stroke="#000000" stroke-width="0.5" stroke-miterlimit="10" font-family="'Tahoma'" font-size="10px">BDEG</text>
	<text transform="matrix(1 0 0 1 623.2335 594.3693)" fill="#262262" font-family="'Tahoma'" font-size="10px">BDEFG</text>
	
		<text transform="matrix(1 0 0 1 623.2335 594.3693)" fill="none" stroke="#000000" stroke-width="0.5" stroke-miterlimit="10" font-family="'Tahoma'" font-size="10px">BDEFG</text>
	<text transform="matrix(1 0 0 1 727.3839 700.7721)" fill="#262262" font-family="'Tahoma'" font-size="10px">AEF</text>
	
		<text transform="matrix(1 0 0 1 727.3839 700.7721)" fill="none" stroke="#000000" stroke-width="0.5" stroke-miterlimit="10" font-family="'Tahoma'" font-size="10px">AEF</text>
	<text transform="matrix(1 0 0 1 695.2451 662.9887)" fill="#262262" font-family="'Tahoma'" font-size="10px">EFG</text>
	
		<text transform="matrix(1 0 0 1 695.2451 662.9887)" fill="none" stroke="#000000" stroke-width="0.5" stroke-miterlimit="10" font-family="'Tahoma'" font-size="10px">EFG</text>
	<text transform="matrix(1 0 0 1 752.0897 405.5741)" fill="#262262" font-family="'Tahoma'" font-size="10px">ACFG</text>
	
		<text transform="matrix(1 0 0 1 752.0897 405.5741)" fill="none" stroke="#000000" stroke-width="0.5" stroke-miterlimit="10" font-family="'Tahoma'" font-size="10px">ACFG</text>
	<text transform="matrix(1 0 0 1 715.6959 447.4151)" fill="#262262" font-family="'Tahoma'" font-size="10px">ACEFG</text>
	
		<text transform="matrix(1 0 0 1 715.6959 447.4151)" fill="none" stroke="#000000" stroke-width="0.5" stroke-miterlimit="10" font-family="'Tahoma'" font-size="10px">ACEFG</text>
	<text transform="matrix(1 0 0 1 751.5219 471.9618)" fill="#262262" font-family="'Tahoma'" font-size="10px">ACF</text>
	
		<text transform="matrix(1 0 0 1 751.5219 471.9618)" fill="none" stroke="#000000" stroke-width="0.5" stroke-miterlimit="10" font-family="'Tahoma'" font-size="10px">ACF</text>
	<text transform="matrix(1 0 0 1 733.7444 494.9507)" fill="#262262" font-family="'Tahoma'" font-size="10px">ABCF</text>
	
		<text transform="matrix(1 0 0 1 733.7444 494.9507)" fill="none" stroke="#000000" stroke-width="0.5" stroke-miterlimit="10" font-family="'Tahoma'" font-size="10px">ABCF</text>
	<text transform="matrix(1 0 0 1 736.94 596.9269)" fill="#262262" font-family="'Tahoma'" font-size="10px">BEF</text>
	
		<text transform="matrix(1 0 0 1 736.94 596.9269)" fill="none" stroke="#000000" stroke-width="0.5" stroke-miterlimit="10" font-family="'Tahoma'" font-size="10px">BEF</text>
	<text transform="matrix(1 0 0 1 711.6599 531.2129)" fill="#262262" font-family="'Tahoma'" font-size="10px">ABEF</text>
	
		<text transform="matrix(1 0 0 1 711.6599 531.2129)" fill="none" stroke="#000000" stroke-width="0.5" stroke-miterlimit="10" font-family="'Tahoma'" font-size="10px">ABEF</text>
	<text transform="matrix(1 0 0 1 702.194 500.2031)" fill="#262262" font-family="'Tahoma'" font-size="10px">ABCEF</text>
	
		<text transform="matrix(1 0 0 1 702.194 500.2031)" fill="none" stroke="#000000" stroke-width="0.5" stroke-miterlimit="10" font-family="'Tahoma'" font-size="10px">ABCEF</text>
	<text transform="matrix(1 0 0 1 719.033 470.9617)" fill="#262262" font-family="'Tahoma'" font-size="10px">ACEF</text>
	
		<text transform="matrix(1 0 0 1 719.033 470.9617)" fill="none" stroke="#000000" stroke-width="0.5" stroke-miterlimit="10" font-family="'Tahoma'" font-size="10px">ACEF</text>
	<text transform="matrix(1 0 0 1 808.0912 434.026)" fill="#262262" font-family="'Tahoma'" font-size="10px">AFG</text>
	
		<text transform="matrix(1 0 0 1 808.0912 434.026)" fill="none" stroke="#000000" stroke-width="0.5" stroke-miterlimit="10" font-family="'Tahoma'" font-size="10px">AFG</text>
	<text transform="matrix(1 0 0 1 836.9436 453.5518)" fill="#262262" font-family="'Tahoma'" font-size="10px">ABFG</text>
	
		<text transform="matrix(1 0 0 1 836.9436 453.5518)" fill="none" stroke="#000000" stroke-width="0.5" stroke-miterlimit="10" font-family="'Tahoma'" font-size="10px">ABFG</text>
	<text transform="matrix(1 0 0 1 805.1348 503.2031)" fill="#262262" font-family="'Tahoma'" font-size="10px">ABF</text>
	
		<text transform="matrix(1 0 0 1 805.1348 503.2031)" fill="none" stroke="#000000" stroke-width="0.5" stroke-miterlimit="10" font-family="'Tahoma'" font-size="10px">ABF</text>
	<text transform="matrix(1 0 0 1 771.8241 358.479)" fill="#262262" font-family="'Tahoma'" font-size="10px">CFG</text>
	
		<text transform="matrix(1 0 0 1 771.8241 358.479)" fill="none" stroke="#000000" stroke-width="0.5" stroke-miterlimit="10" font-family="'Tahoma'" font-size="10px">CFG</text>
	<text transform="matrix(1 0 0 1 861.7782 443.2768)" fill="#262262" font-family="'Tahoma'" font-size="10px">BFG</text>
	
		<text transform="matrix(1 0 0 1 861.7782 443.2768)" fill="none" stroke="#000000" stroke-width="0.5" stroke-miterlimit="10" font-family="'Tahoma'" font-size="10px">BFG</text>
	<text transform="matrix(1 0 0 1 649.828 236.3257)" fill="#262262" font-family="'Tahoma'" font-size="10px">ABDG</text>
	
		<text transform="matrix(1 0 0 1 649.828 236.3257)" fill="none" stroke="#000000" stroke-width="0.5" stroke-miterlimit="10" font-family="'Tahoma'" font-size="10px">ABDG</text>
	<text transform="matrix(1 0 0 1 568.0373 218.5893)" fill="#262262" font-family="'Tahoma'" font-size="10px">ACDG</text>
	
		<text transform="matrix(1 0 0 1 568.0373 218.5893)" fill="none" stroke="#000000" stroke-width="0.5" stroke-miterlimit="10" font-family="'Tahoma'" font-size="10px">ACDG</text>
	<text transform="matrix(1 0 0 1 589.4036 260.4855)" fill="#262262" font-family="'Tahoma'" font-size="10px">ABCDG</text>
	
		<text transform="matrix(1 0 0 1 589.4036 260.4855)" fill="none" stroke="#000000" stroke-width="0.5" stroke-miterlimit="10" font-family="'Tahoma'" font-size="10px">ABCDG</text>
	<text transform="matrix(1 0 0 1 640.0083 279.2827)" fill="#262262" font-family="'Tahoma'" font-size="10px">ABDFG</text>
	
		<text transform="matrix(1 0 0 1 640.0083 279.2827)" fill="none" stroke="#000000" stroke-width="0.5" stroke-miterlimit="10" font-family="'Tahoma'" font-size="10px">ABDFG</text>
	<text transform="matrix(1 0 0 1 418.3104 125.5554)" fill="#262262" font-family="'Tahoma'" font-size="12px">AB</text>
	
		<text transform="matrix(1 0 0 1 418.3104 125.5554)" fill="none" stroke="#000000" stroke-width="0.5" stroke-miterlimit="10" font-family="'Tahoma'" font-size="12px">AB</text>
	<text transform="matrix(1 0 0 1 311.6994 191.6759)" fill="#262262" font-family="'Tahoma'" font-size="12px">BE</text>
	
		<text transform="matrix(1 0 0 1 311.6994 191.6759)" fill="none" stroke="#000000" stroke-width="0.5" stroke-miterlimit="10" font-family="'Tahoma'" font-size="12px">BE</text>
	<text transform="matrix(1 0 0 1 211.3379 310.0757)" fill="#262262" font-family="'Tahoma'" font-size="12px">BC</text>
	
		<text transform="matrix(1 0 0 1 211.3379 310.0757)" fill="none" stroke="#000000" stroke-width="0.5" stroke-miterlimit="10" font-family="'Tahoma'" font-size="12px">BC</text>
	<text transform="matrix(1 0 0 1 211.7449 433.026)" fill="#262262" font-family="'Tahoma'" font-size="12px">CF</text>
	
		<text transform="matrix(1 0 0 1 211.7449 433.026)" fill="none" stroke="#000000" stroke-width="0.5" stroke-miterlimit="10" font-family="'Tahoma'" font-size="12px">CF</text>
	<text transform="matrix(1 0 0 1 252.3274 594.3689)" fill="#262262" font-family="'Tahoma'" font-size="12px">CD</text>
	
		<text transform="matrix(1 0 0 1 252.3274 594.3689)" fill="none" stroke="#000000" stroke-width="0.5" stroke-miterlimit="10" font-family="'Tahoma'" font-size="12px">CD</text>
	<text transform="matrix(1 0 0 1 453.2006 146.7548)" fill="#262262" font-family="'Tahoma'" font-size="12px">ABC</text>
	
		<text transform="matrix(1 0 0 1 453.2006 146.7548)" fill="none" stroke="#000000" stroke-width="0.5" stroke-miterlimit="10" font-family="'Tahoma'" font-size="12px">ABC</text>
	<text transform="matrix(1 0 0 1 497.5778 164.7228)" fill="#262262" font-family="'Tahoma'" font-size="12px">AC</text>
	
		<text transform="matrix(1 0 0 1 497.5778 164.7228)" fill="none" stroke="#000000" stroke-width="0.5" stroke-miterlimit="10" font-family="'Tahoma'" font-size="12px">AC</text>
	<text transform="matrix(1 0 0 1 574.0994 127.5555)" fill="#262262" font-family="'Tahoma'" font-size="12px">AD</text>
	
		<text transform="matrix(1 0 0 1 574.0994 127.5555)" fill="none" stroke="#000000" stroke-width="0.5" stroke-miterlimit="10" font-family="'Tahoma'" font-size="12px">AD</text>
	<text transform="matrix(1 0 0 1 689.8556 169.7229)" fill="#262262" font-family="'Tahoma'" font-size="12px">AG</text>
	
		<text transform="matrix(1 0 0 1 689.8556 169.7229)" fill="none" stroke="#000000" stroke-width="0.5" stroke-miterlimit="10" font-family="'Tahoma'" font-size="12px">AG</text>
	<text transform="matrix(1 0 0 1 619.3986 186.4593)" fill="#262262" font-family="'Tahoma'" font-size="12px">ADG</text>
	
		<text transform="matrix(1 0 0 1 619.3986 186.4593)" fill="none" stroke="#000000" stroke-width="0.5" stroke-miterlimit="10" font-family="'Tahoma'" font-size="12px">ADG</text>
	<text transform="matrix(1 0 0 1 513.0342 139.8288)" fill="#262262" font-family="'Tahoma'" font-size="12px">ACD</text>
	
		<text transform="matrix(1 0 0 1 513.0342 139.8288)" fill="none" stroke="#000000" stroke-width="0.5" stroke-miterlimit="10" font-family="'Tahoma'" font-size="12px">ACD</text>
	<text transform="matrix(1 0 0 1 456.6347 115.457)" fill="#262262" font-family="'Tahoma'" font-size="10px">ABCD</text>
	
		<text transform="matrix(1 0 0 1 456.6347 115.457)" fill="none" stroke="#000000" stroke-width="0.5" stroke-miterlimit="10" font-family="'Tahoma'" font-size="10px">ABCD</text>
	<text transform="matrix(1 0 0 1 347.049 134.3825)" fill="#262262" font-family="'Tahoma'" font-size="36px">B</text>
	
		<text transform="matrix(1 0 0 1 347.049 134.3825)" fill="none" stroke="#000000" stroke-width="0.5" stroke-miterlimit="10" font-family="'Tahoma'" font-size="36px">B</text>
	<text transform="matrix(1 0 0 1 170.6681 359.0506)" fill="#262262" font-family="'Tahoma'" font-size="36px">C</text>
	
		<text transform="matrix(1 0 0 1 170.6681 359.0506)" fill="none" stroke="#000000" stroke-width="0.5" stroke-miterlimit="10" font-family="'Tahoma'" font-size="36px">C</text>
	<text transform="matrix(1 0 0 1 268.5263 690.7299)" fill="#262262" font-family="'Tahoma'" font-size="36px">D</text>
	
		<text transform="matrix(1 0 0 1 268.5263 690.7299)" fill="none" stroke="#000000" stroke-width="0.5" stroke-miterlimit="10" font-family="'Tahoma'" font-size="36px">D</text>
	<text transform="matrix(1 0 0 1 542.7615 795.7754)" fill="#262262" font-family="'Tahoma'" font-size="36px">E</text>
	
		<text transform="matrix(1 0 0 1 542.7615 795.7754)" fill="none" stroke="#000000" stroke-width="0.5" stroke-miterlimit="10" font-family="'Tahoma'" font-size="36px">E</text>
	<text transform="matrix(1 0 0 1 812.2908 646.3877)" fill="#262262" font-family="'Tahoma'" font-size="36px">F</text>
	
		<text transform="matrix(1 0 0 1 812.2908 646.3877)" fill="none" stroke="#000000" stroke-width="0.5" stroke-miterlimit="10" font-family="'Tahoma'" font-size="36px">F</text>
	<text transform="matrix(1 0 0 1 857.6548 343.658)" fill="#262262" font-family="'Tahoma'" font-size="36px">G</text>
	
		<text transform="matrix(1 0 0 1 857.6548 343.658)" fill="none" stroke="#000000" stroke-width="0.5" stroke-miterlimit="10" font-family="'Tahoma'" font-size="36px">G</text>
	<text transform="matrix(1 0 0 1 454.9164 442.2776)" fill="#FFFFFF" font-family="'Tahoma'" font-size="36px">ABCDEFG</text>
	
		<text transform="matrix(1 0 0 1 454.9164 442.2776)" fill="none" stroke="#000000" stroke-width="0.5" stroke-miterlimit="10" font-family="'Tahoma'" font-size="36px">ABCDEFG</text>
	<text transform="matrix(1 0 0 1 682.12 54.5105)" fill="#262262" font-family="'Tahoma'" font-size="24px">NameA</text>
	
		<text transform="matrix(1 0 0 1 682.12 54.5105)" fill="none" stroke="#000000" stroke-width="0.5" stroke-miterlimit="10" font-family="'Tahoma'" font-size="24px">NameA</text>
	<text transform="matrix(1 0 0 1 803.7157 154.723)" fill="#262262" font-family="'Tahoma'" font-size="24px">NameG</text>
	
		<text transform="matrix(1 0 0 1 803.7157 154.723)" fill="none" stroke="#000000" stroke-width="0.5" stroke-miterlimit="10" font-family="'Tahoma'" font-size="24px">NameG</text>
	<text transform="matrix(1 0 0 1 821.4679 716.405)" fill="#262262" font-family="'Tahoma'" font-size="24px">NameF</text>
	
		<text transform="matrix(1 0 0 1 821.4679 716.405)" fill="none" stroke="#000000" stroke-width="0.5" stroke-miterlimit="10" font-family="'Tahoma'" font-size="24px">NameF</text>
	<text transform="matrix(1 0 0 1 662.3279 829.1023)" fill="#262262" font-family="'Tahoma'" font-size="24px">NameE</text>
	
		<text transform="matrix(1 0 0 1 662.3279 829.1023)" fill="none" stroke="#000000" stroke-width="0.5" stroke-miterlimit="10" font-family="'Tahoma'" font-size="24px">NameE</text>
	<text transform="matrix(1 0 0 1 114.6655 751.1335)" fill="#262262" font-family="'Tahoma'" font-size="24px">NameD</text>
	
		<text transform="matrix(1 0 0 1 114.6655 751.1335)" fill="none" stroke="#000000" stroke-width="0.5" stroke-miterlimit="10" font-family="'Tahoma'" font-size="24px">NameD</text>
	<text transform="matrix(1 0 0 1 48.9135 266.1099)" fill="#262262" font-family="'Tahoma'" font-size="21px">NameC</text>
	
		<text transform="matrix(1 0 0 1 48.9135 266.1099)" fill="none" stroke="#000000" stroke-width="0.5" stroke-miterlimit="10" font-family="'Tahoma'" font-size="21px">NameC</text>
	<text transform="matrix(1 0 0 1 216.3187 78.1724)" fill="#262262" font-family="'Tahoma'" font-size="24px">NameB</text>
	
		<text transform="matrix(1 0 0 1 216.3187 78.1724)" fill="none" stroke="#000000" stroke-width="0.5" stroke-miterlimit="10" font-family="'Tahoma'" font-size="24px">NameB</text>
</g>
</svg>
