<?xml version="1.0" encoding="utf-8"?>
<!-- Generator: Adobe Illustrator 19.0.0, SVG Export Plug-In . SVG Version: 6.00 Build 0)  -->
<svg version="1.1" xmlns="http://www.w3.org/2000/svg" xmlns:xlink="http://www.w3.org/1999/xlink" x="0px" y="0px"
	 viewBox="0 0 930 850" enable-background="new 0 0 930 850" xml:space="preserve" style="width: 800px;">
<g id="Area_A">
	<path opacity="0.2" fill="#7F1416" stroke="#000000" stroke-width="3" stroke-miterlimit="10" d="M475,34.5
		c64.4-11.3,187.1,22.6,234,99c27,44,3.8,61.3-12,88c-16,27-51,42-56,58s-5,16-5,16s4,29,18,41s129,60,154,91s33,37,5,69
		s-139,40-191,63s-67,51-36,85s44,38,83,35s50,13,27,49s-89.9,39.6-138,27c-42-11-130-56-154-85s-66.4-68.8-36-151
		c27-73-3.7-109-10.8-127c-7.2-18-29.2-16-48.2-38s-17-36,0-56s45-36,27-71S372,52.5,475,34.5z"/>
</g>
<g id="Area_B">
	<path opacity="0.2" fill="#FEDA00" stroke="#000000" stroke-width="3" stroke-miterlimit="10" d="M439,107.6
		c-12.7-26.2-33-39-76-36s-139,40-169,82s-54,106-25,179s62,81,81,88s24,28,29,55s14,49,59,41s75-21,124,35s74,100,160,95
		s229-60.6,231-173c0.8-47-39.4-68.7-58-23c-9.1,22.3-29,38-50,38s-69-5-72-34s40.1-128.4,63-185c15.5-38.4,22.5-105-71-84
		c-49,11-94,42-125,49s-31,7-31,7s-39,3-49-36S454,138.6,439,107.6z"/>
</g>
<g id="Area_C">
	<path opacity="0.2" fill="#78C143" stroke="#000000" stroke-width="3" stroke-miterlimit="10" d="M255,279c-32-24-97-60-134,35
		s-35,198,0,234s84,66,134,73s58.2,1.5,81-15s54,5.9,74,18c20,12,47,3,57-19s10-22,10-22l0,0c0,0,8-65,116-61s141-23,184-134
		s5-173-21-209s-86-21-59,26s-12,79-23,86s-42,36-84-18s-43-100-91-153s-73.8-40.6-99,23c-14.2,35.9-20,86-34,130S299,312,255,279z"
		/>
</g>
<g id="Area_D">
	<path opacity="0.2" fill="#E7E6AA" stroke="#000000" stroke-width="3" stroke-miterlimit="10" d="M236,510.1
		c-51.7,15.2-110,52.8-63,135.4s157,182.6,259,125.6s104-90,103-113s46-42,59-46s45-18.3,26-54c-19-35.7-59.2-81,5.9-153
		c65.1-72,78.9-129,0-238C547,58.1,491.1,62.2,465,62.1c-34-0.1-102.4,39.1-26,64c30.7,10,50,44,50,63s26.2,70.7-71.1,60
		c-68.7-7.6-101.9-16.9-145.9-27c-83-19-114,36-53,109S355.6,475,236,510.1z"/>
</g>
<g id="Area_E">
	<path opacity="0.2" fill="#283277" stroke="#000000" stroke-width="3" stroke-miterlimit="10" d="M395,682c-22,64,3,145,167.1,129
		c181.3-17.7,171.7-152.3,172.3-193.6C735,576,723,554,708,540s-19-48-9-68s28-45-29-63s-97.2-16.6-109.2-111
		C548.7,203.6,479,160,357,152s-189,54-189,98s29.2,40.3,62.1,14.7C263,239,292,261,309,276s17,15,17,15s38,44-75,129
		s-150.8,149.6,43.5,151C437,572,418.9,612.4,395,682z"/>
</g>
<g id="Area_F">
	<path opacity="0.2" fill="#4F53A3" stroke="#000000" stroke-width="3" stroke-miterlimit="10" d="M631,655
		c28.8,42.6,90.8,113.2,198.7-29c74.3-98,37.4-173,14.3-216c-7.1-13.3-33-38.2-62-62c-20.6-16.9-40-20-62-22s-45,3.7-60.2-25.6
		C644.7,271.2,623,234,569,288s-98,19-140,3s-74.5-52.8-167.8-5.9S139,415,130,455s8.8,86,24.9,106c16.1,20,53,33.4,45.4-35
		c-2.3-21,19-38.8,46.7-53s64-33,81,38s-9,138,13,191s80,47,136-29S565.4,557.7,631,655z"/>
</g>
<g id="Area_G">
	<path opacity="0.2" fill="#CA4B9B" stroke="#000000" stroke-width="3" stroke-miterlimit="10" d="M752,458c48.9,9.6,150,15,106-148
		S739,139,656,143s-94,22-108,42s-23.7,33.2-54.8,30.9c-31.2-2.2-64.7-13.3-67.2,44.5c-2.1,47.6,20,80.5-93,127.5
		s-110.9,148.4-73,269c17.5,55.7,65.7,97,105,112s71-15,38-49s-41.1-51.3-22-89.7C400.1,592,421,569,536,659s144.8,70,154,20.9
		c9.2-49.1-16.5-111.4-25.2-161.5C653,450,718.2,451.3,752,458z"/>
</g>
<g id="Text">
	
		<text transform="matrix(1 0 0 1 570.8243 100.0872)" fill="#262262" stroke="#000000" stroke-width="0.5" stroke-miterlimit="10" font-family="'Tahoma'" font-size="36px">27</text>
	
		<text transform="matrix(1 0 0 1 409.5394 96.087)" fill="#262262" stroke="#000000" stroke-width="0.5" stroke-miterlimit="10" font-family="'Tahoma'" font-size="10px">0</text>
	
		<text transform="matrix(1 0 0 1 350.7687 195.0424)" fill="#262262" stroke="#000000" stroke-width="0.5" stroke-miterlimit="10" font-family="'Tahoma'" font-size="10px">30</text>
	
		<text transform="matrix(1 0 0 1 403.0065 199.5314)" fill="#262262" stroke="#000000" stroke-width="0.5" stroke-miterlimit="10" font-family="'Tahoma'" font-size="10px">0</text>
	
		<text transform="matrix(1 0 0 1 444.1419 240.4931)" fill="#262262" stroke="#000000" stroke-width="0.5" stroke-miterlimit="10" font-family="'Tahoma'" font-size="10px">0</text>
	
		<text transform="matrix(1 0 0 1 384.4365 264.1823)" fill="#262262" stroke="#000000" stroke-width="0.5" stroke-miterlimit="10" font-family="'Tahoma'" font-size="10px">0</text>
	
		<text transform="matrix(1 0 0 1 344.9887 256.1781)" fill="#262262" stroke="#000000" stroke-width="0.5" stroke-miterlimit="10" font-family="'Tahoma'" font-size="10px">0</text>
	
		<text transform="matrix(1 0 0 1 337.9645 283.4218)" fill="#262262" stroke="#000000" stroke-width="0.5" stroke-miterlimit="10" font-family="'Tahoma'" font-size="10px">0</text>
	
		<text transform="matrix(1 0 0 1 310.9071 276.1728)" fill="#262262" stroke="#000000" stroke-width="0.5" stroke-miterlimit="10" font-family="'Tahoma'" font-size="10px">0</text>
	
		<text transform="matrix(1 0 0 1 259.9411 242.4933)" fill="#262262" stroke="#000000" stroke-width="0.5" stroke-miterlimit="10" font-family="'Tahoma'" font-size="10px">13</text>
	
		<text transform="matrix(1 0 0 1 214.7816 291.8718)" fill="#262262" stroke="#000000" stroke-width="0.5" stroke-miterlimit="10" font-family="'Tahoma'" font-size="10px">28</text>
	
		<text transform="matrix(1 0 0 1 193.8984 270.1106)" fill="#262262" stroke="#000000" stroke-width="0.5" stroke-miterlimit="10" font-family="'Tahoma'" font-size="10px">3</text>
	
		<text transform="matrix(1 0 0 1 174.7225 269.1104)" fill="#262262" stroke="#000000" stroke-width="0.5" stroke-miterlimit="10" font-family="'Tahoma'" font-size="10px">62</text>
	
		<text transform="matrix(1 0 0 1 259.0128 270.1104)" fill="#262262" stroke="#000000" stroke-width="0.5" stroke-miterlimit="10" font-family="'Tahoma'" font-size="10px">70</text>
	
		<text transform="matrix(1 0 0 1 507.3253 230.9541)" fill="#262262" stroke="#000000" stroke-width="0.5" stroke-miterlimit="10" font-family="'Tahoma'" font-size="10px">43</text>
	
		<text transform="matrix(1 0 0 1 476.2565 227.0262)" fill="#262262" stroke="#000000" stroke-width="0.5" stroke-miterlimit="10" font-family="'Tahoma'" font-size="10px">13</text>
	
		<text transform="matrix(1 0 0 1 464.7486 199.5315)" fill="#262262" stroke="#000000" stroke-width="0.5" stroke-miterlimit="10" font-family="'Tahoma'" font-size="10px">109</text>
	
		<text transform="matrix(1 0 0 1 497.26 209.0705)" fill="#262262" stroke="#000000" stroke-width="0.5" stroke-miterlimit="10" font-family="'Tahoma'" font-size="10px">0</text>
	
		<text transform="matrix(1 0 0 1 696.9608 176.6326)" fill="#262262" stroke="#000000" stroke-width="0.5" stroke-miterlimit="10" font-family="'Tahoma'" font-size="10px">60</text>
	
		<text transform="matrix(1 0 0 1 698.9188 195.0425)" fill="#262262" stroke="#000000" stroke-width="0.5" stroke-miterlimit="10" font-family="'Tahoma'" font-size="10px">0</text>
	
		<text transform="matrix(1 0 0 1 754.5945 295.6925)" fill="#262262" stroke="#000000" stroke-width="0.5" stroke-miterlimit="10" font-family="'Tahoma'" font-size="12px">605</text>
	
		<text transform="matrix(1 0 0 1 797.7944 402.2477)" fill="#262262" stroke="#000000" stroke-width="0.5" stroke-miterlimit="10" font-family="'Tahoma'" font-size="12px">851</text>
	
		<text transform="matrix(1 0 0 1 748.5503 477.5615)" fill="#262262" stroke="#000000" stroke-width="0.5" stroke-miterlimit="10" font-family="'Tahoma'" font-size="12px">788</text>
	
		<text transform="matrix(1 0 0 1 767.0215 556.2225)" fill="#262262" stroke="#000000" stroke-width="0.5" stroke-miterlimit="10" font-family="'Tahoma'" font-size="12px">280</text>
	
		<text transform="matrix(1 0 0 1 561.9807 727.4918)" fill="#262262" stroke="#000000" stroke-width="0.5" stroke-miterlimit="10" font-family="'Tahoma'" font-size="12px">948</text>
	
		<text transform="matrix(1 0 0 1 437.5217 741.7651)" fill="#262262" stroke="#000000" stroke-width="0.5" stroke-miterlimit="10" font-family="'Tahoma'" font-size="12px">906</text>
	
		<text transform="matrix(1 0 0 1 704.7089 659.9883)" fill="#262262" stroke="#000000" stroke-width="0.5" stroke-miterlimit="10" font-family="'Tahoma'" font-size="12px">929</text>
	
		<text transform="matrix(1 0 0 1 694.6914 295.3453)" fill="#262262" stroke="#000000" stroke-width="0.5" stroke-miterlimit="10" font-family="'Tahoma'" font-size="12px">20</text>
	
		<text transform="matrix(1 0 0 1 607.4268 340.5335)" fill="#262262" stroke="#000000" stroke-width="0.5" stroke-miterlimit="10" font-family="'Tahoma'" font-size="12px">0</text>
	
		<text transform="matrix(1 0 0 1 493.1478 279.4216)" fill="#262262" stroke="#000000" stroke-width="0.5" stroke-miterlimit="10" font-family="'Tahoma'" font-size="12px">1</text>
	
		<text transform="matrix(1 0 0 1 356.5053 323.7971)" fill="#262262" stroke="#000000" stroke-width="0.5" stroke-miterlimit="10" font-family="'Tahoma'" font-size="12px">16</text>
	
		<text transform="matrix(1 0 0 1 631.4215 467.1723)" fill="#262262" stroke="#000000" stroke-width="0.5" stroke-miterlimit="10" font-family="'Tahoma'" font-size="12px">0</text>
	
		<text transform="matrix(1 0 0 1 537.1579 565.3593)" fill="#262262" stroke="#000000" stroke-width="0.5" stroke-miterlimit="10" font-family="'Tahoma'" font-size="12px">1</text>
	
		<text transform="matrix(1 0 0 1 383.5045 559.1869)" fill="#262262" stroke="#000000" stroke-width="0.5" stroke-miterlimit="10" font-family="'Tahoma'" font-size="12px">59</text>
	
		<text transform="matrix(1 0 0 1 316.915 453.5522)" fill="#262262" stroke="#000000" stroke-width="0.5" stroke-miterlimit="10" font-family="'Tahoma'" font-size="12px">4</text>
	
		<text transform="matrix(1 0 0 1 665.6599 213.4527)" fill="#262262" stroke="#000000" stroke-width="0.5" stroke-miterlimit="10" font-family="'Tahoma'" font-size="10px">0</text>
	
		<text transform="matrix(1 0 0 1 683.1628 254.1779)" fill="#262262" stroke="#000000" stroke-width="0.5" stroke-miterlimit="10" font-family="'Tahoma'" font-size="10px">180</text>
	
		<text transform="matrix(1 0 0 1 655.225 279.2825)" fill="#262262" stroke="#000000" stroke-width="0.5" stroke-miterlimit="10" font-family="'Tahoma'" font-size="10px">9</text>
	
		<text transform="matrix(1 0 0 1 643.1613 295.3451)" fill="#262262" stroke="#000000" stroke-width="0.5" stroke-miterlimit="10" font-family="'Tahoma'" font-size="10px">1</text>
	
		<text transform="matrix(1 0 0 1 667.3401 305.9447)" fill="#262262" stroke="#000000" stroke-width="0.5" stroke-miterlimit="10" font-family="'Tahoma'" font-size="10px">0</text>
	
		<text transform="matrix(1 0 0 1 653.4778 323.797)" fill="#262262" stroke="#000000" stroke-width="0.5" stroke-miterlimit="10" font-family="'Tahoma'" font-size="10px">1</text>
	
		<text transform="matrix(1 0 0 1 677.5524 341.5336)" fill="#262262" stroke="#000000" stroke-width="0.5" stroke-miterlimit="10" font-family="'Tahoma'" font-size="10px">6</text>
	
		<text transform="matrix(1 0 0 1 665.1253 385.4905)" fill="#262262" stroke="#000000" stroke-width="0.5" stroke-miterlimit="10" font-family="'Tahoma'" font-size="10px">0</text>
	
		<text transform="matrix(1 0 0 1 624.8901 539.1389)" fill="#262262" stroke="#000000" stroke-width="0.5" stroke-miterlimit="10" font-family="'Tahoma'" font-size="10px">2</text>
	
		<text transform="matrix(1 0 0 1 473.2603 611.6633)" fill="#262262" stroke="#000000" stroke-width="0.5" stroke-miterlimit="10" font-family="'Tahoma'" font-size="10px">75</text>
	
		<text transform="matrix(1 0 0 1 441.9143 659.0623)" fill="#262262" stroke="#000000" stroke-width="0.5" stroke-miterlimit="10" font-family="'Tahoma'" font-size="10px">2</text>
	
		<text transform="matrix(1 0 0 1 419.3622 617.5801)" fill="#262262" stroke="#000000" stroke-width="0.5" stroke-miterlimit="10" font-family="'Tahoma'" font-size="10px">509</text>
	
		<text transform="matrix(1 0 0 1 398.5811 614.0109)" fill="#262262" stroke="#000000" stroke-width="0.5" stroke-miterlimit="10" font-family="'Tahoma'" font-size="10px">9</text>
	
		<text transform="matrix(1 0 0 1 276.6974 601.9829)" fill="#262262" stroke="#000000" stroke-width="0.5" stroke-miterlimit="10" font-family="'Tahoma'" font-size="10px">53</text>
	
		<text transform="matrix(1 0 0 1 340.3744 592.3684)" fill="#262262" stroke="#000000" stroke-width="0.5" stroke-miterlimit="10" font-family="'Tahoma'" font-size="10px">17</text>
	
		<text transform="matrix(1 0 0 1 365.47 597.9272)" fill="#262262" stroke="#000000" stroke-width="0.5" stroke-miterlimit="10" font-family="'Tahoma'" font-size="10px">0</text>
	
		<text transform="matrix(1 0 0 1 370.4733 619.0323)" fill="#262262" stroke="#000000" stroke-width="0.5" stroke-miterlimit="10" font-family="'Tahoma'" font-size="10px">2</text>
	
		<text transform="matrix(1 0 0 1 171.937 571.1213)" fill="#262262" stroke="#000000" stroke-width="0.5" stroke-miterlimit="10" font-family="'Tahoma'" font-size="10px">117</text>
	
		<text transform="matrix(1 0 0 1 213.8009 543.2377)" fill="#262262" stroke="#000000" stroke-width="0.5" stroke-miterlimit="10" font-family="'Tahoma'" font-size="10px">203</text>
	
		<text transform="matrix(1 0 0 1 183.5263 549.238)" fill="#262262" stroke="#000000" stroke-width="0.5" stroke-miterlimit="10" font-family="'Tahoma'" font-size="10px">41</text>
	
		<text transform="matrix(1 0 0 1 218.3145 505.3453)" fill="#262262" stroke="#000000" stroke-width="0.5" stroke-miterlimit="10" font-family="'Tahoma'" font-size="10px">1928</text>
	
		<text transform="matrix(1 0 0 1 250.3276 489.9001)" fill="#262262" stroke="#000000" stroke-width="0.5" stroke-miterlimit="10" font-family="'Tahoma'" font-size="10px">84</text>
	
		<text transform="matrix(1 0 0 1 300.5847 496.6269)" fill="#262262" stroke="#000000" stroke-width="0.5" stroke-miterlimit="10" font-family="'Tahoma'" font-size="10px">0</text>
	
		<text transform="matrix(1 0 0 1 257.3311 460.4708)" fill="#262262" stroke="#000000" stroke-width="0.5" stroke-miterlimit="10" font-family="'Tahoma'" font-size="10px">465</text>
	
		<text transform="matrix(1 0 0 1 205.6787 475.5615)" fill="#262262" stroke="#000000" stroke-width="0.5" stroke-miterlimit="10" font-family="'Tahoma'" font-size="10px">280</text>
	
		<text transform="matrix(1 0 0 1 280.79 444.4152)" fill="#262262" stroke="#000000" stroke-width="0.5" stroke-miterlimit="10" font-family="'Tahoma'" font-size="10px">15</text>
	
		<text transform="matrix(1 0 0 1 265.722 421.0425)" fill="#262262" stroke="#000000" stroke-width="0.5" stroke-miterlimit="10" font-family="'Tahoma'" font-size="10px">6</text>
	
		<text transform="matrix(1 0 0 1 307.3145 385.231)" fill="#262262" stroke="#000000" stroke-width="0.5" stroke-miterlimit="10" font-family="'Tahoma'" font-size="10px">0</text>
	
		<text transform="matrix(1 0 0 1 254.4025 336.5336)" fill="#262262" stroke="#000000" stroke-width="0.5" stroke-miterlimit="10" font-family="'Tahoma'" font-size="10px">2</text>
	
		<text transform="matrix(1 0 0 1 281.6558 288.3495)" fill="#262262" stroke="#000000" stroke-width="0.5" stroke-miterlimit="10" font-family="'Tahoma'" font-size="10px">19</text>
	
		<text transform="matrix(1 0 0 1 308.4163 329.4335)" fill="#262262" stroke="#000000" stroke-width="0.5" stroke-miterlimit="10" font-family="'Tahoma'" font-size="10px">0</text>
	
		<text transform="matrix(1 0 0 1 315.836 301.9386)" fill="#262262" stroke="#000000" stroke-width="0.5" stroke-miterlimit="10" font-family="'Tahoma'" font-size="10px">0</text>
	
		<text transform="matrix(1 0 0 1 215.5655 376.2531)" fill="#262262" stroke="#000000" stroke-width="0.5" stroke-miterlimit="10" font-family="'Tahoma'" font-size="10px">97</text>
	
		<text transform="matrix(1 0 0 1 283.3972 471.9617)" fill="#262262" stroke="#000000" stroke-width="0.5" stroke-miterlimit="10" font-family="'Tahoma'" font-size="10px">2</text>
	
		<text transform="matrix(1 0 0 1 275.0653 541.871)" fill="#262262" stroke="#000000" stroke-width="0.5" stroke-miterlimit="10" font-family="'Tahoma'" font-size="10px">16</text>
	
		<text transform="matrix(1 0 0 1 332.4756 533.3319)" fill="#262262" stroke="#000000" stroke-width="0.5" stroke-miterlimit="10" font-family="'Tahoma'" font-size="10px">133</text>
	
		<text transform="matrix(1 0 0 1 405.9556 707.9451)" fill="#262262" stroke="#000000" stroke-width="0.5" stroke-miterlimit="10" font-family="'Tahoma'" font-size="10px">61</text>
	
		<text transform="matrix(1 0 0 1 395.7416 751.1334)" fill="#262262" stroke="#000000" stroke-width="0.5" stroke-miterlimit="10" font-family="'Tahoma'" font-size="10px">87</text>
	
		<text transform="matrix(1 0 0 1 294.3181 660.9879)" fill="#262262" stroke="#000000" stroke-width="0.5" stroke-miterlimit="10" font-family="'Tahoma'" font-size="10px">395</text>
	
		<text transform="matrix(1 0 0 1 342.0356 632.3353)" fill="#262262" stroke="#000000" stroke-width="0.5" stroke-miterlimit="10" font-family="'Tahoma'" font-size="10px">121</text>
	
		<text transform="matrix(1 0 0 1 379.0564 671.6184)" fill="#262262" stroke="#000000" stroke-width="0.5" stroke-miterlimit="10" font-family="'Tahoma'" font-size="10px">419</text>
	
		<text transform="matrix(1 0 0 1 385.7555 638.9883)" fill="#262262" stroke="#000000" stroke-width="0.5" stroke-miterlimit="10" font-family="'Tahoma'" font-size="10px">3</text>
	
		<text transform="matrix(1 0 0 1 393.4396 729.4913)" fill="#262262" stroke="#000000" stroke-width="0.5" stroke-miterlimit="10" font-family="'Tahoma'" font-size="10px">99</text>
	
		<text transform="matrix(1 0 0 1 488.1312 694.2296)" fill="#262262" stroke="#000000" stroke-width="0.5" stroke-miterlimit="10" font-family="'Tahoma'" font-size="10px">28</text>
	
		<text transform="matrix(1 0 0 1 512.8036 639.442)" fill="#262262" stroke="#000000" stroke-width="0.5" stroke-miterlimit="10" font-family="'Tahoma'" font-size="10px">284</text>
	
		<text transform="matrix(1 0 0 1 540.0562 618.0319)" fill="#262262" stroke="#000000" stroke-width="0.5" stroke-miterlimit="10" font-family="'Tahoma'" font-size="10px">13</text>
	
		<text transform="matrix(1 0 0 1 637.3513 605.9897)" fill="#262262" stroke="#000000" stroke-width="0.5" stroke-miterlimit="10" font-family="'Tahoma'" font-size="10px">20</text>
	
		<text transform="matrix(1 0 0 1 666.847 691.7303)" fill="#262262" stroke="#000000" stroke-width="0.5" stroke-miterlimit="10" font-family="'Tahoma'" font-size="10px">34</text>
	
		<text transform="matrix(1 0 0 1 592.9301 685.5936)" fill="#262262" stroke="#000000" stroke-width="0.5" stroke-miterlimit="10" font-family="'Tahoma'" font-size="10px">80</text>
	
		<text transform="matrix(1 0 0 1 610.1468 662.9885)" fill="#262262" stroke="#000000" stroke-width="0.5" stroke-miterlimit="10" font-family="'Tahoma'" font-size="10px">656</text>
	
		<text transform="matrix(1 0 0 1 589.2321 634.4418)" fill="#262262" stroke="#000000" stroke-width="0.5" stroke-miterlimit="10" font-family="'Tahoma'" font-size="10px">9</text>
	
		<text transform="matrix(1 0 0 1 560.8573 636.4423)" fill="#262262" stroke="#000000" stroke-width="0.5" stroke-miterlimit="10" font-family="'Tahoma'" font-size="10px">10</text>
	
		<text transform="matrix(1 0 0 1 576.2689 615.011)" fill="#262262" stroke="#000000" stroke-width="0.5" stroke-miterlimit="10" font-family="'Tahoma'" font-size="10px">2</text>
	
		<text transform="matrix(1 0 0 1 583.2335 594.3693)" fill="#262262" stroke="#000000" stroke-width="0.5" stroke-miterlimit="10" font-family="'Tahoma'" font-size="10px">2</text>
	
		<text transform="matrix(1 0 0 1 690.3839 700.7721)" fill="#262262" stroke="#000000" stroke-width="0.5" stroke-miterlimit="10" font-family="'Tahoma'" font-size="10px">156</text>
	
		<text transform="matrix(1 0 0 1 655.2451 662.9887)" fill="#262262" stroke="#000000" stroke-width="0.5" stroke-miterlimit="10" font-family="'Tahoma'" font-size="10px">357</text>
	
		<text transform="matrix(1 0 0 1 722.4664 405.5739)" fill="#262262" stroke="#000000" stroke-width="0.5" stroke-miterlimit="10" font-family="'Tahoma'" font-size="10px">28</text>
	
		<text transform="matrix(1 0 0 1 684.6959 447.4151)" fill="#262262" stroke="#000000" stroke-width="0.5" stroke-miterlimit="10" font-family="'Tahoma'" font-size="10px">100</text>
	
		<text transform="matrix(1 0 0 1 715.4275 471.9617)" fill="#262262" stroke="#000000" stroke-width="0.5" stroke-miterlimit="10" font-family="'Tahoma'" font-size="10px">277</text>
	
		<text transform="matrix(1 0 0 1 702.6486 494.9511)" fill="#262262" stroke="#000000" stroke-width="0.5" stroke-miterlimit="10" font-family="'Tahoma'" font-size="10px">0</text>
	
		<text transform="matrix(1 0 0 1 696.94 596.9269)" fill="#262262" stroke="#000000" stroke-width="0.5" stroke-miterlimit="10" font-family="'Tahoma'" font-size="10px">44</text>
	
		<text transform="matrix(1 0 0 1 671.6599 531.2129)" fill="#262262" stroke="#000000" stroke-width="0.5" stroke-miterlimit="10" font-family="'Tahoma'" font-size="10px">0</text>
	
		<text transform="matrix(1 0 0 1 674.6566 494.951)" fill="#262262" stroke="#000000" stroke-width="0.5" stroke-miterlimit="10" font-family="'Tahoma'" font-size="10px">0</text>
	
		<text transform="matrix(1 0 0 1 687.3812 472.9615)" fill="#262262" stroke="#000000" stroke-width="0.5" stroke-miterlimit="10" font-family="'Tahoma'" font-size="10px">58</text>
	
		<text transform="matrix(1 0 0 1 768.0912 434.026)" fill="#262262" stroke="#000000" stroke-width="0.5" stroke-miterlimit="10" font-family="'Tahoma'" font-size="10px">206</text>
	
		<text transform="matrix(1 0 0 1 802.9436 452.5518)" fill="#262262" stroke="#000000" stroke-width="0.5" stroke-miterlimit="10" font-family="'Tahoma'" font-size="10px">1</text>
	
		<text transform="matrix(1 0 0 1 765.1348 503.2031)" fill="#262262" stroke="#000000" stroke-width="0.5" stroke-miterlimit="10" font-family="'Tahoma'" font-size="10px">23</text>
	
		<text transform="matrix(1 0 0 1 731.8241 358.479)" fill="#262262" stroke="#000000" stroke-width="0.5" stroke-miterlimit="10" font-family="'Tahoma'" font-size="10px">267</text>
	
		<text transform="matrix(1 0 0 1 826.3467 443.2772)" fill="#262262" stroke="#000000" stroke-width="0.5" stroke-miterlimit="10" font-family="'Tahoma'" font-size="10px">74</text>
	
		<text transform="matrix(1 0 0 1 609.828 236.3257)" fill="#262262" stroke="#000000" stroke-width="0.5" stroke-miterlimit="10" font-family="'Tahoma'" font-size="10px">0</text>
	
		<text transform="matrix(1 0 0 1 537.0373 218.5893)" fill="#262262" stroke="#000000" stroke-width="0.5" stroke-miterlimit="10" font-family="'Tahoma'" font-size="10px">0</text>
	
		<text transform="matrix(1 0 0 1 560.268 260.4856)" fill="#262262" stroke="#000000" stroke-width="0.5" stroke-miterlimit="10" font-family="'Tahoma'" font-size="10px">0</text>
	
		<text transform="matrix(1 0 0 1 616.0083 281.2827)" fill="#262262" stroke="#000000" stroke-width="0.5" stroke-miterlimit="10" font-family="'Tahoma'" font-size="10px">0</text>
	
		<text transform="matrix(1 0 0 1 378.3104 125.5554)" fill="#262262" stroke="#000000" stroke-width="0.5" stroke-miterlimit="10" font-family="'Tahoma'" font-size="12px">16</text>
	
		<text transform="matrix(1 0 0 1 271.6994 191.6759)" fill="#262262" stroke="#000000" stroke-width="0.5" stroke-miterlimit="10" font-family="'Tahoma'" font-size="12px">423</text>
	
		<text transform="matrix(1 0 0 1 171.3379 310.0757)" fill="#262262" stroke="#000000" stroke-width="0.5" stroke-miterlimit="10" font-family="'Tahoma'" font-size="12px">630</text>
	
		<text transform="matrix(1 0 0 1 171.7449 433.026)" fill="#262262" stroke="#000000" stroke-width="0.5" stroke-miterlimit="10" font-family="'Tahoma'" font-size="12px">924</text>
	
		<text transform="matrix(1 0 0 1 212.3274 594.3689)" fill="#262262" stroke="#000000" stroke-width="0.5" stroke-miterlimit="10" font-family="'Tahoma'" font-size="12px">752</text>
	
		<text transform="matrix(1 0 0 1 413.2006 146.7548)" fill="#262262" stroke="#000000" stroke-width="0.5" stroke-miterlimit="10" font-family="'Tahoma'" font-size="12px">8</text>
	
		<text transform="matrix(1 0 0 1 457.5778 164.7228)" fill="#262262" stroke="#000000" stroke-width="0.5" stroke-miterlimit="10" font-family="'Tahoma'" font-size="12px">709</text>
	
		<text transform="matrix(1 0 0 1 534.0994 127.5555)" fill="#262262" stroke="#000000" stroke-width="0.5" stroke-miterlimit="10" font-family="'Tahoma'" font-size="12px">45</text>
	
		<text transform="matrix(1 0 0 1 649.8556 169.7229)" fill="#262262" stroke="#000000" stroke-width="0.5" stroke-miterlimit="10" font-family="'Tahoma'" font-size="12px">422</text>
	
		<text transform="matrix(1 0 0 1 579.3986 186.4593)" fill="#262262" stroke="#000000" stroke-width="0.5" stroke-miterlimit="10" font-family="'Tahoma'" font-size="12px">19</text>
	
		<text transform="matrix(1 0 0 1 473.0342 139.8288)" fill="#262262" stroke="#000000" stroke-width="0.5" stroke-miterlimit="10" font-family="'Tahoma'" font-size="12px">2</text>
	
		<text transform="matrix(1 0 0 1 424.8279 113.4569)" fill="#262262" stroke="#000000" stroke-width="0.5" stroke-miterlimit="10" font-family="'Tahoma'" font-size="10px">0</text>
	
		<text transform="matrix(1 0 0 1 283.049 134.3825)" fill="#262262" stroke="#000000" stroke-width="0.5" stroke-miterlimit="10" font-family="'Tahoma'" font-size="36px">50</text>
	
		<text transform="matrix(1 0 0 1 117.6681 359.0506)" fill="#262262" stroke="#000000" stroke-width="0.5" stroke-miterlimit="10" font-family="'Tahoma'" font-size="36px">807</text>
	
		<text transform="matrix(1 0 0 1 190.5263 674.7299)" fill="#262262" stroke="#000000" stroke-width="0.5" stroke-miterlimit="10" font-family="'Tahoma'" font-size="36px">56</text>
	
		<text transform="matrix(1 0 0 1 496.7615 799.7754)" fill="#262262" stroke="#000000" stroke-width="0.5" stroke-miterlimit="10" font-family="'Tahoma'" font-size="36px">392</text>
	
		<text transform="matrix(1 0 0 1 756.2908 640.3877)" fill="#262262" stroke="#000000" stroke-width="0.5" stroke-miterlimit="10" font-family="'Tahoma'" font-size="36px">416</text>
	
		<text transform="matrix(1 0 0 1 799.6548 343.658)" fill="#262262" stroke="#000000" stroke-width="0.5" stroke-miterlimit="10" font-family="'Tahoma'" font-size="36px">232</text>
	
		<text transform="matrix(1 0 0 1 484.3047 443.2769)" fill="#FFFFFF" stroke="#000000" stroke-width="0.5" stroke-miterlimit="10" font-family="'Tahoma'" font-size="36px">1</text>
	
		<text transform="matrix(1 0 0 1 642.12 54.5105)" fill="#262262" stroke="#000000" stroke-width="0.5" stroke-miterlimit="10" font-family="'Tahoma'" font-size="24px">A.thaliana</text>
	
		<text transform="matrix(1 0 0 1 763.7157 154.723)" fill="#262262" stroke="#000000" stroke-width="0.5" stroke-miterlimit="10" font-family="'Tahoma'" font-size="24px">S.pombe</text>
	
		<text transform="matrix(1 0 0 1 781.4679 716.405)" fill="#262262" stroke="#000000" stroke-width="0.5" stroke-miterlimit="10" font-family="'Tahoma'" font-size="24px">S.cerevisiae</text>
	
		<text transform="matrix(1 0 0 1 622.3279 829.1023)" fill="#262262" stroke="#000000" stroke-width="0.5" stroke-miterlimit="10" font-family="'Tahoma'" font-size="24px">H.sapiens</text>
	
		<text transform="matrix(1 0 0 1 74.6655 751.1335)" fill="#262262" stroke="#000000" stroke-width="0.5" stroke-miterlimit="10" font-family="'Tahoma'" font-size="24px">D.rerio</text>
	
		<text transform="matrix(1 0 0 1 4.9135 266.1099)" fill="#262262" stroke="#000000" stroke-width="0.5" stroke-miterlimit="10" font-family="'Tahoma'" font-size="21px">D.melanogaster</text>
	
		<text transform="matrix(1 0 0 1 176.3187 78.1724)" fill="#262262" stroke="#000000" stroke-width="0.5" stroke-miterlimit="10" font-family="'Tahoma'" font-size="24px">C.elegans</text>
</g>
</svg>
