<?xml version="1.0" encoding="utf-8"?>
<!-- Generator: Adobe Illustrator 18.1.1, SVG Export Plug-In . SVG Version: 6.00 Build 0)  -->
<svg version="1.1" xmlns="http://www.w3.org/2000/svg" xmlns:xlink="http://www.w3.org/1999/xlink" x="0px" y="0px"
	 viewBox="0 0 930 850" enable-background="new 0 0 930 850" xml:space="preserve">
<g id="Area_A">
	<path opacity="0.2" fill="#7F1416" stroke="#000000" stroke-width="3" stroke-miterlimit="10" d="M447,34.5
		c64.4-11.3,187.1,22.6,234,99c27,44,3.8,61.3-12,88c-16,27-51,42-56,58s-5,16-5,16s4,29,18,41s129,60,154,91s33,37,5,69
		s-139,40-191,63s-67,51-36,85s44,38,83,35s50,13,27,49s-89.9,39.6-138,27c-42-11-130-56-154-85s-66.4-68.8-36-151
		c27-73-3.7-109-10.8-127c-7.2-18-29.2-16-48.2-38s-17-36,0-56s45-36,27-71S344,52.5,447,34.5z"/>
</g>
<g id="Area_B">
	<path opacity="0.2" fill="#FEDA00" stroke="#000000" stroke-width="3" stroke-miterlimit="10" d="M411,107.6
		c-12.7-26.2-33-39-76-36s-139,40-169,82s-54,106-25,179s62,81,81,88s24,28,29,55s14,49,59,41s75-21,124,35s74,100,160,95
		s229-60.6,231-173c0.8-47-39.4-68.7-58-23c-9.1,22.3-29,38-50,38s-69-5-72-34s40.1-128.4,63-185c15.5-38.4,22.5-105-71-84
		c-49,11-94,42-125,49s-31,7-31,7s-39,3-49-36S426,138.6,411,107.6z"/>
</g>
<g id="Area_C">
	<path opacity="0.2" fill="#78C143" stroke="#000000" stroke-width="3" stroke-miterlimit="10" d="M227,279c-32-24-97-60-134,35
		s-35,198,0,234s84,66,134,73s58.2,1.5,81-15s54,5.9,74,18c20,12,47,3,57-19s10-22,10-22l0,0c0,0,8-65,116-61s141-23,184-134
		s5-173-21-209s-86-21-59,26s-12,79-23,86s-42,36-84-18s-43-100-91-153s-73.8-40.6-99,23c-14.2,35.9-20,86-34,130S271,312,227,279z"
		/>
</g>
<g id="Area_D">
	<path opacity="0.2" fill="#E7E6AA" stroke="#000000" stroke-width="3" stroke-miterlimit="10" d="M208,510.1
		c-51.7,15.2-110,52.8-63,135.4s157,182.6,259,125.6s104-90,103-113s46-42,59-46s45-18.3,26-54c-19-35.7-59.2-81,5.9-153
		c65.1-72,78.9-129,0-238C519,58.1,463.1,62.2,437,62.1c-34-0.1-102.4,39.1-26,64c30.7,10,50,44,50,63s26.2,70.7-71.1,60
		c-68.7-7.6-101.9-16.9-145.9-27c-83-19-114,36-53,109S327.6,475,208,510.1z"/>
</g>
<g id="Area_E">
	<path opacity="0.2" fill="#283277" stroke="#000000" stroke-width="3" stroke-miterlimit="10" d="M367,682c-22,64,3,145,167.1,129
		c181.3-17.7,171.7-152.3,172.3-193.6C707,576,695,554,680,540s-19-48-9-68s28-45-29-63s-97.2-16.6-109.2-111
		C520.7,203.6,451,160,329,152s-189,54-189,98s29.2,40.3,62.1,14.7C235,239,264,261,281,276s17,15,17,15s38,44-75,129
		S72.2,569.6,266.5,571C409,572,390.9,612.4,367,682z"/>
</g>
<g id="Area_F">
	<path opacity="0.2" fill="#4F53A3" stroke="#000000" stroke-width="3" stroke-miterlimit="10" d="M603,655
		c28.8,42.6,90.8,113.2,198.7-29c74.3-98,37.4-173,14.3-216c-7.1-13.3-33-38.2-62-62c-20.6-16.9-40-20-62-22s-45,3.7-60.2-25.6
		C616.7,271.2,595,234,541,288s-98,19-140,3s-74.5-52.8-167.8-5.9S111,415,102,455s8.8,86,24.9,106c16.1,20,53,33.4,45.4-35
		c-2.3-21,19-38.8,46.7-53s64-33,81,38s-9,138,13,191s80,47,136-29S537.4,557.7,603,655z"/>
</g>
<g id="Area_G">
	<path opacity="0.2" fill="#CA4B9B" stroke="#000000" stroke-width="3" stroke-miterlimit="10" d="M724,458c48.9,9.6,150,15,106-148
		S711,139,628,143s-94,22-108,42s-23.7,33.2-54.8,30.9c-31.2-2.2-64.7-13.3-67.2,44.5c-2.1,47.6,20,80.5-93,127.5
		s-110.9,148.4-73,269c17.5,55.7,65.7,97,105,112s71-15,38-49s-41.1-51.3-22-89.7C372.1,592,393,569,508,659s144.8,70,154,20.9
		c9.2-49.1-16.5-111.4-25.2-161.5C625,450,690.2,451.3,724,458z"/>
</g>
<g id="Text">
	
		<text transform="matrix(1 0 0 1 580.4585 112.05)" fill="#262262" stroke="#000000" stroke-width="0.5" stroke-miterlimit="10" font-family="'Tahoma'" font-size="36">50</text>
	
		<text transform="matrix(1 0 0 1 380.5392 99.0872)" fill="#262262" stroke="#000000" stroke-width="0.5" stroke-miterlimit="10" font-family="'Tahoma'" font-size="10">68</text>
	
		<text transform="matrix(1 0 0 1 322.7687 195.0424)" fill="#262262" stroke="#000000" stroke-width="0.5" stroke-miterlimit="10" font-family="'Tahoma'" font-size="10">26</text>
	
		<text transform="matrix(1 0 0 1 375.0065 199.5314)" fill="#262262" stroke="#000000" stroke-width="0.5" stroke-miterlimit="10" font-family="'Tahoma'" font-size="10">1</text>
	
		<text transform="matrix(1 0 0 1 408.1419 240.4931)" fill="#262262" stroke="#000000" stroke-width="0.5" stroke-miterlimit="10" font-family="'Tahoma'" font-size="10">ABCEG</text>
	
		<text transform="matrix(1 0 0 1 356.4365 264.1823)" fill="#262262" stroke="#000000" stroke-width="0.5" stroke-miterlimit="10" font-family="'Tahoma'" font-size="10">5</text>
	
		<text transform="matrix(1 0 0 1 316.9887 256.1781)" fill="#262262" stroke="#000000" stroke-width="0.5" stroke-miterlimit="10" font-family="'Tahoma'" font-size="10">17</text>
	
		<text transform="matrix(1 0 0 1 299.9645 284.4218)" fill="#262262" stroke="#000000" stroke-width="0.5" stroke-miterlimit="10" font-family="'Tahoma'" font-size="10">ABDEF</text>
	
		<text transform="matrix(1 0 0 1 278.9071 275.1728)" fill="#262262" stroke="#000000" stroke-width="0.5" stroke-miterlimit="10" font-family="'Tahoma'" font-size="10">BDEF</text>
	
		<text transform="matrix(1 0 0 1 231.9411 242.4933)" fill="#262262" stroke="#000000" stroke-width="0.5" stroke-miterlimit="10" font-family="'Tahoma'" font-size="10">515</text>
	
		<text transform="matrix(1 0 0 1 186.7816 291.8718)" fill="#262262" stroke="#000000" stroke-width="0.5" stroke-miterlimit="10" font-family="'Tahoma'" font-size="10">430</text>
	
		<text transform="matrix(1 0 0 1 165.8984 270.1106)" fill="#262262" stroke="#000000" stroke-width="0.5" stroke-miterlimit="10" font-family="'Tahoma'" font-size="10">192</text>
	
		<text transform="matrix(1 0 0 1 141.7225 269.1104)" fill="#262262" stroke="#000000" stroke-width="0.5" stroke-miterlimit="10" font-family="'Tahoma'" font-size="10">70</text>
	
		<text transform="matrix(1 0 0 1 231.0128 270.1104)" fill="#262262" stroke="#000000" stroke-width="0.5" stroke-miterlimit="10" font-family="'Tahoma'" font-size="10">2211</text>
	
		<text transform="matrix(1 0 0 1 469.3253 230.9541)" fill="#262262" stroke="#000000" stroke-width="0.5" stroke-miterlimit="10" font-family="'Tahoma'" font-size="10">ACDEG</text>
	
		<text transform="matrix(1 0 0 1 439.2669 227.0262)" fill="#262262" stroke="#000000" stroke-width="0.5" stroke-miterlimit="10" font-family="'Tahoma'" font-size="10">ACEG</text>
	
		<text transform="matrix(1 0 0 1 435.7486 199.5315)" fill="#262262" stroke="#000000" stroke-width="0.5" stroke-miterlimit="10" font-family="'Tahoma'" font-size="10">10</text>
	
		<text transform="matrix(1 0 0 1 464.26 209.0705)" fill="#262262" stroke="#000000" stroke-width="0.5" stroke-miterlimit="10" font-family="'Tahoma'" font-size="10">18</text>
	
		<text transform="matrix(1 0 0 1 668.9608 176.6326)" fill="#262262" stroke="#000000" stroke-width="0.5" stroke-miterlimit="10" font-family="'Tahoma'" font-size="10">ACG</text>
	
		<text transform="matrix(1 0 0 1 662.551 195.0426)" fill="#262262" stroke="#000000" stroke-width="0.5" stroke-miterlimit="10" font-family="'Tahoma'" font-size="10">ABCG</text>
	
		<text transform="matrix(1 0 0 1 726.5945 295.6925)" fill="#262262" stroke="#000000" stroke-width="0.5" stroke-miterlimit="10" font-family="'Tahoma'" font-size="12">CG</text>
	
		<text transform="matrix(1 0 0 1 769.7944 402.2477)" fill="#262262" stroke="#000000" stroke-width="0.5" stroke-miterlimit="10" font-family="'Tahoma'" font-size="12">FG</text>
	
		<text transform="matrix(1 0 0 1 720.5503 477.5615)" fill="#262262" stroke="#000000" stroke-width="0.5" stroke-miterlimit="10" font-family="'Tahoma'" font-size="12">AF</text>
	
		<text transform="matrix(1 0 0 1 739.0215 556.2225)" fill="#262262" stroke="#000000" stroke-width="0.5" stroke-miterlimit="10" font-family="'Tahoma'" font-size="12">BF</text>
	
		<text transform="matrix(1 0 0 1 533.9807 727.4918)" fill="#262262" stroke="#000000" stroke-width="0.5" stroke-miterlimit="10" font-family="'Tahoma'" font-size="12">255</text>
	
		<text transform="matrix(1 0 0 1 409.5217 741.7651)" fill="#262262" stroke="#000000" stroke-width="0.5" stroke-miterlimit="10" font-family="'Tahoma'" font-size="12">1035</text>
	
		<text transform="matrix(1 0 0 1 676.7089 659.9883)" fill="#262262" stroke="#000000" stroke-width="0.5" stroke-miterlimit="10" font-family="'Tahoma'" font-size="12">EF</text>
	
		<text transform="matrix(1 0 0 1 663.6914 295.3453)" fill="#262262" stroke="#000000" stroke-width="0.5" stroke-miterlimit="10" font-family="'Tahoma'" font-size="12">BCG</text>
	
		<text transform="matrix(1 0 0 1 557.498 340.5335)" fill="#262262" stroke="#000000" stroke-width="0.5" stroke-miterlimit="10" font-family="'Tahoma'" font-size="12">ABCDFG</text>
	
		<text transform="matrix(1 0 0 1 447.1478 284.4216)" fill="#262262" stroke="#000000" stroke-width="0.5" stroke-miterlimit="10" font-family="'Tahoma'" font-size="12">ABCDEG</text>
	
		<text transform="matrix(1 0 0 1 328.5053 323.7971)" fill="#262262" stroke="#000000" stroke-width="0.5" stroke-miterlimit="10" font-family="'Tahoma'" font-size="12">ABCDEF</text>
	
		<text transform="matrix(1 0 0 1 584.4215 467.1723)" fill="#262262" stroke="#000000" stroke-width="0.5" stroke-miterlimit="10" font-family="'Tahoma'" font-size="12">ABCEFG</text>
	
		<text transform="matrix(1 0 0 1 499.1579 565.3593)" fill="#262262" stroke="#000000" stroke-width="0.5" stroke-miterlimit="10" font-family="'Tahoma'" font-size="12">ABDEFG</text>
	
		<text transform="matrix(1 0 0 1 355.5045 559.1869)" fill="#262262" stroke="#000000" stroke-width="0.5" stroke-miterlimit="10" font-family="'Tahoma'" font-size="12">ACDEFG</text>
	
		<text transform="matrix(1 0 0 1 288.915 453.5522)" fill="#262262" stroke="#000000" stroke-width="0.5" stroke-miterlimit="10" font-family="'Tahoma'" font-size="12">BCDEFG</text>
	
		<text transform="matrix(1 0 0 1 637.6599 213.4527)" fill="#262262" stroke="#000000" stroke-width="0.5" stroke-miterlimit="10" font-family="'Tahoma'" font-size="10">ABG</text>
	
		<text transform="matrix(1 0 0 1 655.1628 254.1779)" fill="#262262" stroke="#000000" stroke-width="0.5" stroke-miterlimit="10" font-family="'Tahoma'" font-size="10">BG</text>
	
		<text transform="matrix(1 0 0 1 627.225 279.2825)" fill="#262262" stroke="#000000" stroke-width="0.5" stroke-miterlimit="10" font-family="'Tahoma'" font-size="10">BDG</text>
	
		<text transform="matrix(1 0 0 1 606.7654 295.3451)" fill="#262262" stroke="#000000" stroke-width="0.5" stroke-miterlimit="10" font-family="'Tahoma'" font-size="10">BDFG</text>
	
		<text transform="matrix(1 0 0 1 632.9166 305.9448)" fill="#262262" stroke="#000000" stroke-width="0.5" stroke-miterlimit="10" font-family="'Tahoma'" font-size="10">BCDG</text>
	
		<text transform="matrix(1 0 0 1 616.4779 323.7969)" fill="#262262" stroke="#000000" stroke-width="0.5" stroke-miterlimit="10" font-family="'Tahoma'" font-size="10">BCDFG</text>
	
		<text transform="matrix(1 0 0 1 649.5524 341.5336)" fill="#262262" stroke="#000000" stroke-width="0.5" stroke-miterlimit="10" font-family="'Tahoma'" font-size="10">BCFG</text>
	
		<text transform="matrix(1 0 0 1 625.9127 385.4904)" fill="#262262" stroke="#000000" stroke-width="0.5" stroke-miterlimit="10" font-family="'Tahoma'" font-size="10">ABCFG</text>
	
		<text transform="matrix(1 0 0 1 596.8901 539.1389)" fill="#262262" stroke="#000000" stroke-width="0.5" stroke-miterlimit="10" font-family="'Tahoma'" font-size="10">ABEFG</text>
	
		<text transform="matrix(1 0 0 1 445.2603 611.6633)" fill="#262262" stroke="#000000" stroke-width="0.5" stroke-miterlimit="10" font-family="'Tahoma'" font-size="10">ADEFG</text>
	
		<text transform="matrix(1 0 0 1 413.9143 659.0623)" fill="#262262" stroke="#000000" stroke-width="0.5" stroke-miterlimit="10" font-family="'Tahoma'" font-size="10">ADEF</text>
	
		<text transform="matrix(1 0 0 1 391.3622 617.5801)" fill="#262262" stroke="#000000" stroke-width="0.5" stroke-miterlimit="10" font-family="'Tahoma'" font-size="10">ACDEF</text>
	
		<text transform="matrix(1 0 0 1 363.5811 614.0109)" fill="#262262" stroke="#000000" stroke-width="0.5" stroke-miterlimit="10" font-family="'Tahoma'" font-size="10">ACDF</text>
	
		<text transform="matrix(1 0 0 1 248.6974 601.9829)" fill="#262262" stroke="#000000" stroke-width="0.5" stroke-miterlimit="10" font-family="'Tahoma'" font-size="10">CDG</text>
	
		<text transform="matrix(1 0 0 1 304.3744 592.3684)" fill="#262262" stroke="#000000" stroke-width="0.5" stroke-miterlimit="10" font-family="'Tahoma'" font-size="10">CDFG</text>
	
		<text transform="matrix(1 0 0 1 337.47 597.9272)" fill="#262262" stroke="#000000" stroke-width="0.5" stroke-miterlimit="10" font-family="'Tahoma'" font-size="10">ACDFG</text>
	
		<text transform="matrix(1 0 0 1 335.4733 621.0323)" fill="#262262" stroke="#000000" stroke-width="0.5" stroke-miterlimit="10" font-family="'Tahoma'" font-size="10">ADFG</text>
	
		<text transform="matrix(1 0 0 1 143.937 571.1213)" fill="#262262" stroke="#000000" stroke-width="0.5" stroke-miterlimit="10" font-family="'Tahoma'" font-size="10">CDF</text>
	
		<text transform="matrix(1 0 0 1 182.8009 549.2377)" fill="#262262" stroke="#000000" stroke-width="0.5" stroke-miterlimit="10" font-family="'Tahoma'" font-size="10">365</text>
	
		<text transform="matrix(1 0 0 1 148.5263 551.238)" fill="#262262" stroke="#000000" stroke-width="0.5" stroke-miterlimit="10" font-family="'Tahoma'" font-size="10">CDEF</text>
	
		<text transform="matrix(1 0 0 1 190.3145 505.3453)" fill="#262262" stroke="#000000" stroke-width="0.5" stroke-miterlimit="10" font-family="'Tahoma'" font-size="10">513</text>
	
		<text transform="matrix(1 0 0 1 222.3276 489.9001)" fill="#262262" stroke="#000000" stroke-width="0.5" stroke-miterlimit="10" font-family="'Tahoma'" font-size="10">CEG</text>
	
		<text transform="matrix(1 0 0 1 259.5847 498.6269)" fill="#262262" stroke="#000000" stroke-width="0.5" stroke-miterlimit="10" font-family="'Tahoma'" font-size="10">BCDEG</text>
	
		<text transform="matrix(1 0 0 1 222.5976 460.4708)" fill="#262262" stroke="#000000" stroke-width="0.5" stroke-miterlimit="10" font-family="'Tahoma'" font-size="10">CEFG</text>
	
		<text transform="matrix(1 0 0 1 177.6787 475.5615)" fill="#262262" stroke="#000000" stroke-width="0.5" stroke-miterlimit="10" font-family="'Tahoma'" font-size="10">CEF</text>
	
		<text transform="matrix(1 0 0 1 240.7291 444.4151)" fill="#262262" stroke="#000000" stroke-width="0.5" stroke-miterlimit="10" font-family="'Tahoma'" font-size="10">BCEFG</text>
	
		<text transform="matrix(1 0 0 1 231.7219 419.0425)" fill="#262262" stroke="#000000" stroke-width="0.5" stroke-miterlimit="10" font-family="'Tahoma'" font-size="10">BCEF</text>
	
		<text transform="matrix(1 0 0 1 274.3145 385.231)" fill="#262262" stroke="#000000" stroke-width="0.5" stroke-miterlimit="10" font-family="'Tahoma'" font-size="10">BCDEF</text>
	
		<text transform="matrix(1 0 0 1 225.4025 340.5336)" fill="#262262" stroke="#000000" stroke-width="0.5" stroke-miterlimit="10" font-family="'Tahoma'" font-size="10">BCDF</text>
	
		<text transform="matrix(1 0 0 1 253.6558 288.3495)" fill="#262262" stroke="#000000" stroke-width="0.5" stroke-miterlimit="10" font-family="'Tahoma'" font-size="10">BDF</text>
	
		<text transform="matrix(1 0 0 1 270.4163 329.4335)" fill="#262262" stroke="#000000" stroke-width="0.5" stroke-miterlimit="10" font-family="'Tahoma'" font-size="10">ABCDF</text>
	
		<text transform="matrix(1 0 0 1 281.836 301.9386)" fill="#262262" stroke="#000000" stroke-width="0.5" stroke-miterlimit="10" font-family="'Tahoma'" font-size="10">ABDF</text>
	
		<text transform="matrix(1 0 0 1 187.5655 376.2531)" fill="#262262" stroke="#000000" stroke-width="0.5" stroke-miterlimit="10" font-family="'Tahoma'" font-size="10">BCF</text>
	
		<text transform="matrix(1 0 0 1 246.3364 475.5614)" fill="#262262" stroke="#000000" stroke-width="0.5" stroke-miterlimit="10" font-family="'Tahoma'" font-size="10">BCEG</text>
	
		<text transform="matrix(1 0 0 1 238.0653 545.871)" fill="#262262" stroke="#000000" stroke-width="0.5" stroke-miterlimit="10" font-family="'Tahoma'" font-size="10">CDEG</text>
	
		<text transform="matrix(1 0 0 1 304.4756 533.3319)" fill="#262262" stroke="#000000" stroke-width="0.5" stroke-miterlimit="10" font-family="'Tahoma'" font-size="10">CDEFG</text>
	
		<text transform="matrix(1 0 0 1 377.9556 707.9451)" fill="#262262" stroke="#000000" stroke-width="0.5" stroke-miterlimit="10" font-family="'Tahoma'" font-size="10">DEF</text>
	
		<text transform="matrix(1 0 0 1 367.7416 751.1334)" fill="#262262" stroke="#000000" stroke-width="0.5" stroke-miterlimit="10" font-family="'Tahoma'" font-size="10">DEG</text>
	
		<text transform="matrix(1 0 0 1 266.3181 660.9879)" fill="#262262" stroke="#000000" stroke-width="0.5" stroke-miterlimit="10" font-family="'Tahoma'" font-size="10">DG</text>
	
		<text transform="matrix(1 0 0 1 314.0356 632.3353)" fill="#262262" stroke="#000000" stroke-width="0.5" stroke-miterlimit="10" font-family="'Tahoma'" font-size="10">DFG</text>
	
		<text transform="matrix(1 0 0 1 351.0564 671.6184)" fill="#262262" stroke="#000000" stroke-width="0.5" stroke-miterlimit="10" font-family="'Tahoma'" font-size="10">DF</text>
	
		<text transform="matrix(1 0 0 1 357.7555 638.9883)" fill="#262262" stroke="#000000" stroke-width="0.5" stroke-miterlimit="10" font-family="'Tahoma'" font-size="10">ADF</text>
	
		<text transform="matrix(1 0 0 1 358.4396 729.4913)" fill="#262262" stroke="#000000" stroke-width="0.5" stroke-miterlimit="10" font-family="'Tahoma'" font-size="10">DEFG</text>
	
		<text transform="matrix(1 0 0 1 460.1312 694.2296)" fill="#262262" stroke="#000000" stroke-width="0.5" stroke-miterlimit="10" font-family="'Tahoma'" font-size="10">38</text>
	
		<text transform="matrix(1 0 0 1 484.8036 639.442)" fill="#262262" stroke="#000000" stroke-width="0.5" stroke-miterlimit="10" font-family="'Tahoma'" font-size="10">ADEG</text>
	
		<text transform="matrix(1 0 0 1 504.0562 620.0319)" fill="#262262" stroke="#000000" stroke-width="0.5" stroke-miterlimit="10" font-family="'Tahoma'" font-size="10">ABDEG</text>
	
		<text transform="matrix(1 0 0 1 609.3513 605.9897)" fill="#262262" stroke="#000000" stroke-width="0.5" stroke-miterlimit="10" font-family="'Tahoma'" font-size="10">BEFG</text>
	
		<text transform="matrix(1 0 0 1 634.847 691.7303)" fill="#262262" stroke="#000000" stroke-width="0.5" stroke-miterlimit="10" font-family="'Tahoma'" font-size="10">AEFG</text>
	
		<text transform="matrix(1 0 0 1 564.9301 685.5936)" fill="#262262" stroke="#000000" stroke-width="0.5" stroke-miterlimit="10" font-family="'Tahoma'" font-size="10">AEG</text>
	
		<text transform="matrix(1 0 0 1 582.1468 662.9885)" fill="#262262" stroke="#000000" stroke-width="0.5" stroke-miterlimit="10" font-family="'Tahoma'" font-size="10">EG</text>
	
		<text transform="matrix(1 0 0 1 560.2321 638.4418)" fill="#262262" stroke="#000000" stroke-width="0.5" stroke-miterlimit="10" font-family="'Tahoma'" font-size="10">BEG</text>
	
		<text transform="matrix(1 0 0 1 527.8573 637.4423)" fill="#262262" stroke="#000000" stroke-width="0.5" stroke-miterlimit="10" font-family="'Tahoma'" font-size="10">ABEG</text>
	
		<text transform="matrix(1 0 0 1 539.873 615.0109)" fill="#262262" stroke="#000000" stroke-width="0.5" stroke-miterlimit="10" font-family="'Tahoma'" font-size="10">BDEG</text>
	
		<text transform="matrix(1 0 0 1 555.2335 594.3693)" fill="#262262" stroke="#000000" stroke-width="0.5" stroke-miterlimit="10" font-family="'Tahoma'" font-size="10">BDEFG</text>
	
		<text transform="matrix(1 0 0 1 659.3839 700.7721)" fill="#262262" stroke="#000000" stroke-width="0.5" stroke-miterlimit="10" font-family="'Tahoma'" font-size="10">AEF</text>
	
		<text transform="matrix(1 0 0 1 627.2451 662.9887)" fill="#262262" stroke="#000000" stroke-width="0.5" stroke-miterlimit="10" font-family="'Tahoma'" font-size="10">EFG</text>
	
		<text transform="matrix(1 0 0 1 684.0897 405.5741)" fill="#262262" stroke="#000000" stroke-width="0.5" stroke-miterlimit="10" font-family="'Tahoma'" font-size="10">ACFG</text>
	
		<text transform="matrix(1 0 0 1 647.6959 447.4151)" fill="#262262" stroke="#000000" stroke-width="0.5" stroke-miterlimit="10" font-family="'Tahoma'" font-size="10">ACEFG</text>
	
		<text transform="matrix(1 0 0 1 683.5219 471.9618)" fill="#262262" stroke="#000000" stroke-width="0.5" stroke-miterlimit="10" font-family="'Tahoma'" font-size="10">ACF</text>
	
		<text transform="matrix(1 0 0 1 665.7444 494.9507)" fill="#262262" stroke="#000000" stroke-width="0.5" stroke-miterlimit="10" font-family="'Tahoma'" font-size="10">ABCF</text>
	
		<text transform="matrix(1 0 0 1 668.94 596.9269)" fill="#262262" stroke="#000000" stroke-width="0.5" stroke-miterlimit="10" font-family="'Tahoma'" font-size="10">BEF</text>
	
		<text transform="matrix(1 0 0 1 643.6599 531.2129)" fill="#262262" stroke="#000000" stroke-width="0.5" stroke-miterlimit="10" font-family="'Tahoma'" font-size="10">ABEF</text>
	
		<text transform="matrix(1 0 0 1 634.194 500.2031)" fill="#262262" stroke="#000000" stroke-width="0.5" stroke-miterlimit="10" font-family="'Tahoma'" font-size="10">ABCEF</text>
	
		<text transform="matrix(1 0 0 1 651.033 470.9617)" fill="#262262" stroke="#000000" stroke-width="0.5" stroke-miterlimit="10" font-family="'Tahoma'" font-size="10">ACEF</text>
	
		<text transform="matrix(1 0 0 1 740.0912 434.026)" fill="#262262" stroke="#000000" stroke-width="0.5" stroke-miterlimit="10" font-family="'Tahoma'" font-size="10">AFG</text>
	
		<text transform="matrix(1 0 0 1 768.9436 453.5518)" fill="#262262" stroke="#000000" stroke-width="0.5" stroke-miterlimit="10" font-family="'Tahoma'" font-size="10">ABFG</text>
	
		<text transform="matrix(1 0 0 1 737.1348 503.2031)" fill="#262262" stroke="#000000" stroke-width="0.5" stroke-miterlimit="10" font-family="'Tahoma'" font-size="10">ABF</text>
	
		<text transform="matrix(1 0 0 1 703.8241 358.479)" fill="#262262" stroke="#000000" stroke-width="0.5" stroke-miterlimit="10" font-family="'Tahoma'" font-size="10">CFG</text>
	
		<text transform="matrix(1 0 0 1 793.7782 443.2768)" fill="#262262" stroke="#000000" stroke-width="0.5" stroke-miterlimit="10" font-family="'Tahoma'" font-size="10">BFG</text>
	
		<text transform="matrix(1 0 0 1 581.828 236.3257)" fill="#262262" stroke="#000000" stroke-width="0.5" stroke-miterlimit="10" font-family="'Tahoma'" font-size="10">ABDG</text>
	
		<text transform="matrix(1 0 0 1 500.0373 218.5893)" fill="#262262" stroke="#000000" stroke-width="0.5" stroke-miterlimit="10" font-family="'Tahoma'" font-size="10">ACDG</text>
	
		<text transform="matrix(1 0 0 1 521.4036 260.4855)" fill="#262262" stroke="#000000" stroke-width="0.5" stroke-miterlimit="10" font-family="'Tahoma'" font-size="10">ABCDG</text>
	
		<text transform="matrix(1 0 0 1 572.0083 279.2827)" fill="#262262" stroke="#000000" stroke-width="0.5" stroke-miterlimit="10" font-family="'Tahoma'" font-size="10">ABDFG</text>
	
		<text transform="matrix(1 0 0 1 350.3104 125.5554)" fill="#262262" stroke="#000000" stroke-width="0.5" stroke-miterlimit="10" font-family="'Tahoma'" font-size="12">725</text>
	
		<text transform="matrix(1 0 0 1 243.6994 191.6759)" fill="#262262" stroke="#000000" stroke-width="0.5" stroke-miterlimit="10" font-family="'Tahoma'" font-size="12">828</text>
	
		<text transform="matrix(1 0 0 1 143.3379 310.0757)" fill="#262262" stroke="#000000" stroke-width="0.5" stroke-miterlimit="10" font-family="'Tahoma'" font-size="12">867</text>
	
		<text transform="matrix(1 0 0 1 143.7449 433.026)" fill="#262262" stroke="#000000" stroke-width="0.5" stroke-miterlimit="10" font-family="'Tahoma'" font-size="12">CF</text>
	
		<text transform="matrix(1 0 0 1 184.3274 594.3689)" fill="#262262" stroke="#000000" stroke-width="0.5" stroke-miterlimit="10" font-family="'Tahoma'" font-size="12">996</text>
	
		<text transform="matrix(1 0 0 1 385.2006 146.7548)" fill="#262262" stroke="#000000" stroke-width="0.5" stroke-miterlimit="10" font-family="'Tahoma'" font-size="12">30</text>
	
		<text transform="matrix(1 0 0 1 429.5778 164.7228)" fill="#262262" stroke="#000000" stroke-width="0.5" stroke-miterlimit="10" font-family="'Tahoma'" font-size="12">89</text>
	
		<text transform="matrix(1 0 0 1 506.0994 127.5555)" fill="#262262" stroke="#000000" stroke-width="0.5" stroke-miterlimit="10" font-family="'Tahoma'" font-size="12">496</text>
	
		<text transform="matrix(1 0 0 1 621.8556 169.7229)" fill="#262262" stroke="#000000" stroke-width="0.5" stroke-miterlimit="10" font-family="'Tahoma'" font-size="12">AG</text>
	
		<text transform="matrix(1 0 0 1 551.3986 186.4593)" fill="#262262" stroke="#000000" stroke-width="0.5" stroke-miterlimit="10" font-family="'Tahoma'" font-size="12">ADG</text>
	
		<text transform="matrix(1 0 0 1 445.0342 139.8288)" fill="#262262" stroke="#000000" stroke-width="0.5" stroke-miterlimit="10" font-family="'Tahoma'" font-size="12">13</text>
	
		<text transform="matrix(1 0 0 1 388.6347 115.457)" fill="#262262" stroke="#000000" stroke-width="0.5" stroke-miterlimit="10" font-family="'Tahoma'" font-size="10">19</text>
	
		<text transform="matrix(1 0 0 1 279.049 134.3825)" fill="#262262" stroke="#000000" stroke-width="0.5" stroke-miterlimit="10" font-family="'Tahoma'" font-size="36">803</text>
	
		<text transform="matrix(1 0 0 1 102.6681 359.0506)" fill="#262262" stroke="#000000" stroke-width="0.5" stroke-miterlimit="10" font-family="'Tahoma'" font-size="36">55</text>
	
		<text transform="matrix(1 0 0 1 200.5263 690.7299)" fill="#262262" stroke="#000000" stroke-width="0.5" stroke-miterlimit="10" font-family="'Tahoma'" font-size="36">388</text>
	
		<text transform="matrix(1 0 0 1 474.7615 795.7754)" fill="#262262" stroke="#000000" stroke-width="0.5" stroke-miterlimit="10" font-family="'Tahoma'" font-size="36">198</text>
	
		<text transform="matrix(1 0 0 1 744.2908 646.3877)" fill="#262262" stroke="#000000" stroke-width="0.5" stroke-miterlimit="10" font-family="'Tahoma'" font-size="36">F</text>
	
		<text transform="matrix(1 0 0 1 789.6548 343.658)" fill="#262262" stroke="#000000" stroke-width="0.5" stroke-miterlimit="10" font-family="'Tahoma'" font-size="36">G</text>
	
		<text transform="matrix(1 0 0 1 384.4795 443.2767)" fill="#FFFFFF" stroke="#000000" stroke-width="0.5" stroke-miterlimit="10" font-family="'Tahoma'" font-size="36">ABCDEFG</text>
</g>
</svg>
