<svg version='1.0' xmlns='http://www.w3.org/2000/svg' xmlns:xlink='http://www.w3.org/1999/xlink' width='746' height='742' viewBox='-362 -388 746 742' encoding='UTF-8' standalone='no'>
	<title>Orthology Five-set Venn Diagram</title>
	<desc>My Orthology Database Five-set Venn Diagram</desc>
	<defs>
		<ellipse id='ellipse' cx='36' cy='-56' rx='160' ry='320' />
		<g id='ellipses'>
			<use xlink:href='#ellipse' fill='#0000ff' />
			<use xlink:href='#ellipse' fill='#0099ff' transform='rotate(72)' />
			<use xlink:href='#ellipse' fill='#00cc00' transform='rotate(144)' />
			<use xlink:href='#ellipse' fill='#cc9900' transform='rotate(216)' />
			<use xlink:href='#ellipse' fill='#ff0000' transform='rotate(288)' />
		</g>
	</defs>
	<use xlink:href='#ellipses' fill-opacity='0.3' />
	<use xlink:href='#ellipses' fill-opacity='0' stroke='#000' stroke-width='2' />
	<g text-anchor='middle' font-family='sans-serif' font-size='16'>
		
	
		<text x="30"   y="-300" font-size="20">24</text>
		<text x="300"  y="-48"  font-size="20">940</text>
		<text x="160"  y="300"  font-size="20">1398</text>
		<text x="-190" y="266"  font-size="20">2312</text>
		<text x="-280" y="-120" font-size="20">358</text>
		<text x="180"  y="-130">701</text>
		<text x="40"   y="230" >1288</text>
		<text x="100"  y="-200">908</text>
		<text x="-80"  y="-208">379</text>
		<text x="190"  y="131" >1827</text>
		<text x="-190" y="120" >976</text>
		<text x="230"  y="40"  >995</text>
		<text x="-62"  y="224" font-size="14">1697</text>
		<text x="-170" y="-150">1433</text>
		<text x="-222" y="6" font-size="14">2891</text>
		<text x="90"   y="150" >637</text>
		<text x="149"  y="-146" font-size="14">184</text>
		<text x="170"  y="-20" >48</text>
		<text x="-33"  y="217"  font-size="14">725</text>
		<text x="-96"  y="-186" font-size="14">157</text>
		<text x="20"   y="-180">325</text>
		<text x="-112" y="145" >1684</text>
		<text x="190"  y="100"  font-size="14">893</text>
		<text x="-211" y="32"   font-size="14">318</text>
		<text x="-150" y="-80" >699</text>
		<text x="-30"  y="160" >801</text>
		<text x="140"  y="80"  >92</text>
		<text x="120"  y="-100">35</text>
		<text x="-60"  y="-140">482</text>
		<text x="-160" y="20"  >1947</text>
		<text x="5"    y="40"  style="fill: #FFFFFF; stroke: #000000; stroke-width: 3px; font-size: 140px; font-weight: 900;" >1020</text>
</g>
	</svg>